<svg xmlns="http://www.w3.org/2000/svg" viewBox="0 0 561.81 289.34"><defs><style>.cls-1{fill:none;stroke:#ff1a83;stroke-miterlimit:10;stroke-width:4px;}</style></defs><title>變態</title><g id="圖層_2" data-name="圖層 2"><g id="內文"><path class="cls-1" d="M38.27,126.77C36.21,147,32.52,161.24,24.92,177.1c-7.92-7-12.58-10.56-22.12-15.85,7.45-12.18,10.47-22.2,11.81-38.95ZM3.84,92.43c6.53.59,9.36.49,19,.12,4.38-3.85,4.65-4.14,8.48-7.69A206.18,206.18,0,0,0,3.11,58.77l18.1-22.49c3.22,2.71,4.38,3.51,7,6C35,33.21,39,26.54,42,17.93l24.3,13.51a57.51,57.51,0,0,1-3.74,5.8c-5.39,7.28-11.32,14.87-17,21.6,2.66,3,3.25,3.55,5,5.47C61.7,51.43,67.08,43.86,69.67,37.82L92,51.68l-.18-4.8c3.69.42,6,.33,14.72,0l59.07-2.27a100,100,0,0,0,12.13-1v.28l11.9-14.61,6.74,6c7-8.48,10.48-14.55,13.8-23.74L234.49,25l-2.42,3.49A269.7,269.7,0,0,1,213.73,52.1c2.07,2.19,2.07,2.19,5.33,6,10.28-12.29,17-21.6,19.07-26.78l23.76,14.38a55,55,0,0,0-7.08,7.34c-8.4,9.67-23.64,25.54-30.51,30.9,9.31-.64,11.85-1,19.17-1.87-1.56-3.9-2.49-5.85-4.94-10.85l19-6.11c7.62,14.15,12,25.3,16.61,41.82L261,111.43c3.53,18.26,6.66,26.07,15,37.07A107.56,107.56,0,0,0,255.18,166c-8.48-14.67-12.6-26.12-17.2-50l14.85-4c-1-4.21-1-4.21-1.7-7.3-7,1.12-7,1.12-14.91,2.27l1.62,42.12c.42,11,.86,15.25,1.87,19.46l-31.93,1.22c.65-5.12.75-9.93.38-19.54l-1.53-39.86c-15.23,1.44-24.54,2.36-27.91,3.06l-5.3-27.54a112.74,112.74,0,0,0,13.32.34l4.24-.17c4.38-3.84,4.65-4.14,8.48-7.68a215.16,215.16,0,0,0-21.18-20.7l.37,9.61a116.82,116.82,0,0,0-15.28,0L107.12,69.5c-7.06.27-10.16.67-14.39,1.12l-.66-17.24C91,54.55,90.44,55.14,79.86,67.15,77.15,70.37,74.43,73.3,69.8,78L87.4,72a195.74,195.74,0,0,1,16,40.43l-.52-13.56a96.62,96.62,0,0,0,13.87,0l40.42-1.55c7.06-.27,9.89-.38,13.83-1.1l.72,18.94c-5.94,0-9.35-.21-13.87,0l-41,1.57c-2.83.11-7.34.56-13.27,1.07l-.16-4.24-13.69,4.78a236.15,236.15,0,0,1,12.36,34.34l-22,8.77c-3.44-15.72-4.42-19.08-11-37.23l1.23,32.23c.41,10.74.86,15,1.87,19.17L40.19,176.8c.64-5.41.73-10.5.39-19.27L39,116.83c-3.94.44-3.94.44-16.08,1.47a68.32,68.32,0,0,0-14.07,2ZM217.7,207.07a149.54,149.54,0,0,1-27,26.51A429.86,429.86,0,0,0,265,237l12.16-.47c-8,13-12.1,24-15.7,40.8-35.72-1.18-48.5-2.39-70.15-6.09A276.49,276.49,0,0,1,144.43,260C111.82,273.12,75.07,281.61,26,287.17c-5.12-15.37-9.73-24.82-17.55-36.69l5.66-.22c28.26-1.08,61.21-5.46,85.05-11.19a137.17,137.17,0,0,1-23-16.95c-13.52,9-21.86,13-40.82,20.53-7.89-13.85-14.17-22.38-24.77-33.3,32.58-6.62,66.58-27.74,78.25-48.29l14.84,3.11c-.22-5.65-.23-5.93-.26-6.78l-.81-20.92a134.42,134.42,0,0,0-1.09-13.83,103.38,103.38,0,0,0,14.43,0L158.63,121c6.5-.25,10.17-.67,14.4-1.12-.46,2.85-.37,5.11,0,13.87l.7,18.09c5.3-9.26,8-19,9.37-36l22.81,4.22c-2.25,22.45-5.19,34.45-12,49.43-8.77-7.31-12-9.45-20.07-14.24.37,9.61.41,10.74,1.07,13.27-4.81-.1-9.35-.21-14.43,0l-30.25,1.16c-2.15,2.92-2.15,2.92-7.55,9.64L233.74,175c22-.84,27.4-1.33,33.6-2.13l1.28,33.35c-9.66-.76-12.48-.66-30,0ZM56.14,90.7c9.3-.92,11-1,18-1.82-1.55-3.62-1.56-3.91-4.93-10.57A163.18,163.18,0,0,1,56.14,90.7ZM69,124.17l14.54-4.52c-.71-3.65-1-4.77-1.72-7.86-8.16,1.17-8.16,1.17-13.23,1.93ZM98.72,20.29a105.93,105.93,0,0,0,14.73.28l42.4-1.63A98.46,98.46,0,0,0,170,17.55L170.77,39c-6.51,0-9.63-.19-14.15,0l-43,1.65c-3.68.14-9.6.65-14.11,1.11ZM102,75.07c4.25.12,7.93.27,13.87,0l40.42-1.55c6.5-.25,10.16-.68,13.82-1.1l.73,18.94c-4.82-.1-9.35-.21-13.87,0l-41,1.58c-4.24.16-8.75.62-13.27,1.07Zm14.45,133.34a140.92,140.92,0,0,0,28,13.93,111.49,111.49,0,0,0,23.73-15.92Zm13-58.81,18.37-.71-.36-9.61-18.38.71Z"/><path class="cls-1" d="M389.56,75.36c3.67-.14,6.21-.24,11.57-.72L395.35,64.1c-2.81.39-2.81.39-7.6,1.14-13.51,1.93-38.31,4.87-70.72,8.38-7.33.84-11.84,1.3-24.79,3.21l-4.48-35.49c6.82.59,7.67.55,22.37,0,7.74-12.19,13.76-24.87,17-36.32l42.34,4.32c-3.19,5.22-4.24,7.52-7.42,13-3.95,7.8-4.22,8.09-9.83,16.8,12.7-1.06,13.54-1.09,25.38-2.39-3-4.13-4.77-6.33-9.23-11.82l29.43-15c10.95,12.32,15.12,17.82,25.27,31.58l-.49-13c-.42-10.74-1-17.79-2.05-23.7l43.53-1.67c-.61,6.26-.77,9.38-.37,19.83,25.24-6.06,40.86-12,54.13-20.47L549.2,31c-9,2.61-9,2.61-27.12,8.69-2.52.94-4.2,1.29-7.28,2.26,9.79,4.15,18.92,6.07,36.52,7.37-.62,13.33-1.51,19.87-3.56,25.33-6.49,15.25-17.11,18.77-64.6,20.6-26,1-37.35.3-45.12-3.09-9.48-3.59-13.43-10.52-13.89-22.67l-.24-6.22L403.39,74.55c5.07-.76,6.77-.83,11.27-1.57-.33,6.24-.42,11.34.1,24.91L417,155.55c.93,24.31-8.14,31.45-42.9,32.78-2.26.09-5.94.23-10.47.12-1.24-10.14-3.16-16-7.37-22.36a98.73,98.73,0,0,0,13.61.61c7.35-.28,8.45-1.18,8.26-6l-.1-2.55-32.5,1.25.47,12.16c.44,11.58.6,15.82,1.7,22.29l-42.11,1.62c.76-9.66.74-17.58.22-31.15l-2.51-65.29c-.35-9.33-.88-15.53-1.68-21.73,8.23.53,15,.84,19.56.67ZM290.31,247.87c14.31-18.09,20.1-29.36,26.87-52.26l36.14,12.48c-6.59,27.43-12,40.66-25.62,62.69Zm85.84-138.31-.33-8.48-32.5,1.25.33,8.48Zm1.09,28.55-.32-8.48-32.51,1.25.33,8.47ZM432.88,179c-3.58-4.68-5.18-9.43-5.48-17.34L426,124.07c-.42-11-1-17.8-2-24l43.52-1.67c-.37,5.11-.55,7.66-.57,14.45C487.93,109,509.73,101.6,520.52,95l28.55,28.63c-5.33,1.34-5.61,1.35-12.88,3.61-5.6,1.63-8.39,2.58-17.93,4.93,10.63,4.12,19.47,5.76,37.06,6.79-.87,21.54-3.1,29.84-9.36,36.3-4.91,5-11,7.51-24.55,9.44a328.42,328.42,0,0,1,37.71,53.18l-36.77,22.93c-7.43-16.42-12.92-27-21.37-40.51-.8,23.52-5.19,34.45-15.44,40.22-8,4.55-21,6.18-64.52,7.85-52,2-60.92-1.62-61.79-24.23L358,212.16a132.08,132.08,0,0,0-1.86-18.9l43.53-1.67a68.65,68.65,0,0,0-.61,13.61l.78,20.35c.24,6.22,3.66,6.94,27.4,6,20.64-.79,28.22-2.21,30.63-6,1.59-2.61,2.21-8.57,1.8-19.31l-27.86,18.9c-8.4-12.42-13.44-18.17-25.76-29.58ZM518,185.36c-10.43,1.24-18.89,1.85-33.87,2.43-16.4.63-24.62.38-33.15-.71a153.89,153.89,0,0,1,14.47,15.58l-3.32,2.1a133.3,133.3,0,0,0,34,8.32c-2.7-3.86-4.49-6.33-8.95-11.82ZM465,56.9c.26,6.78,3.4,7.51,24.32,6.71,23.74-.91,24-1.2,24.66-21.33-19.05,5.26-27.75,7.29-49.1,11.51Zm3.16,89.61c.27,7.06,2.84,7.81,26.87,6.89,21.2-.81,22-1.69,21.85-20.65-17.67,4.36-26.94,6.13-48.88,9.8Z"/></g></g></svg>