<svg xmlns="http://www.w3.org/2000/svg" viewBox="0 0 444.18 110.8"><defs><style>.cls-1{fill:#00cbf4;}.cls-2{fill:#fff;}</style></defs><g id="圖層_2" data-name="圖層 2"><g id="內文"><rect class="cls-1" width="372.62" height="110.8"/><path class="cls-2" d="M143.58,45.33a95.24,95.24,0,0,1,13.24,9.08l-5.61,9.36A72.29,72.29,0,0,0,137.1,53.9ZM157.4,71.26c-3.89,11.59-6.05,16.56-10.44,24.19l-9.58-8.21C140.91,83,144.37,76,148.26,65ZM146.17,27.33a91.88,91.88,0,0,1,13.25,9.15l-6.56,9A73.24,73.24,0,0,0,139.33,35.4Zm32.62,13.54a94.65,94.65,0,0,0-11.6-6.41L175,26.83a86.54,86.54,0,0,1,15.91,8.78l-5,5.26h9.36a64.24,64.24,0,0,0,8.72-.43V51.6a74.73,74.73,0,0,0-8.64-.36h-9.51v9.94h7.56c3.17,0,6.19-.15,8.35-.36V71.69c-2.37-.22-5.32-.36-8.35-.36h-7.56V82.78h10a86.88,86.88,0,0,0,9.29-.43V93.51a79.59,79.59,0,0,0-9.29-.44H165.83a78.64,78.64,0,0,0-9.29.44V82.35c2.44.28,6.19.43,9.21.43h8.64V71.33h-6.12c-3,0-6,.14-8.35.36V60.82c2.23.21,5.26.36,8.35.36h6.12V51.24h-7.84c-3.46,0-6.2.14-8.65.36V40.44a63.54,63.54,0,0,0,8.72.43Z"/><path class="cls-2" d="M215.86,88.68a37.31,37.31,0,0,0,7.56-13l9.8,3.82c-1.88,5.54-3.82,9.36-8,15.48Zm28.59-57.39a18,18,0,0,0-.36-4.1h12.17a21.92,21.92,0,0,0-.36,4.1h16.34a55.23,55.23,0,0,0,7.78-.43v9.22a66.45,66.45,0,0,0-7.92-.29h-3.53c-.79,1.58-.86,1.8-1.37,2.81h8.28a56,56,0,0,0,8.07-.36v9.14a60,60,0,0,0-8.14-.36H225.87a60.1,60.1,0,0,0-8.14.36V42.24a63,63,0,0,0,8.57.36h7.35c-.58-1.23-.79-1.66-1.44-2.81H229a63.1,63.1,0,0,0-7.71.29V30.86a59.72,59.72,0,0,0,8.14.43Zm-14,43.86c-3.17,0-4.25,0-6.12.14a42,42,0,0,0,.21-4.9v-11a55.41,55.41,0,0,0-.28-6.48c1.8.14,3.31.14,7.63.14h37.44c4.54,0,5.84,0,7.56-.14a49.82,49.82,0,0,0-.28,6.62v9.86c0,2,.07,3.39.28,5.91h-1.58a94.65,94.65,0,0,1,9.72,13l-9.36,6.12c-2.52-4.32-3.6-6-5.83-9.29-.94,9.15-2.45,9.94-20.24,9.94-6.91,0-10.8-.29-12.81-1a4.23,4.23,0,0,1-3.17-4.46V82.06a36.88,36.88,0,0,0-.29-5.19h11.23a34.7,34.7,0,0,0-.28,5.19v2.59c0,1.15,1.36,1.44,6.91,1.44,8.13,0,8.42-.22,8.42-5.54a37.45,37.45,0,0,0,8.28,2c-1.08-1.44-1.08-1.44-2.09-2.81l7.93-4.53c-1.44-.07-1.59-.07-1.8-.07H255.9a56.42,56.42,0,0,1,5.69,3.45L254,84.87c-2.16-2-2.37-2.16-8.85-6.56l4.61-3.16Zm4.82-13.83h30.61V59.23H235.3Zm0,7.42h30.61V66.65H235.3ZM255.61,42.6c.5-.94.94-1.8,1.37-2.81h-13.4c.58,1.15.8,1.51,1.37,2.81Z"/><path class="cls-2" d="M324.37,64.78H307.16c-2.45,0-4.61.07-6.55.21V57.72a51,51,0,0,0,6.69.29h17.07V56H308.82c-2.6,0-4.47.07-6.27.22.14-1.44.22-3,.22-4.9V46.56c0-2-.08-3.46-.22-5.19,2,.15,3.53.22,6.48.22h15.34V39.5H305.5a75.75,75.75,0,0,0-8.78.36V30.72a78.38,78.38,0,0,0,9.43.43h18.22a16.2,16.2,0,0,0-.43-3.6h11.37a18.12,18.12,0,0,0-.43,3.6h18.65a77.87,77.87,0,0,0,9.36-.43v9.14a75.36,75.36,0,0,0-8.64-.36H334.88v2.09h16c2.95,0,4.46-.07,6.19-.22-.14,1.66-.22,2.88-.22,5.19v4.75a47,47,0,0,0,.22,4.9c-1.66-.15-3.46-.22-5.69-.22H334.88v2h16.56a57,57,0,0,0,7.35-.22,50.37,50.37,0,0,0-.22,6.63v2.23a24.57,24.57,0,0,0,5-.43V75a35.35,35.35,0,0,0-5-.36V78.1a61.36,61.36,0,0,0,.36,8.13H348.06v-2.8H334.88v2.73c0,7.92-1.87,9.29-12.67,9.29-1.94,0-4-.07-6.7-.22a30.77,30.77,0,0,0-2.73-9.07c3.81.36,6.41.58,8.92.58,2.24,0,2.67-.22,2.67-1.51v-1.8H307.66a70.63,70.63,0,0,0-7.2.28V76.3a56.66,56.66,0,0,0,6.84.21h17.07V74.35H304.28a51.41,51.41,0,0,0-7.92.36V66.58a51,51,0,0,0,7.78.36h20.23ZM313.14,47.71v2.16h11.23V47.71Zm21.74,2.16h11.6V47.71h-11.6Zm13.18,17.07V64.78H334.88v2.16Zm-13.18,9.57h13.18V74.35H334.88Z"/><path class="cls-1" d="M381.46,43.17a37,37,0,0,0-5.32.29V32.59a47.3,47.3,0,0,0,7.12.43h8.79a49.55,49.55,0,0,0,6.19-.36v10.8a34.56,34.56,0,0,0-5.33-.29V68.59c2.16-.93,3-1.37,6-2.88V76.44A123.2,123.2,0,0,1,385.57,83c-1.95.72-4.11,1.59-6.41,2.52-.14.08-.22.08-1.51.72l-2.88-11.37a52.18,52.18,0,0,0,7.34-2V43.17Zm26.5-3.6c-2.52,0-5.25.08-8.21.29V29.28a69.67,69.67,0,0,0,8.86.43h24.48a66.21,66.21,0,0,0,8.71-.43V39.93c-2.3-.21-5-.36-8.42-.36h-8.57c-.72,1.37-.72,1.37-1.66,3.1h8.36c4.82,0,5.9,0,7.63-.14a52.14,52.14,0,0,0-.29,6.26v25c0,2.45.15,5.33.36,7.49-2.09-.15-2.09-.15-6.33-.22H430.5c4.32,2.59,7.7,3.82,13.68,5a49.71,49.71,0,0,0-6.48,9.65,51.21,51.21,0,0,1-17.64-9.36l5-5.33h-14l6.12,5.26C410.91,91,406.67,93.15,398.1,96a48.27,48.27,0,0,0-6.7-9.43c7-1.22,11.31-2.81,15.12-5.47h-.72c-2.23,0-4,.07-5.25.14.21-2.23.28-4.82.28-7.41V49.3c-.07-3.75-.14-6-.21-6.77,1.65.14,2.37.14,5.9.14h5.4c.43-.86.72-1.37,1.51-3.1Zm3.46,13.76h16.7V50.66h-16.7Zm0,9.79h16.7V60.38h-16.7Zm0,9.72h16.7V70.11h-16.7Z"/></g></g></svg>