<svg xmlns="http://www.w3.org/2000/svg" viewBox="0 0 426.39 102.28"><defs><style>.cls-1{fill:#00cbf4;}</style></defs><title>交通方式</title><g id="圖層_2" data-name="圖層 2"><g id="內文"><path class="cls-1" d="M70.2,25a68.34,68.34,0,0,0,9.51,9.39c6.69,5.4,11.66,8.21,21.16,12a58.32,58.32,0,0,0-9,14.8,113.74,113.74,0,0,1-15.12-9A95.23,95.23,0,0,1,63.5,71.39a122,122,0,0,0,38.78,13.18c-3.89,5.83-5.4,9.28-7.78,17.06C83.05,98.93,76.36,96.77,68.15,93A109.93,109.93,0,0,1,50.76,82.84,101.66,101.66,0,0,1,28.08,95.37a161.4,161.4,0,0,1-20.2,6.91A52,52,0,0,0,0,86.4a97,97,0,0,0,16.42-4.32c9.72-3.35,15.55-6,22-10.37A88.34,88.34,0,0,1,24.84,52.16,132.07,132.07,0,0,1,11.23,62.1,59.56,59.56,0,0,0,.43,48.71c8.64-4.54,13.83-8,19.77-13.61A63.16,63.16,0,0,0,29.27,25H16.52a120,120,0,0,0-14.79.65v-17a122.05,122.05,0,0,0,14.79.65H41.58V6.59A33.4,33.4,0,0,0,40.93,0H59.18a30.76,30.76,0,0,0-.54,6.59v2.7H85.21A121.29,121.29,0,0,0,99.9,8.64v17A122,122,0,0,0,85,25ZM39,44.82c3.89,8.21,6.37,11.88,11.55,17A57.82,57.82,0,0,0,61.78,44.71l14,6.81a90.61,90.61,0,0,1-19.66-19L68.37,25H30.56l13.5,7.34a96.65,96.65,0,0,1-18.14,19Z"/><path class="cls-1" d="M134.89,76.14a10.94,10.94,0,0,0,4.32,4.54,101.8,101.8,0,0,0,.54-11.56V35.53a112.26,112.26,0,0,0-.54-12.85c3.46.32,6.59.43,12.42.43h3a64.87,64.87,0,0,0-6.27-3.67l6.05-3.35h-5a82.86,82.86,0,0,0-11.45.54V1.4a119.29,119.29,0,0,0,14.37.65h32.18c7.78,0,11.56-.21,13.61-.65l8,8.64a44.29,44.29,0,0,0-5.07,4.22,111.49,111.49,0,0,1-10.91,8.85h5a86,86,0,0,0,10.26-.43A97.06,97.06,0,0,0,205,34.24V69.77c0,5.62-1,7.78-3.89,9.4-2,1.08-5.94,1.62-12.1,1.62h-3.67a47,47,0,0,0-2.59-11.13,39.39,39.39,0,0,0,4.64.33c1.73,0,2-.22,2-2.27V65.56H179.5v3.13a85.7,85.7,0,0,0,.54,12.1H163.73a84.07,84.07,0,0,0,.65-12.1V65.56h-9v3.56c0,6.16.11,9.83.65,12h-16c3,1.51,4.86,1.94,10,2.38,2.81.21,18.79.64,23.44.64A327.66,327.66,0,0,0,211,81.65a83.38,83.38,0,0,0-3.88,17.6c-11.78.44-20.09.54-38.45.54-11,0-20.85-.54-26.25-1.51a26,26,0,0,1-15.33-8.42,82.42,82.42,0,0,1-13.29,10.47l-7.77-16.74a57,57,0,0,0,13.17-8V55.51H114.7a37.39,37.39,0,0,0-6.48.54V39.53a53.65,53.65,0,0,0,8.74.54H127a49,49,0,0,0,8.31-.54,112.4,112.4,0,0,0-.43,12.31ZM118.8.65c9,7.34,14.47,12.74,20.2,19.87L126.47,33.16A113.36,113.36,0,0,0,106.6,12.42Zm36.61,34.67v4.42h9V35.32Zm0,19.33h9V50.11h-9Zm9.4-38.56c3.13,2.27,4.43,3.35,7.67,5.94a61.53,61.53,0,0,0,7.45-5.94ZM179.5,39.74h9.83V35.32H179.5Zm9.83,10.37H179.5v4.54h9.83Z"/><path class="cls-1" d="M257.26,8.75a45.81,45.81,0,0,0-.65-8.32h18.68a45.81,45.81,0,0,0-.65,8.32v5.07h26.57a110.33,110.33,0,0,0,14.91-.75V30.35a119.33,119.33,0,0,0-14.26-.65H263.41c-.32,5.62-.32,5.83-.65,9.07H294.3a95.07,95.07,0,0,0,11.23-.43c-.43,4-.43,4.64-.86,15.55-.76,19.55-2.27,31-5.18,37.48-3,7.13-7.89,9.5-19,9.5-2.7,0-7.45-.21-13.83-.54a44.36,44.36,0,0,0-4.43-16.74A127.42,127.42,0,0,0,278,84.78c5.51,0,6.92-1.4,8-8a166.62,166.62,0,0,0,1.72-22.47H260.5a83.94,83.94,0,0,1-7.56,20.09c-5.62,10.59-13.4,18.9-26,27.65a44.43,44.43,0,0,0-12.1-14.36c16.31-9.72,23.65-18.47,27.76-32.94A94.63,94.63,0,0,0,245.7,29.7H232.31c-5.62,0-10.69.22-15,.65V13.07a122.31,122.31,0,0,0,14.9.75h25.06Z"/><path class="cls-1" d="M340.74,56.48c-3.89,0-8.53.22-11.88.44V41.36a114.29,114.29,0,0,0,12.31.54h24.41a111.5,111.5,0,0,0,12.1-.54V56.92c-3.35-.22-8-.44-12-.44h-4.21v20c6.8-1.19,10.8-2.06,20.19-4.22V87.59c-20.19,4.64-30.56,6.59-46.76,9-3.57.54-5.29.76-7.45,1.3l-2.38-17c4.32,0,10.37-.54,20.2-1.94V56.48ZM413.1,16.42a61.6,61.6,0,0,0,10.48-.54V32.29a119,119,0,0,0-14-.65H397.12c1,15.56,2.48,24.74,5.29,33.16,2.27,6.91,4.32,11.13,7.56,15.34,1.4-3.46,2.27-8,3-15.77a60.62,60.62,0,0,0,13.4,8c-1.52,11-3.24,17.28-6.16,22.25-2.38,3.89-5.62,6-9.18,6-6.26,0-13.39-6.27-18.9-16.74-6.48-12.21-10.26-28.84-11.66-52.28H339.34c-5.08,0-9.29.22-14,.65V15.77a122.74,122.74,0,0,0,14,.65H380c-.44-12.21-.44-12.21-.87-15.23H396.9a39.8,39.8,0,0,0-.43,6.37c0,1,0,3.24.11,8.86h9.93a54.33,54.33,0,0,0-8.21-9.29L410.62.86a89.22,89.22,0,0,1,9.72,11.24l-8.43,4.32Z"/></g></g></svg>