<svg xmlns="http://www.w3.org/2000/svg" xmlns:xlink="http://www.w3.org/1999/xlink" viewBox="0 0 1846.52 377.31"><defs><style>.cls-1{fill:url(#未命名漸層_11);}.cls-2{fill:#fdfa5d;}.cls-3{fill:#fda5ff;}.cls-15,.cls-16,.cls-17,.cls-4{fill:#ff1a83;}.cls-5{fill:#ff8269;}.cls-6{fill:#8cfaff;}.cls-10,.cls-11,.cls-13,.cls-14,.cls-22,.cls-7,.cls-8,.cls-9{fill:none;stroke:#ff1a83;stroke-miterlimit:10;}.cls-10,.cls-11,.cls-13,.cls-14,.cls-7,.cls-8,.cls-9{stroke-width:2px;}.cls-8{stroke-dasharray:12.89 12.89;}.cls-9{stroke-dasharray:12.69 12.69;}.cls-10{stroke-dasharray:11.36 11.36;}.cls-11{stroke-dasharray:12.73 12.73;}.cls-12{fill:#6fffc8;}.cls-13,.cls-14{stroke-linecap:round;}.cls-14{stroke-dasharray:11.01 11.01;}.cls-15{font-size:13.26px;}.cls-15,.cls-16,.cls-17,.cls-18,.cls-21{font-family:GenSenRoundedTW-B, GenSenRounded TW;}.cls-16{font-size:19.37px;}.cls-17,.cls-18,.cls-21{font-size:25.88px;}.cls-18,.cls-21{fill:#e72591;}.cls-18{letter-spacing:-0.19em;}.cls-19{letter-spacing:-0.08em;}.cls-20{letter-spacing:0em;}.cls-22{stroke-width:8px;}</style><linearGradient id="未命名漸層_11" x1="107.86" y1="91.44" x2="1841.57" y2="91.44" gradientUnits="userSpaceOnUse"><stop offset="0" stop-color="#fff" stop-opacity="0"/><stop offset="0.54" stop-color="#00d1f7"/><stop offset="1" stop-color="#fff"/></linearGradient></defs><title>地圖二（還會再改）</title><g id="圖層_2" data-name="圖層 2"><g id="內文"><rect class="cls-1" x="107.86" y="45.69" width="1733.71" height="91.51"/><rect class="cls-2" x="1649.06" y="109.45" width="53.72" height="26.95"/><rect class="cls-3" x="598.9" y="48.7" width="53.45" height="27.88"/><path class="cls-4" d="M1647.59,136h194.93a0,0,0,0,1,0,0v3.56a0,0,0,0,1,0,0h-196a0,0,0,0,1,0,0V137A1.06,1.06,0,0,1,1647.59,136Z"/><rect class="cls-5" x="503.58" y="139.52" width="53.45" height="55.23"/><rect class="cls-5" x="556.14" y="139.52" width="82.85" height="82.85"/><rect class="cls-5" x="639.88" y="139.52" width="107.79" height="107.79"/><rect class="cls-6" x="838.35" y="213.59" width="92.03" height="81.07"/><rect class="cls-6" x="919.48" y="213.59" width="90.28" height="81.07"/><rect class="cls-6" x="1009.4" y="213.59" width="90.28" height="81.07"/><rect class="cls-6" x="1089.45" y="213.59" width="90.28" height="81.07"/><rect class="cls-6" x="1178.76" y="210.24" width="96.29" height="84.42"/><rect class="cls-6" x="1343.96" y="186.19" width="82.53" height="110.13"/><rect class="cls-6" x="1427.28" y="186.19" width="111.47" height="110.13"/><path class="cls-4" d="M293.34,193.86H238.92a1.71,1.71,0,0,0-1.71,1.71v26a1.72,1.72,0,0,0,1.71,1.71h14.4a1.72,1.72,0,0,0,1.71-1.71v-9.87h38.31Z"/><path class="cls-4" d="M128,242.86H297.79a0,0,0,0,1,0,0V250a0,0,0,0,1,0,0H128a1.25,1.25,0,0,1-1.25-1.25V244.1A1.25,1.25,0,0,1,128,242.86Z"/><rect class="cls-4" x="294.23" y="44.63" width="454.33" height="8.91" rx="0.87"/><line class="cls-7" x1="297.79" y1="55.78" x2="300.36" y2="61.2"/><line class="cls-8" x1="305.89" y1="72.85" x2="358.38" y2="183.5"/><polyline class="cls-7" points="361.14 189.33 363.71 194.75 366.11 189.25"/><line class="cls-9" x1="371.18" y1="177.62" x2="419.36" y2="67.09"/><line class="cls-7" x1="421.89" y1="61.28" x2="424.29" y2="55.78"/><path class="cls-4" d="M1840.74,139.52H1647.58a1,1,0,0,0-1,1v.29a2.22,2.22,0,0,0,2.22,2.23h183.81a1,1,0,0,1,1,1V288.26a4.83,4.83,0,0,1-4.83,4.83H1644a1,1,0,0,1-1-1V188a3.53,3.53,0,0,0-3.54-3.54h-98.75a1,1,0,0,0-1,1v5a1,1,0,0,0,1,1.05h88.77a1,1,0,0,1,1,1.05V293.82a1,1,0,0,1-1,1.05h-283a1,1,0,0,0-1,1.05v3.25a1,1,0,0,0,1,1.05h487.27c3,0,8.77-7.13,8.77-7.13V140.56a1,1,0,0,0-1-1Z"/><line class="cls-7" x1="1539.63" y1="189.75" x2="1634.06" y2="296.65"/><line class="cls-7" x1="1632.28" y1="191.53" x2="1541.42" y2="296.65"/><rect class="cls-4" x="1667.92" y="162.68" width="10.69" height="40.98" rx="3"/><rect class="cls-4" x="1689.3" y="162.68" width="10.69" height="40.98" rx="3"/><rect class="cls-4" x="1712.46" y="162.68" width="10.69" height="40.98" rx="3"/><rect class="cls-4" x="1667.92" y="219.69" width="10.69" height="40.98" rx="3"/><rect class="cls-4" x="1689.3" y="219.69" width="10.69" height="40.98" rx="3"/><rect class="cls-4" x="1712.46" y="219.69" width="10.69" height="40.98" rx="3"/><line class="cls-7" x1="1834.25" y1="141.96" x2="1828.66" y2="144.12"/><line class="cls-10" x1="1818.06" y1="148.21" x2="1653.87" y2="211.68"/><polyline class="cls-7" points="1648.57 213.73 1642.97 215.89 1648.63 217.9"/><line class="cls-11" x1="1660.63" y1="222.16" x2="1822.6" y2="279.7"/><line class="cls-7" x1="1828.6" y1="281.83" x2="1834.25" y2="283.83"/><rect class="cls-12" x="880.41" y="46.4" width="53.97" height="27.88"/><rect class="cls-12" x="934.12" y="46.4" width="80.8" height="27.88"/><rect class="cls-12" x="1137.22" y="107.46" width="56.76" height="28.49"/><rect class="cls-12" x="1218.86" y="46.21" width="55.3" height="54.11"/><rect class="cls-12" x="1345.16" y="46.87" width="53.72" height="26.95"/><rect class="cls-12" x="1398.35" y="46.87" width="53.72" height="26.95"/><rect class="cls-12" x="1507.94" y="46.87" width="53.72" height="26.95"/><rect class="cls-12" x="1561.13" y="46.87" width="53.72" height="26.95"/><rect class="cls-2" x="1764.41" y="64.75" width="89.08" height="53.32" transform="translate(1900.37 -1717.54) rotate(90)"/><line class="cls-13" x1="1136.97" y1="45.09" x2="1136.97" y2="51.09"/><line class="cls-14" x1="1136.97" y1="62.1" x2="1136.97" y2="122.67"/><line class="cls-13" x1="1136.97" y1="128.17" x2="1136.97" y2="134.17"/><line class="cls-13" x1="1274.16" y1="45.09" x2="1274.16" y2="51.09"/><line class="cls-14" x1="1274.16" y1="62.1" x2="1274.16" y2="122.67"/><line class="cls-13" x1="1274.16" y1="128.17" x2="1274.16" y2="134.17"/><line class="cls-13" x1="878.62" y1="45.09" x2="878.62" y2="51.09"/><line class="cls-14" x1="878.62" y1="62.1" x2="878.62" y2="122.67"/><line class="cls-13" x1="878.62" y1="128.17" x2="878.62" y2="134.17"/><line class="cls-13" x1="1015.82" y1="45.09" x2="1015.82" y2="51.09"/><line class="cls-14" x1="1015.82" y1="62.1" x2="1015.82" y2="122.67"/><line class="cls-13" x1="1015.82" y1="128.17" x2="1015.82" y2="134.17"/><line class="cls-7" x1="502.69" y1="46.87" x2="502.69" y2="135.95"/><line class="cls-7" x1="746.78" y1="46.87" x2="746.78" y2="135.95"/><polygon class="cls-4" points="83.7 65.61 83.7 90.71 97.5 78.16 83.7 65.61"/><polygon class="cls-4" points="97.5 90.36 83.7 104.16 97.5 116.7 97.5 90.36"/><path class="cls-4" d="M292.45,193.86v106h135.4V197.72a3.86,3.86,0,0,0-3.86-3.86Zm128.28,98.88H299.57v-87.3H420.73Z"/><rect class="cls-4" x="835.86" y="293.08" width="440.08" height="5.37" rx="0.5"/><rect class="cls-4" x="876.84" y="41.52" width="140.75" height="5.35" rx="0.59"/><rect class="cls-4" x="1135.19" y="41.52" width="140.75" height="5.35" rx="0.43"/><rect class="cls-4" x="1343.65" y="41.52" width="274.38" height="5.35" rx="0.54"/><path class="cls-4" d="M1781.49,41.52h59.7a1.33,1.33,0,0,1,1.33,1.33v4a0,0,0,0,1,0,0h-61a1.33,1.33,0,0,1-1.33-1.33V42.85A1.33,1.33,0,0,1,1781.49,41.52Z"/><path class="cls-4" d="M1794.84,86.07h92.23a0,0,0,0,1,0,0v7.13a0,0,0,0,1,0,0h-96.21a0,0,0,0,1,0,0V90.05A4,4,0,0,1,1794.84,86.07Z" transform="translate(1928.59 -1749.33) rotate(90)"/><line class="cls-7" x1="930.29" y1="294.87" x2="930.29" y2="207.57"/><line class="cls-7" x1="1015.82" y1="294.87" x2="1015.82" y2="207.57"/><line class="cls-7" x1="1097.77" y1="294.87" x2="1097.77" y2="207.57"/><line class="cls-7" x1="1179.73" y1="294.87" x2="1179.73" y2="207.57"/><line class="cls-7" x1="1274.16" y1="294.87" x2="1274.16" y2="207.57"/><line class="cls-7" x1="1273.46" y1="211.13" x2="1179.03" y2="211.13"/><line class="cls-7" x1="1345.43" y1="300.22" x2="1345.43" y2="184.41"/><line class="cls-7" x1="1427.39" y1="294.87" x2="1427.39" y2="184.41"/><line class="cls-7" x1="1539.63" y1="294.87" x2="1539.63" y2="184.41"/><line class="cls-7" x1="746.78" y1="249.98" x2="746.78" y2="135.21"/><line class="cls-7" x1="639.17" y1="249.98" x2="639.17" y2="139.52"/><line class="cls-7" x1="557.92" y1="221.47" x2="557.92" y2="139.52"/><line class="cls-7" x1="502.69" y1="196.53" x2="502.69" y2="139.52"/><rect class="cls-4" x="876.84" y="135.95" width="140.75" height="7.13" rx="1.02"/><rect class="cls-4" x="1135.19" y="135.95" width="140.75" height="7.13" rx="1.13"/><rect class="cls-4" x="501.59" y="135.95" width="246.08" height="7.13"/><line class="cls-7" x1="837.65" y1="294.87" x2="837.65" y2="207.57"/><line class="cls-7" x1="935.64" y1="78.94" x2="935.64" y2="46.87"/><line class="cls-7" x1="1397.1" y1="78.94" x2="1397.1" y2="46.87"/><line class="cls-7" x1="1345.43" y1="78.94" x2="1345.43" y2="46.87"/><line class="cls-7" x1="1452.33" y1="78.94" x2="1452.33" y2="46.87"/><line class="cls-7" x1="1507.56" y1="78.94" x2="1507.56" y2="46.87"/><line class="cls-7" x1="1561.02" y1="78.94" x2="1561.02" y2="46.87"/><line class="cls-7" x1="1616.25" y1="78.94" x2="1616.25" y2="46.87"/><line class="cls-7" x1="296.01" y1="203.66" x2="420.73" y2="292.74"/><line class="cls-7" x1="420.73" y1="205.44" x2="298.36" y2="292.74"/><line class="cls-7" x1="652.35" y1="78.94" x2="652.35" y2="46.87"/><line class="cls-7" x1="598.9" y1="78.94" x2="598.9" y2="46.87"/><line class="cls-7" x1="1193.99" y1="139.52" x2="1193.99" y2="105.66"/><line class="cls-7" x1="1218.93" y1="103.88" x2="1218.93" y2="45.09"/><rect class="cls-5" x="108.03" y="343.42" width="39.34" height="20.53"/><rect class="cls-6" x="677.31" y="343.42" width="39.34" height="20.53"/><rect class="cls-12" x="309.31" y="343.42" width="39.34" height="20.53"/><rect class="cls-2" x="846.65" y="343.42" width="39.34" height="20.53"/><rect class="cls-3" x="513.07" y="343.42" width="39.34" height="20.53"/><text class="cls-15" transform="translate(252.42 190.38)">櫃檯</text><text class="cls-15" transform="translate(159.77 238.49)">主視覺牆</text><text class="cls-15" transform="translate(343.14 66.35)">光雕牆</text><text class="cls-16" transform="translate(616.15 71.04)">21</text><text class="cls-16" transform="translate(519.88 176.95)">01</text><text class="cls-16" transform="translate(587.59 191.2)">03</text><text class="cls-16" transform="translate(682.02 203.67)">02</text><text class="cls-16" transform="translate(896.08 68.91)">04</text><text class="cls-16" transform="translate(967.35 68.91)">07</text><text class="cls-16" transform="translate(871.14 261.68)">14</text><text class="cls-16" transform="translate(962.01 261.68)">15</text><text class="cls-16" transform="translate(1043.96 261.68)">18</text><text class="cls-16" transform="translate(1124.14 261.68)">17</text><text class="cls-16" transform="translate(1216.79 261.68)">16</text><text class="cls-16" transform="translate(1154.43 129.49)">06</text><text class="cls-16" transform="translate(1234.61 83.17)">08</text><text class="cls-16" transform="translate(1359.75 68.64)">05</text><text class="cls-16" transform="translate(1413.2 68.64)">09</text><text class="cls-16" transform="translate(1523.67 68.64)">10</text><text class="cls-16" transform="translate(1578.9 68.64)">11</text><text class="cls-16" transform="translate(1374.01 247.16)">13</text><text class="cls-16" transform="translate(1472 247.16)">12</text><text class="cls-16" transform="translate(1663.83 130.65)">19</text><text class="cls-16" transform="translate(1795.67 101.06)">20</text><text class="cls-16" transform="translate(1767.16 220.44)">輪播區</text><text class="cls-17" transform="translate(0 101.2)">出入口</text><text class="cls-18" transform="translate(148.14 363.18)">Ｖ<tspan class="cls-19" x="21.06" y="0">Ｒ</tspan><tspan class="cls-20" x="44.97" y="0">遊戲組</tspan></text><text class="cls-21" transform="translate(719.95 363.18)">互動組</text><text class="cls-21" transform="translate(355.37 363.18)">2D遊戲組</text><text class="cls-21" transform="translate(892.47 363.18)">影視組</text><text class="cls-21" transform="translate(557.43 363.18)">行銷組</text><path class="cls-22" d="M1740.8,296.85H118.89a9.71,9.71,0,0,1-9.88-9.53l-2.52-154.09"/><path class="cls-22" d="M210.06,4H115.58a9.72,9.72,0,0,0-9.89,9.53V54.76"/><path class="cls-22" d="M210.06,4H1832.64a9.71,9.71,0,0,1,9.88,9.53v119.7"/><path class="cls-22" d="M1740.8,296.85H1832c5.46,0,7.84-4.84,7.84-9.53l2.52-154.09"/></g></g></svg>