<svg xmlns="http://www.w3.org/2000/svg" viewBox="0 0 623.55 997.49"><defs><style>.cls-1,.cls-12,.cls-13,.cls-15,.cls-16,.cls-21,.cls-5,.cls-7{fill:#fff;}.cls-10,.cls-11,.cls-14,.cls-17,.cls-18,.cls-19,.cls-2,.cls-20,.cls-9{fill:#ff1a83;}.cls-3{fill:#00cbf4;}.cls-4{fill:#d53e8f;}.cls-10,.cls-20,.cls-4{stroke:#fff;}.cls-10,.cls-20,.cls-4,.cls-5,.cls-6,.cls-7,.cls-8{stroke-miterlimit:10;}.cls-4,.cls-6,.cls-7{stroke-width:5px;}.cls-5,.cls-6,.cls-7,.cls-8{stroke:#ff1a83;}.cls-5{stroke-width:4px;}.cls-6,.cls-8{fill:none;}.cls-8{stroke-width:8px;}.cls-16,.cls-19,.cls-21,.cls-9{writing-mode:tb;text-orientation:upright;glyph-orientation-vertical:0deg;}.cls-11,.cls-9{font-size:20.32px;}.cls-11,.cls-12,.cls-13,.cls-14,.cls-15,.cls-16,.cls-17,.cls-18,.cls-19,.cls-21,.cls-9{font-family:GenSenRoundedTW-B, GenSenRounded TW;}.cls-10{stroke-width:3px;}.cls-12{font-size:23.27px;}.cls-13{font-size:15.79px;}.cls-14{font-size:20.36px;}.cls-15,.cls-16{font-size:14.82px;}.cls-17{font-size:17.88px;}.cls-18,.cls-19{font-size:18.8px;}.cls-20{stroke-width:7px;}.cls-21{font-size:21.11px;}</style></defs><title>地圖一</title><g id="圖層_2" data-name="圖層 2"><g id="內文"><rect class="cls-1" x="254.01" y="374.48" width="224.52" height="357.12"/><rect class="cls-1" x="289.4" y="727.13" width="151.42" height="89.4"/><rect class="cls-2" x="56.7" y="583.33" width="144.16" height="255.94" rx="12"/><path class="cls-3" d="M480.49,60.31H314.36a4.83,4.83,0,0,0-4.6,2.86c-4.07,10.64-21.76,47.37-72.27,48.23,0,0-8.57,13.4,25.1,27.06,0,0,40.77,25.8,10.05,73.34,0,0-48.45,65.26-73.85,81.95L226,328.14l254.06,1-1.19-103.69s4.14-26.81,16-40.46c0,0,20.67-38.95,1.77-78.4L492,95.07a71.41,71.41,0,0,1-4.3-15.76l-2.36-15.39A4.65,4.65,0,0,0,480.49,60.31Z"/><path class="cls-3" d="M296,60.06s-3,59.18-118.76,43C177.22,103.05,207.94,64.61,296,60.06Z"/><path class="cls-3" d="M169.54,109.63s30.13,6.58,55.54,2.53c0,0,2.36,20.74,12.41,24.78,0,0,32,10.19,35.49,36.42,1.09,8.21-2.53,19.55-7.14,26.81-10.6,16.7-40.56,60.79-73.26,85.48C192.58,285.65,114,165.78,169.54,109.63Z"/><path class="cls-2" d="M57.8,61.58h89.86c4.65,0,7.43,4.43,4.85,7.75-16.2,20.89-56.5,81.5-40.92,150.34a3.81,3.81,0,0,0,.13.45c1.59,4.73,28,82.21,57.53,103.59a4.73,4.73,0,0,1,2.06,3.81V478.11c0,2.81-2.69,5.06-6,5-19.28-.42-78.77,3.47-80.29,67.23-.07,2.73-2.64,4.92-5.83,4.92H57.8c-3.22,0-5.83-2.23-5.83-5V66.57C52,63.81,54.58,61.58,57.8,61.58Z"/><line class="cls-4" x1="51.97" y1="330.67" x2="171.31" y2="330.67"/><polygon class="cls-2" points="261.12 327.64 261.12 248.22 261.12 247.72 315.47 247.72 315.47 283.63 479.72 283.63 479.72 329.29 261.12 327.64"/><path class="cls-5" d="M262.13,248.32V228.46H478.54v55.13h-163V247.83Z"/><line class="cls-6" x1="479.12" y1="235.64" x2="262.29" y2="235.64"/><path class="cls-7" d="M284.75,227.84s39-35.24,24.81-69.47c0,0-22-44.5,15.38-51.25A46.19,46.19,0,0,1,340,107a124,124,0,0,0,52.4-4.32,99.36,99.36,0,0,0,18.27-7.6c8.85-4.7,30.32-13.08,52.5,1,0,0,29.84,14.07,17.25,63.35a57.17,57.17,0,0,1-4.35,11.47c-6.57,13.1-24,48.88-22.19,57.09Z"/><path class="cls-3" d="M534.37,180.19c-4.73-17.09,2.23-98.62,3.82-116.43.17-1.86-1.55-3.45-3.73-3.45h-34a3.57,3.57,0,0,0-3.72,2.9c-2,18,8.11,37.57,8.11,37.57a77.53,77.53,0,0,1,6.65,17.82A102.31,102.31,0,0,1,507,181.23c-5,12.63-10.95,27.11-14.49,35.62a30,30,0,0,0,.32,24.34c7.87,17,26.75,17.91,26.75,17.91,23.63-3.54,28.36,6.07,28.36,6.07v22.25H512.54a2.24,2.24,0,0,0-2.39,2.06V659.2H485l0,70.06a7,7,0,0,1-6.54,6.57H418.67l-.4,59.69H313.11L313,735.83H244.87V837.66a1.76,1.76,0,0,0,1.88,1.61h78.36a1.76,1.76,0,0,0,1.88-1.61V829a1.77,1.77,0,0,1,1.89-1.61h14.84A1.76,1.76,0,0,1,345.6,829v7.43a1.77,1.77,0,0,0,1.86,1.61l36.41.46a1.78,1.78,0,0,0,1.91-1.62V829a1.76,1.76,0,0,1,1.88-1.61h10.71a1.76,1.76,0,0,1,1.88,1.61v7.66a1.77,1.77,0,0,0,1.89,1.61h72.45a1.76,1.76,0,0,1,1.88,1.61v40.78a1.76,1.76,0,0,1-1.88,1.61H57.69a1.76,1.76,0,0,0-1.88,1.61v65.07a1.76,1.76,0,0,0,1.88,1.61H591a1.76,1.76,0,0,0,1.88-1.61V287.37a4.68,4.68,0,0,0-2.28-3.91C531.49,245.3,534.37,180.19,534.37,180.19Z"/><path class="cls-2" d="M457.27,736.24V763.3a1.49,1.49,0,0,0,1.59,1.36H464a1.49,1.49,0,0,1,1.59,1.36v17.52a1.48,1.48,0,0,1-1.59,1.35h-4.5a1.49,1.49,0,0,0-1.59,1.36V826a1.49,1.49,0,0,1-1.59,1.36h-68.9a1.49,1.49,0,0,0-1.59,1.36v7.91a1.48,1.48,0,0,1-1.59,1.35h-37a1.48,1.48,0,0,1-1.59-1.35v-7.91a1.48,1.48,0,0,0-1.58-1.36H275.11a1.49,1.49,0,0,1-1.59-1.36V786.76a1.48,1.48,0,0,0-1.58-1.36h-4.51a1.49,1.49,0,0,1-1.59-1.36V766.52a1.48,1.48,0,0,1,1.59-1.35h4.51a1.48,1.48,0,0,0,1.58-1.36V735.32h39.67v60.35h105v-59.6Z"/><path class="cls-2" d="M442.42,656.3v46.55a2.47,2.47,0,0,1-2.36,2.57h-11.8A2.47,2.47,0,0,0,425.9,708v8.9a2.47,2.47,0,0,1-2.36,2.57H395.8a2.47,2.47,0,0,1-2.36-2.57v-6.35A2.47,2.47,0,0,1,395.8,708h3.54a2.47,2.47,0,0,0,2.36-2.57v-1.27l.69,0c8.33,0,15.08-7.29,15.08-16.27s-6.75-16.27-15.08-16.27l-.69,0v-5.12h-9.44V655.67H335v10.84h-7.67v5.12l-.69,0c-8.33,0-15.08,7.29-15.08,16.27s6.75,16.27,15.08,16.27l.69,0v1.27a2.47,2.47,0,0,0,2.36,2.57h4.13a2.47,2.47,0,0,1,2.36,2.57v5.71a2.47,2.47,0,0,1-2.36,2.57H304.33a2.47,2.47,0,0,1-2.36-2.57v-7a2.47,2.47,0,0,0-2.36-2.57h-9.44a2.47,2.47,0,0,1-2.36-2.57V655.67H244.73l.2,80.13,68.33.19,14.56,0,77.37.2,13.63,0,58.45.15c4.33,0,7.84-3.8,7.84-8.51l-.2-71.61Z"/><path class="cls-2" d="M474.45,366.58H255.16c-5.84,0-10.59,4.06-10.59,9.07V659H485V375.65C485,370.64,480.3,366.58,474.45,366.58ZM442.5,489.14c0,3-2.84,5.42-6.33,5.42H424.54c-3.47,0-6.3,2.39-6.33,5.36l-.46,35.69c0,3,2.81,5.48,6.33,5.48h12.09c3.49,0,6.33,2.43,6.33,5.42v73.27a5.07,5.07,0,0,1-1.86,3.83l-10.17,8.71a6.9,6.9,0,0,1-4.48,1.59H391.52c-3.5,0-6.33-2.43-6.33-5.42v-5.1c0-3-2.84-5.42-6.33-5.42H350.75c-3.49,0-6.33,2.43-6.33,5.42v5.1c0,3-2.83,5.42-6.33,5.42H303.62a6.9,6.9,0,0,1-4.48-1.59L289,623.61a5.07,5.07,0,0,1-1.86-3.83V546.51c0-3,2.84-5.42,6.33-5.42h12.09c3.52,0,6.37-2.46,6.33-5.48l-.45-35.69c0-3-2.87-5.36-6.33-5.36H293.44c-3.49,0-6.33-2.43-6.33-5.42V417.89a5.07,5.07,0,0,1,1.86-3.83l10.47-9a6.9,6.9,0,0,1,4.48-1.59H337.5c3.5,0,6.33,2.43,6.33,5.42v4.33c0,3,2.84,5.42,6.33,5.42h29.29c3.5,0,6.33-2.42,6.33-5.42v-4.33c0-3,2.83-5.42,6.33-5.42H425.7a6.86,6.86,0,0,1,4.47,1.59l10.47,9a5.07,5.07,0,0,1,1.86,3.83Z"/><rect class="cls-1" x="64.88" y="595.47" width="127.05" height="32.57"/><rect class="cls-1" x="64.88" y="631.48" width="127.05" height="32.57"/><rect class="cls-1" x="64.88" y="667.51" width="127.05" height="32.57"/><rect class="cls-1" x="64.88" y="703.52" width="127.05" height="32.57"/><rect class="cls-1" x="64.88" y="760.17" width="127.05" height="38.64"/><path class="cls-8" d="M218.85,12.67h-185A25.43,25.43,0,0,0,8.43,38.09V460.23"/><path class="cls-8" d="M411.11,12.67h183a25.43,25.43,0,0,1,25.43,25.42V953.36a25.43,25.43,0,0,1-25.43,25.42H363"/><path class="cls-8" d="M268.93,979.28H34.36A25.42,25.42,0,0,1,8.94,953.86V549.1"/><text class="cls-9" transform="translate(10.16 475.35)">菸廠路</text><rect class="cls-1" x="515.62" y="293.34" width="71.49" height="42.49" rx="5.77"/><ellipse class="cls-10" cx="419.11" cy="589.68" rx="15.91" ry="13.79"/><ellipse class="cls-10" cx="416.93" cy="608.16" rx="11.58" ry="10.03"/><ellipse class="cls-10" cx="421.48" cy="562.89" rx="8.48" ry="7.35"/><ellipse class="cls-10" cx="308.07" cy="608.13" rx="14.12" ry="13.52"/><ellipse class="cls-10" cx="306.53" cy="589.38" rx="10.28" ry="9.84"/><ellipse class="cls-10" cx="308.62" cy="562.42" rx="9.53" ry="9.13"/><ellipse class="cls-10" cx="314.15" cy="431.24" rx="16.83" ry="15.18" transform="translate(-7.22 5.35) rotate(-0.97)"/><ellipse class="cls-10" cx="312.28" cy="452.29" rx="12.24" ry="11.04" transform="translate(-7.58 5.33) rotate(-0.97)"/><ellipse class="cls-10" cx="310.25" cy="477.07" rx="10.45" ry="9.6"/><ellipse class="cls-10" cx="418.19" cy="470.8" rx="16.2" ry="15.17" transform="translate(-94.34 104.95) rotate(-12.87)"/><ellipse class="cls-10" cx="421.14" cy="451.04" rx="11.79" ry="11.04" transform="translate(-89.87 105.11) rotate(-12.87)"/><ellipse class="cls-10" cx="423.33" cy="429.98" rx="10.81" ry="10.12" transform="translate(-85.12 105.07) rotate(-12.87)"/><ellipse class="cls-10" cx="401.05" cy="779.83" rx="11.74" ry="10.65" transform="translate(-69.09 39.6) rotate(-5.2)"/><ellipse class="cls-10" cx="401.31" cy="766.02" rx="8.54" ry="7.75" transform="translate(-67.83 39.56) rotate(-5.2)"/><ellipse class="cls-10" cx="394.99" cy="749.14" rx="5.39" ry="4.89" transform="translate(-66.33 38.92) rotate(-5.2)"/><ellipse class="cls-10" cx="332.05" cy="767.78" rx="10.91" ry="10.37"/><ellipse class="cls-10" cx="330.56" cy="781.68" rx="7.94" ry="7.54"/><ellipse class="cls-10" cx="333.68" cy="747.63" rx="5.82" ry="5.53"/><path class="cls-3" d="M111.45,219.52C96.27,150.73,136.36,90.25,152.51,69.35c2.58-3.33-.2-7.77-4.85-7.77H57.8c-3.22,0-5.83,2.24-5.83,5V219.52Z"/><line class="cls-6" x1="479.12" y1="243.09" x2="263" y2="243.09"/><line class="cls-6" x1="479.12" y1="250.81" x2="316.67" y2="250.81"/><line class="cls-6" x1="479.12" y1="258.49" x2="315.22" y2="258.49"/><line class="cls-6" x1="479.12" y1="267.2" x2="316.67" y2="267.2"/><line class="cls-6" x1="479.12" y1="274.88" x2="315.22" y2="274.88"/><text class="cls-11" transform="translate(226.98 17.88)">忠孝東路四段553巷</text><text class="cls-12" transform="translate(65.26 398.57)">誠品生活</text><text class="cls-13" transform="translate(64.66 433.25)">臺北文創大樓</text><text class="cls-14" transform="translate(341.42 172.59)">生態景觀池</text><text class="cls-15" transform="translate(320.86 392.54)">東向製菸工廠</text><text class="cls-15" transform="translate(320.86 651.06)">西向製菸工廠</text><text class="cls-16" transform="translate(265.63 480.5)">北向製菸工廠</text><text class="cls-16" transform="translate(464.34 480.5)">南向製菸工廠</text><text class="cls-11" transform="translate(277.73 986.4)">光復南路</text><text class="cls-17" transform="translate(95.73 786.56)">一號倉庫</text><text class="cls-17" transform="translate(95.73 726.37)">二號倉庫</text><text class="cls-17" transform="translate(95.73 690.46)">三號倉庫</text><text class="cls-17" transform="translate(95.73 654.04)">四號倉庫</text><text class="cls-17" transform="translate(95.73 619.14)">五號倉庫</text><text class="cls-18" transform="translate(32.46 577.65)">入口4</text><text class="cls-19" transform="translate(37.01 832.35)">入口5</text><text class="cls-19" transform="translate(174.6 26.4)">入口3</text><text class="cls-18" transform="translate(280.94 48.34)">入口2</text><text class="cls-18" transform="translate(462.12 50.85)">入口1</text><text class="cls-15" transform="translate(339.76 817.45)">辦公廳舍</text><circle class="cls-2" cx="365.65" cy="521.1" r="32.04"/><circle class="cls-20" cx="365.65" cy="521.1" r="24.09"/><circle class="cls-1" cx="365.65" cy="521.1" r="10.76"/><circle class="cls-2" cx="365.65" cy="521.1" r="3.63"/><text class="cls-21" transform="translate(87.86 232.43) scale(1 1.04)">誠品行旅</text></g></g></svg>