<svg xmlns="http://www.w3.org/2000/svg" viewBox="0 0 120.61 175.65"><defs><style>.cls-1,.cls-3{fill:#fff;}.cls-1{stroke:#34dff5;stroke-width:7px;}.cls-1,.cls-2{stroke-miterlimit:10;}.cls-2{fill:#34dff5;stroke:#fff;stroke-width:3px;}.cls-4{fill:#ff0781;}</style></defs><title>指標_1</title><g id="圖層_2" data-name="圖層 2"><g id="圖層_4" data-name="圖層 4"><path class="cls-1" d="M117.1,59.09A56.81,56.81,0,1,0,12.4,90.84L59.3,169l50.18-80.19A56.56,56.56,0,0,0,117.1,59.09Z"/><path class="cls-2" d="M116,60.2A55.72,55.72,0,1,0,13.27,91.35l46,76.63,49.23-78.67A55.49,55.49,0,0,0,116,60.2Z"/><circle class="cls-3" cx="60.23" cy="58.75" r="38.43"/><path class="cls-4" d="M30.42,69.56a1.67,1.67,0,0,1,.63-2.33c.61-.39,1.36-.93,2.24-1.62V62.23a.58.58,0,0,0-.65-.65H31.8a1.49,1.49,0,0,1,0-3H35A1.34,1.34,0,0,1,36.4,60V65.4a5.06,5.06,0,0,0,2.32,2,10.83,10.83,0,0,0,3.6.7c3.28.14,6.86.11,10.76-.11.72,0,1.19.06,1.41.34s.23.77,0,1.47a2.21,2.21,0,0,1-.57,1,1.77,1.77,0,0,1-1,.32c-4,.13-7.57.13-10.6,0a13.44,13.44,0,0,1-4.22-.79,7,7,0,0,1-3-2.24Q33.95,69.15,32.91,70C31.81,70.93,31,70.78,30.42,69.56Zm3.19-13.33a15.3,15.3,0,0,0-1.75-1.32,1.52,1.52,0,0,1-.81-1,1.36,1.36,0,0,1,.51-1.16,1.42,1.42,0,0,1,1.81-.33c.54.33,1,.65,1.49,1l.75.54a.92.92,0,0,1,.19.14,1.25,1.25,0,0,1,0,2,1.92,1.92,0,0,1-1.08.65A1.42,1.42,0,0,1,33.61,56.23Zm.92-5.35a14.06,14.06,0,0,0-1.65-1.35,1.48,1.48,0,0,1-.79-1,1.36,1.36,0,0,1,.55-1.15,1.42,1.42,0,0,1,1.81-.24c.52.32,1,.65,1.43,1a10.08,10.08,0,0,1,.9.7,1.23,1.23,0,0,1,0,2A1.4,1.4,0,0,1,34.53,50.88Zm4.38,1.79a1.14,1.14,0,0,1,0-2.28H53.37a1.14,1.14,0,1,1,0,2.28Zm2.52,14a1.65,1.65,0,0,1-1.76-1.75V61.88a1.65,1.65,0,0,1,1.76-1.75h9.21a1.66,1.66,0,0,1,1.76,1.75v3.06a1.66,1.66,0,0,1-1.76,1.75Zm-.25-10.81a1.08,1.08,0,1,1,0-2.16h9.71a1.08,1.08,0,0,1,0,2.16Zm0,3.22a1.08,1.08,0,0,1,0-2.16h9.71a1.08,1.08,0,0,1,0,2.16H41.18Zm.3-9.76a1.08,1.08,0,1,1,0-2.16h9.19a1.08,1.08,0,1,1,0,2.16Zm1.81,15.14h5.33a.57.57,0,0,0,.64-.65V63a.57.57,0,0,0-.64-.65H43.29a.58.58,0,0,0-.65.65v.81A.58.58,0,0,0,43.29,64.48Z"/><path class="cls-4" d="M61.91,71.64a1.33,1.33,0,0,1-1.51-1.49V62.91c-.27.32-.56.64-.86,1a1.94,1.94,0,0,1-1.25.64c-.36,0-.68-.34-1-.91a1.67,1.67,0,0,1,.49-2.33,22.81,22.81,0,0,0,5-7.19h-4a1.28,1.28,0,0,1-1.43-1.46,1.26,1.26,0,0,1,1.43-1.43h1.49V48a1.51,1.51,0,1,1,3,0v3.14H65c1,0,1.32.56,1,1.67a23.63,23.63,0,0,1-2.35,5.46l.73.87c.12-.2.32-.5.59-.92l.3-.46a1.11,1.11,0,0,1,.76-.62,1.29,1.29,0,0,1,1,.27l.38.27V49.34A1.7,1.7,0,0,1,68,48.07a1.73,1.73,0,0,1,1.27-.49h10a1.75,1.75,0,0,1,1.27.49A1.73,1.73,0,0,1,81,49.34V58a1.73,1.73,0,0,1-.48,1.27,1.75,1.75,0,0,1-1.27.49h-3.6V62h4a1.45,1.45,0,0,1,0,2.9h-4v2.89h4.81a1.49,1.49,0,1,1,0,3H67.37a1.49,1.49,0,0,1,0-3h5.3V64.94H68.86a1.45,1.45,0,0,1,0-2.9h3.81V59.75h-4a1.07,1.07,0,0,1-1.14-1.14v-.08c-.83,1-1.43,1.78-1.81,2.22l.6.73a1.3,1.3,0,0,1,0,1.83c-.37.44-.69.65-1,.64s-.6-.26-.89-.74-.63-1-1-1.54v8.48A1.32,1.32,0,0,1,61.91,71.64Zm8.44-19.27h2.32v-2H70.83a.42.42,0,0,0-.48.48ZM71,57h1.67v-2H70.35v1.37A.57.57,0,0,0,71,57Zm4.67-4.59H78V51a.57.57,0,0,0-.65-.65H75.67Zm0,4.59h1.84a.43.43,0,0,0,.49-.48V54.94H75.67Z"/><path class="cls-4" d="M89.75,69.53a2.85,2.85,0,0,1-2-.74,2.68,2.68,0,0,1,0-3.83,2.84,2.84,0,0,1,2-.75,2.71,2.71,0,0,1,2,.75,2.67,2.67,0,0,1,0,3.83A2.86,2.86,0,0,1,89.75,69.53Zm0-7.19c-1,0-1.47-.42-1.54-1.27l-.84-8-.05-2.25a1.68,1.68,0,0,1,.44-1.29,1.71,1.71,0,0,1,1.29-.49h2a1.15,1.15,0,0,1,.85.32,1.07,1.07,0,0,1,.28.84l-.1,2.87-.81,8C91.22,61.92,90.72,62.34,89.78,62.34Z"/><path class="cls-3" d="M33.36,113.31a.9.9,0,1,1,0-1.79H44.18a.9.9,0,0,1,0,1.79H33.36Zm.8-9.65a.88.88,0,0,1,0-1.76H43.4a.88.88,0,1,1,0,1.76H34.16Zm1,4.7a.79.79,0,0,1-.88-.9.78.78,0,0,1,.88-.88h7.1a.78.78,0,0,1,.88.88.79.79,0,0,1-.88.9h-7.1Z"/><path class="cls-3" d="M49,114.19a1.11,1.11,0,0,1-.68-.22.88.88,0,0,1-.34-.56h0l0,0c-.1-.21-.11-.38,0-.49a.67.67,0,0,1,.57-.14h.55a.72.72,0,0,0,.52-.15,5.24,5.24,0,0,0,.41-2.12A1.08,1.08,0,0,0,50,110a.25.25,0,0,0-.25-.12l-.93,0s0,0,0,0a.7.7,0,0,1-.89.59.9.9,0,0,1-.58-.28.74.74,0,0,1,0-.6c.14-.52.3-1.22.48-2.09h-.3a.76.76,0,0,1,0-1.51h4.07a.76.76,0,0,1,0,1.51H49.3l-.18.88h1.59a.74.74,0,0,1,.69.37,2.69,2.69,0,0,1,.17,1.38c-.09,1.1-.18,1.91-.28,2.42a2.27,2.27,0,0,1-.39,1,1.62,1.62,0,0,1-1.07.53A5.52,5.52,0,0,1,49,114.19Zm-.79-8.86a.93.93,0,0,1-.69-.26,1,1,0,0,1-.26-.69v-2.45a.89.89,0,0,1,1-1h2.55a.91.91,0,0,1,1,1v2.45a.93.93,0,0,1-.27.69.9.9,0,0,1-.69.26Zm.9-1.39h.66a.31.31,0,0,0,.35-.35v-.87a.31.31,0,0,0-.35-.35h-.65a.31.31,0,0,0-.35.35v.88A.3.3,0,0,0,49.14,103.94Zm2.75,9.81a.81.81,0,0,1-.2-1.2,12.85,12.85,0,0,0,.91-5.46v-2.83a.89.89,0,0,1,.95-1h1.76v-2c0-.55.29-.83.87-.83a.69.69,0,0,1,.79.77v0h2.1a.69.69,0,1,1,0,1.37H57v.65h2.38a.83.83,0,0,1,.69.29,1,1,0,0,1,.17.8c-.11.63-.2,1.11-.26,1.42a.46.46,0,0,1-.27.38.82.82,0,0,1-.51,0,.61.61,0,0,1-.56-.73c0-.08,0-.2,0-.38s-.06-.38-.3-.38H56.93v.75l.7-.06a.5.5,0,0,1,.63.5.51.51,0,0,1-.51.64l-.82.08v.19a.74.74,0,0,0,0,.33.51.51,0,0,0,.31.06h1a.74.74,0,0,1,1-.47.58.58,0,0,1,.38.43,1.39,1.39,0,0,1,0,.64.93.93,0,0,1-.47.47,1.86,1.86,0,0,1-.78.13H57.07a2,2,0,0,1-1.35-.33,1.85,1.85,0,0,1-.31-1.25v-.07l-.46,0a.5.5,0,0,1-.64-.51.52.52,0,0,1,.52-.65l.58,0v-.88h-.92a.31.31,0,0,0-.35.35v2a15.92,15.92,0,0,1-.87,5.75,2.89,2.89,0,0,0,1-1.3,6.21,6.21,0,0,0,.39-1.81,1.16,1.16,0,0,1,.2-.61.66.66,0,0,1,.54-.25.62.62,0,0,1,.55.28,1,1,0,0,1,.14.63,10.72,10.72,0,0,1-.36,2.17,4.23,4.23,0,0,1-1,1.67.94.94,0,0,1-.74.26.91.91,0,0,1-.63-.44,2.85,2.85,0,0,0-.27-.3.75.75,0,0,0-.08.14l-.09.19C52.7,114,52.33,114.08,51.89,113.75Zm6.31.25a1.38,1.38,0,0,1-1-.35.92.92,0,0,1-.22-.44,4.73,4.73,0,0,1-.06-.91v-2.7a.64.64,0,0,1,.73-.73.65.65,0,0,1,.74.73v2.57c0,.11,0,.17,0,.2a.23.23,0,0,0,.19.09h.28a.35.35,0,0,0,.23-.07.56.56,0,0,0,.12-.28.22.22,0,0,0,0-.1.57.57,0,0,0,0-.12c0-.76.29-1,.79-.7a.88.88,0,0,1,.39.93,4.44,4.44,0,0,1-.17,1,1.22,1.22,0,0,1-.47.68,1.56,1.56,0,0,1-.82.2Z"/><path class="cls-3" d="M66,114.18a1.36,1.36,0,0,1-.77-.21.7.7,0,0,1-.37-.63v-2.56a7.26,7.26,0,0,1-1.39,2.66.83.83,0,0,1-1.29.12c-.48-.43-.44-1,.13-1.55a8,8,0,0,0,1.29-4.84v-1.85l-.33.17-.35.18a1,1,0,0,1-.63.12,1,1,0,0,1-.5-.38c-.37-.53-.2-1,.5-1.28a15.78,15.78,0,0,0,2.57-1.57,12.09,12.09,0,0,0,2-1.79.82.82,0,0,1,.37-.26,1.25,1.25,0,0,1,.51-.1h.57a1.19,1.19,0,0,1,.93.41A14.18,14.18,0,0,0,74,104.06a1,1,0,0,1,.67.5.85.85,0,0,1-.2.76.86.86,0,0,1-1.2.29l-.18-.09c-.25-.11-.43-.21-.54-.27v3.37a.91.91,0,0,1-1,.95H65.15c0,.13-.06.32-.11.57h7.07a.92.92,0,0,1,1,1v2.21a.74.74,0,0,1-.4.65,1.57,1.57,0,0,1-.82.22.65.65,0,0,1-.35-.1.32.32,0,0,1-.18-.28v0H66.53v0a.33.33,0,0,1-.17.28A.69.69,0,0,1,66,114.18Zm-2.15-9h8.56c-.58-.33-1.19-.7-1.82-1.12v.34c0,.16-.07.23-.23.23H66a.41.41,0,0,1-.47-.46v-.05C64.85,104.59,64.29,104.94,63.85,105.19Zm1.45,3.25h5.18a.31.31,0,0,0,.35-.35v-.22H65.34C65.33,108.06,65.32,108.25,65.3,108.44Zm.06-1.6h5.47v-.52H65.36Zm1.11-3.41h2.88c.24,0,.26-.08,0-.24a12.07,12.07,0,0,1-1.33-1.26A12.66,12.66,0,0,1,66.47,103.43Zm.41,9.06H71a.31.31,0,0,0,.35-.35v-.38a.3.3,0,0,0-.35-.35H66.53v.73A.31.31,0,0,0,66.88,112.49Z"/><path class="cls-3" d="M84,114.21a.74.74,0,0,1-.84-.82v-.77H79.44a.7.7,0,1,1,0-1.4h3.68v-.69H80.7a.93.93,0,0,1-.69-.27.9.9,0,0,1-.26-.69v-2.68a.91.91,0,0,1,.26-.69.93.93,0,0,1,.69-.27h2.42v-.65H80a.58.58,0,0,1-.65-.66A.57.57,0,0,1,80,104h3.15v-.81h-4a.32.32,0,0,0-.36.36v2.86a17.58,17.58,0,0,1-1.11,7,1,1,0,0,1-.49.51.87.87,0,0,1-.66-.19,1,1,0,0,1-.42-.57,1.07,1.07,0,0,1,.16-.72,10.7,10.7,0,0,0,.73-3,27.64,27.64,0,0,0,.14-3v-3.79a.93.93,0,0,1,.26-.69,1,1,0,0,1,.69-.26h4.24v-.24a.9.9,0,0,1,1.8,0v.24h4.46a.76.76,0,1,1,0,1.52H84.78V104h3.56a.57.57,0,0,1,.65.65.58.58,0,0,1-.65.66H84.78v.65h2.59a.9.9,0,0,1,.69.27.92.92,0,0,1,.27.69v2.68a.92.92,0,0,1-1,1H84.78v.69h4a.7.7,0,0,1,0,1.4h-4v.77A.73.73,0,0,1,84,114.21Zm-2.7-6.49h1.86V107H81.61a.3.3,0,0,0-.35.35Zm.31,1.72h1.55v-.72H81.26v.41A.27.27,0,0,0,81.57,109.44Zm3.21-1.72h2v-.41a.27.27,0,0,0-.31-.3H84.78Zm0,1.72h1.6a.31.31,0,0,0,.35-.35v-.37h-2Z"/></g></g></svg>