<svg xmlns="http://www.w3.org/2000/svg" viewBox="0 0 639.18 138.8"><defs><style>.cls-1{fill:none;stroke:#ff1a83;stroke-miterlimit:10;stroke-width:2px;}</style></defs><title>514五(雜訊)</title><g id="圖層_2" data-name="圖層 2"><g id="內文"><path class="cls-1" d="M33.24,49.24c0,.72-.14,2.16-.43,4.61,6.48-4.76,14-6.92,23.33-6.92,12.81,0,23.33,4,31,11.81,7.2,7.35,10.8,16.71,10.8,28.8,0,27.65-18.15,44.07-48.67,44.07-18.15,0-32.4-6.2-40.76-17.72-3.31-4.46-5-8.64-7.19-16.12L30.22,93.3c2.45,9.51,8.49,14,18.86,14,12.1,0,20.16-7.63,20.16-19.15s-7.77-19-19.87-19c-9.07,0-15,3.6-18.14,10.66L4.44,77.17c.58-4.32,1-7.77,1.44-11.8L9.77,20.44c.29-3,.43-6.48.58-12,6,.29,7.49.29,14.4.29H67.8c12.67,0,18-.29,23.76-1V33a233.11,233.11,0,0,0-23.47-1H34.68Z"/><path class="cls-1" d="M141.53,99.49v29.09H112.44V99.49Z"/><path class="cls-1" d="M169.32,7.77c5.19.86,8.93,1,17.28,1h18.29c10.22,0,12.09,0,17.85-.58a223.68,223.68,0,0,0-1,23.18v75.46a165.53,165.53,0,0,0,1.15,21.74H191.5a165.89,165.89,0,0,0,1.15-21.74V33.4h-5.76a152.36,152.36,0,0,0-17.57,1Z"/><path class="cls-1" d="M262.92,78.33c6.48-7.2,6.48-7.2,13.83-15.84L308,25.91A144.32,144.32,0,0,0,321.38,8.78H350.9a208.54,208.54,0,0,0-1.15,23.9v46.8h4.18a101.54,101.54,0,0,0,14.25-1.15v26.2a115.33,115.33,0,0,0-14.11-.86h-4.32v7.2a101.35,101.35,0,0,0,1.15,17.71H321.24a125.73,125.73,0,0,0,1.15-18v-7H281.64c-9.36,0-13.39.14-18.72.57Zm59.62-15.27c0-6.48.28-14.4.86-20.73-2.88,4-5,6.91-8.93,11.8l-21,25.64h29.09Z"/><path class="cls-1" d="M413.69,137.8c-8.5-15.12-11.24-20.31-13.68-26.5-4.75-12-7.49-27.21-7.49-41.33A120.7,120.7,0,0,1,398,33.83c3.31-10.37,6.91-18,16-32.83h26.5c-11.09,17.13-15.12,25.34-18.58,38.16A120.2,120.2,0,0,0,418,69.4c0,14,2.73,29.09,7.34,40.89,3.17,7.78,6.48,13.83,15.12,27.51Z"/><path class="cls-1" d="M477.19,110.44a37.64,37.64,0,0,0,1.73-4.47c3.17-8.35,6.91-21.16,10.22-34.41H480.5c-5.18,0-11.08.29-15.69.72V50.53c4.17.44,10.37.72,16.41.72h12.39c2.16-11.23,2.73-14.54,3.89-23h-20a196.93,196.93,0,0,0-20.45.87v-22c5.47.72,10.37.86,20,.86h76.89c9.51,0,14.55-.14,20.45-.86v22a165.79,165.79,0,0,0-20.3-.87h-33.7c-1.29,8.79-2.16,14.26-3.89,23h25.64c7.92,0,12.52-.14,18-.57-.43,5.18-.72,10.22-.72,16.27v43.49h3.32c9.36,0,13.24-.15,18.86-.87v22.61a177.43,177.43,0,0,0-20.59-1H470.86a194.89,194.89,0,0,0-20.88,1V109.57c5.9.72,9.64.87,20,.87Zm59.76,0V71.56H512.18a393.32,393.32,0,0,1-10.65,38.88Z"/><path class="cls-1" d="M590.23,137.8c11.81-18.43,15.55-26.35,18.87-38.88a125.89,125.89,0,0,0,3.74-30.82,113.93,113.93,0,0,0-8.06-41.18C601.61,19.14,598.3,13.24,590.23,1h26.64c9.79,16.27,13.68,24.62,17,36.58a113.58,113.58,0,0,1,4.32,31.82c0,14.69-2.73,29.95-7.48,41.9-2.45,6.34-5.19,11.52-13.68,26.5Z"/></g></g></svg>