<svg xmlns="http://www.w3.org/2000/svg" viewBox="0 0 428.44 103.47"><defs><style>.cls-1{fill:#00cbf4;}</style></defs><title>策展資訊(雜訊)</title><g id="圖層_2" data-name="圖層 2"><g id="內文"><path class="cls-1" d="M15.23,44.93c-4.54,0-8.53.21-12.1.54V30.89a65.94,65.94,0,0,0,7,.54A63.3,63.3,0,0,0,0,19.87C8.32,14,13.72,7.34,15.66.11l16.2,2.27c-.11.1-.86,1.72-2.48,5H40.93A102.64,102.64,0,0,0,51.41,6.8v7.13c4.1-4.64,6.05-8.31,7.34-13.71L75.06,2.38C74.74,3,74,4.75,72.79,7.45H89.53c4.76,0,8.75-.21,12.21-.54V21.82a79.6,79.6,0,0,0-11.34-.54H85.1c1.41,2.37,2,3.34,3.35,6L72.36,29.59a61.9,61.9,0,0,0-3.89-8.31H64.8a45.86,45.86,0,0,1-5,5.72,28.62,28.62,0,0,0-.32,4.54H89a89.68,89.68,0,0,0,12.32-.65V45.47A90.19,90.19,0,0,0,89,44.93H59.51v3.56H83.92c4.43,0,7.67-.11,10-.32a66.23,66.23,0,0,0-.43,8.64V67.07c0,3.67-1,6.26-2.92,7.56C89,75.93,86,76.36,80.25,76.36c-1.41,0-2.6,0-4.43-.11,7.88,4.32,16.2,7.34,26.89,9.83a87.58,87.58,0,0,0-9.4,15.12C79.17,96.55,68,89.75,59.08,80.57c.21,3.24.32,4.75.32,6.37v4.75a47.76,47.76,0,0,0,.87,10.91H42.34a57.08,57.08,0,0,0,1-11V87.16c0-1.62,0-2.49.21-5.83a65.3,65.3,0,0,1-16.3,12.74,84,84,0,0,1-16,7c-3.56-7-5.18-9.29-9.93-14.58a102.42,102.42,0,0,0,21-7.34A64.24,64.24,0,0,0,43.09,63.4V61.13H26v7.45a72.41,72.41,0,0,0,.32,7.56H10a78,78,0,0,0,.54-9.72V56.27c0-2.92-.21-5.4-.43-8.1,2.27.21,4.86.32,8.64.32h24.3V44.93Zm5.61-23.76A55.39,55.39,0,0,1,10.37,31.43c2.27.11,3.24.11,4.86.11H43a28.63,28.63,0,0,0-.32-4.22l-15,2.6a67.91,67.91,0,0,0-3.46-8.75Zm19.23,0c1.19,2.16,1.94,3.56,2.91,5.4h9.18a62.4,62.4,0,0,0-5.61-5.4H40.07ZM59.51,63.4A75.64,75.64,0,0,0,71.6,73.66a42.47,42.47,0,0,0-1.83-7.56c1.62.21,4.32.43,5.18.43,2.6,0,3.24-.32,3.24-1.62V61.13H59.51Z"/><path class="cls-1" d="M203.91,74c-1.19,1.08-1.19,1.08-5.94,5.62-1.95,1.94-2.81,2.7-3.89,3.67a77,77,0,0,0,17.39,4,70.33,70.33,0,0,0-8,15.87c-14.47-4-22.89-8.1-31.53-15.33v8.1c-10.48,2-14,2.7-29.27,4.86-8.43,1.29-10.59,1.62-13.5,2.26l-1.84-15.12a74.34,74.34,0,0,1-6.8,15.56,64.53,64.53,0,0,0-13.61-14A55.31,55.31,0,0,0,114.16,70c1.94-10,2.8-25.71,2.8-49.47,0-10.26-.1-12.53-.75-17.39a141.89,141.89,0,0,0,15.33.65h61.13a119.51,119.51,0,0,0,13.61-.54,98.51,98.51,0,0,0-.43,10.91v9.29a95.72,95.72,0,0,0,.43,11c-3.13-.21-7.88-.32-13-.32h-3.56v4.53h3.56c6.91,0,8.32,0,10.91-.32v13.5c-3.46-.22-7.24-.32-11.34-.32h-3.13v4.86h6.48A110.86,110.86,0,0,0,209,55.94V70.09c-3.56-.32-7.23-.43-12.31-.43h-3.35Zm-72.8-4.32a99.63,99.63,0,0,1-3.35,16.85c1,.11,2.6.11,3.46.11,1.19,0,4.32-.11,7.34-.33V69.66Zm14.47-35.53H133.06c-.11,10.8-.33,14.9-.76,22.25h13.28V51.52H144c-4,0-6.15.1-8.74.32V38.34c2.48.22,5,.32,8.85.32h1.51ZM190,22V17.28H133.06V22ZM154.66,69.66v15c5.07-.54,8.2-1,12.31-1.62a44,44,0,0,1-8.43-13.39Zm19.33-31V34.13H161.35v4.53Zm0,17.72V51.52H161.35v4.86Zm1.19,13.28a22.7,22.7,0,0,0,5.94,6.48,32.54,32.54,0,0,0,6.37-6.48Z"/><path class="cls-1" d="M263.2,19.22a58.2,58.2,0,0,1-11.78,9.51,48.44,48.44,0,0,0-9.93-10C249.7,13.72,257,5.94,259.2,0l16.63,2.05c-.75,1.3-1,1.51-1.73,2.7a12.53,12.53,0,0,1-1.29,2.16h28.4A67.45,67.45,0,0,0,309,6.59l8.64,6.59c-.76,1.08-.76,1.08-4.21,6.69A81.37,81.37,0,0,1,306,29.81a99.63,99.63,0,0,0-14-5.51,32.76,32.76,0,0,0,5.5-5.08H286.31c3.13,9.29,14.47,14.26,32.72,14.48A65.74,65.74,0,0,0,313.63,48a64.21,64.21,0,0,1-7.34-1.08V73.66a89.66,89.66,0,0,0,.43,11.77c-2.7-.11-5.62-.22-10.8-.22h-4.21c7.56,3.14,14.9,4.54,27.54,5.19A62.68,62.68,0,0,0,310,103.25c-16.31-2.81-24.19-5.62-37.26-13.18l9-4.86H252.72l9.61,4.86c-12.63,7.67-19.33,10.16-36.18,13.18A60,60,0,0,0,217,91.05c12.64-1.19,20-2.81,26.79-5.84h-3.89c-5.4,0-8,.11-10.91.22.22-2.48.43-5.72.43-10.58V52.27c0-4.21-.11-7.67-.32-9.61-4.65,2.05-4.65,2.05-6.37,2.92l-5.62-15c6.7-1.29,17.39-5.29,25.6-9.5l4.21,11.88c13.61-2.48,20.73-6.7,22.89-13.72ZM236,22.68A82.28,82.28,0,0,0,218.81,12.1L228.53.86a114.34,114.34,0,0,1,17.71,9.62Zm11.34,19a40.37,40.37,0,0,0-3.78-5.83c-4.54,2.26-6.7,3.34-12,5.72,4,.11,4.32.11,8.1.11Zm-2,11.77h44.82V50.65H245.27Zm0,10.8h44.82V61.35H245.27Zm0,10.8h44.82V72.15H245.27Zm45.47-33.37a32.93,32.93,0,0,1-12.42-10.8c-3.24,5-7,7.88-13.94,10.8Z"/><path class="cls-1" d="M375.3,19.66a78.19,78.19,0,0,0-9.94.43V32.72c-2.37-.32-3.13-.32-8.53-.32H334.26a65,65,0,0,0-8.75.43V18.14a48.12,48.12,0,0,0,8.75.54h22.36a63.63,63.63,0,0,0,8.64-.32V3.67a116.9,116.9,0,0,0,13.17.65h26.25a91.25,91.25,0,0,0,11.45-.54c-.54,5.51-1,18.36-1,28.19,0,14,.54,31,1.19,37.37A48.27,48.27,0,0,0,418.61,81c1.08-4.64,1.3-6.48,1.73-13.5a37.52,37.52,0,0,0,8.1,7.89c-1.08,9.82-2.38,15.76-4.32,19.87-1.84,3.89-4.43,5.94-7.56,5.94-2.92,0-5.19-1.19-7.67-4.11-4.75-5.4-7.34-14.68-8.75-31-.75-9.29-.86-17.39-.86-46.44h-8V32.51c0,3-.1,5.61-.21,10.8A47.66,47.66,0,0,0,396.9,43V58.86a44.84,44.84,0,0,0-7.24-.43c-2.26,19.44-7.45,33.26-17,44.93a78.42,78.42,0,0,0-9.72-11v2a62.55,62.55,0,0,0,.21,6.27h-14V97.85H342.9v4.64H328.1c.33-3.34.54-7.23.54-10.58V74a58.8,58.8,0,0,0-.43-7.88,68.66,68.66,0,0,0,7.67.21h21.06A40.7,40.7,0,0,0,363.2,66a58.89,58.89,0,0,0-.21,7.13v15l.43-.65C368.5,81,372,71.28,373.79,58.43h-.87a51.25,51.25,0,0,0-8.1.54V42.77a40.88,40.88,0,0,0,8.1.54h2.16c.22-4.65.22-7,.22-11.23ZM328.86,2.92a75.27,75.27,0,0,0,9.61.43h14.8a75.27,75.27,0,0,0,9.61-.43V15.66c-2.7-.22-5.18-.32-9.61-.32h-14.8c-4.43,0-6.48.1-9.61.32ZM329,35.53c1.83.11,3.13.22,6.37.22h20.84a43,43,0,0,0,6.05-.22V47.74a43.76,43.76,0,0,0-6.05-.22H335.34a48.21,48.21,0,0,0-6.37.22Zm0,15.34a53.35,53.35,0,0,0,6.37.21h20.74a46.72,46.72,0,0,0,6.15-.21v12.2c-1.62-.11-3-.21-6.37-.21H335.12a51.28,51.28,0,0,0-6.15.21Zm13.61,34.34h6.69V78h-6.69Z"/></g></g></svg>