<svg xmlns="http://www.w3.org/2000/svg" viewBox="0 0 1781.05 890.32"><defs><style>.cls-1{fill:#40e8f6;}</style></defs><g id="圖層_2" data-name="圖層 2"><g id="裝飾"><path class="cls-1" d="M.14,696.48c33.73-14.08,321-41.46,388.64-17.57C445,698.75,506.35,767.32,586.69,890.32c-8.93-63.4,36.38-123,99.93-150.74s141.65-27.45,214.26-12.05,141.18,44.82,209,74c-30-36.29-22.71-86.83,6.62-119.61s76.08-50.54,123.44-61c86.08-19,179.93-17.18,268.64,5.2C1452,597.37,1391.87,565.5,1362.63,515c-32.48-56.11-16.9-124.28,26.9-169s110.38-59.87,179.43-68.25,141.41-11.42,212.09-5.87a2135.85,2135.85,0,0,1-275.14-46.07c-41.46-9.76-85.1-22.08-114.52-50.1-55-52.36-35.88-135.66,8.84-171.83-106.37,45.84-183,94.75-304,105.1S837.9,86.23,759,0c25,45.48-7.16,98.93-56.35,120.05s-109.39,17.48-165.94,9.25C438.68,115,395.88,73.56,316,13.53c8.65,16.08,23.35,45.43,30.09,57.06C399.8,163.22,313,299.13,162.58,224.06q-14.73-7.34-29-15.34c60.52,49.18,102.15,115.42,115.75,184.19,5.19,26.22,5,56.16-16.78,73.17C216,479,191.21,481,168,480.29A386.47,386.47,0,0,1,15.84,443.54c45.93,20.07,85.3,52.49,110.75,91.18,8.74,13.28,16,28.11,14.33,42.67-1.6,13.64-10.86,25.14-20.33,35.69C87.51,649.93-4,699.87.14,696.48"/></g></g></svg>