<svg xmlns="http://www.w3.org/2000/svg" viewBox="0 0 603.64 165.83"><defs><style>.cls-1{fill:#0689ea;}</style></defs><g id="圖層_2" data-name="圖層 2"><g id="內文"><path class="cls-1" d="M28.92,101.4a119.9,119.9,0,0,0-13.11-.22L17,80.87c1.66.24,2.22.27,3.74.5a64.42,64.42,0,0,0-8.07-17c10.71-1.74,16.25-3.23,24-7.1a176.43,176.43,0,0,0-19.41-9.39,133.64,133.64,0,0,0,10.5-14.59L24,33.11a64.28,64.28,0,0,0-8.52.06l1.19-20a65.86,65.86,0,0,0,11.09,1.36l10,.59A78.17,78.17,0,0,0,41.94,4l22,3.53c-1.1,2-2.69,5.29-4.29,8.82l5.14.3A56.12,56.12,0,0,0,75,16.58l5.92,6.21.52-8.9a82.12,82.12,0,0,0,11.66,1.25L124.8,17a61.79,61.79,0,0,0,10.33,0l8.35,9.85c-1.12,2.45-1.12,2.45-3.66,7.6A87.11,87.11,0,0,1,123.64,58c7,4.46,12.72,6.75,22.48,9.42a81.33,81.33,0,0,0-9.73,20.51c-12.26-5.19-20.09-9.7-28.48-16.62-6.53,4.22-10.85,6.48-21.16,10.76A67.88,67.88,0,0,0,75.92,64.52l-7.81,9.31,14.75.88a36.32,36.32,0,0,0-.79,3.86c-.47,3.32-.75,5.54-.95,6.64l32,1.89c8.07.48,12.67.61,17.42.48-.41,2.21-.41,2.21-3.26,22.14-2.15,15.09-5.59,23.69-10.53,27-4.07,2.7-9.7,3.48-21.25,2.8-4-.24-6.68-.4-12.5-1-1.17-8.59-2.57-13.28-6-20.46,7.74,1.29,13.56,2,16.9,2.25,4.87.29,7,0,8.17-1.33,1.65-1.86,2.7-5.43,3.7-13l-30.6-1.81c-5.56,11.26-13.55,19-24.78,24.64-8.91,4.36-18.69,6.85-32.74,8.26a68.92,68.92,0,0,0-8.28-20.46c22.37-.63,34.19-4.54,42.56-13.82ZM60,84c.26-2.07.48-3.32.58-5.13a35.49,35.49,0,0,0-.09-5.45l1,.06c-2.4-1.82-4.14-3.18-6.69-4.86-9.33,6.57-17.36,10.14-29.55,13.33l5,.3ZM49.62,34.63c-1.23,2-2,3.23-4.61,7.12,4,1.63,5.45,2.28,8.17,3.56a41.27,41.27,0,0,0,6.74-10.07Zm27.19,29a84.47,84.47,0,0,0,16.88-6.82c-3.66-4.27-4.3-5.28-11-15.59l15.34-6.77L92,34.06A77.42,77.42,0,0,0,80.66,34C77.5,42.42,74.68,47.7,70,53.7c2.7,1.56,4.59,2.65,10.12,5.91Zm23.64-29a55.18,55.18,0,0,0,8.67,11.54,44.78,44.78,0,0,0,8-10.56Z" transform="translate(-9.32 -4.02)"/><path class="cls-1" d="M256.3,45.72a182,182,0,0,0,19.52.46,112.28,112.28,0,0,0-1.56,14.56c-2.22,30.45-5.3,56.65-7.93,68.09-1.68,7-5.34,12.39-9.94,14.63S245.17,146.57,236,146c-5-.29-8.9-.66-17.76-1.88-.53-9.95-1.56-16.15-4.18-23.85,8.56,1.77,13.53,2.62,18.54,2.91,7.38.44,10.08-.38,11.52-3.5,2.55-5.44,5.1-24.83,6.88-52.65l-32-1.89c-4.38,24.45-10.87,39.84-22.29,53.41-8.25,9.71-19.49,18-35.29,25.56-4.61-9.49-8.32-15.15-14.76-21.95,17.7-6.64,29.36-14.88,37.15-26.29,6.1-8.72,9.41-17.46,11.95-32.11l-21.42-1.26a134,134,0,0,0-17.45-.05L158.27,39a141.91,141.91,0,0,0,18,2l22,1.3c.24-4,.31-5.28.48-8.07.48-8.21.47-12.81,0-17.17L225,18.6C224,22.73,224,22.73,222.49,39c-.1,1.67-.12,2.08-.42,4.72Z" transform="translate(-9.32 -4.02)"/><path class="cls-1" d="M289.65,71.85A69.48,69.48,0,0,0,301,73.22l14.05.83a81.08,81.08,0,0,0,10.75.07c-.81,4.28-1,7.48-1.49,15.69l-1.82,30.89a16.62,16.62,0,0,0,8.83,8.9c5.3,2.4,12.22,3.51,30,4.56,25.18,1.49,43,1.85,57,1.28-3.72,8.71-4.94,12.83-6.42,21.26-12.68-.33-20.9-.68-29.53-1.19-36.31-2.14-44.91-3.07-53-6.06-7.11-2.51-12.2-6.16-17.69-12.63a157.26,157.26,0,0,1-20.85,15.1l-7.44-23.06c4.26-1.14,11.32-4.91,18.58-9.65l1.53-25.88L297.34,93a53.62,53.62,0,0,0-8.94.17ZM307.11,22.2C318.06,33,322.89,38.63,330.88,49.85L313.5,65.16A170.3,170.3,0,0,0,290.38,36Zm50.55,14a81.76,81.76,0,0,0,7.44-12.54l22.8,4a110.07,110.07,0,0,1-7,9.92l21.85,1.29a67.83,67.83,0,0,0,10.19,0c-.47,3.18-.8,6.37-1,10l-1.27,21.43c-.3,5.15-.37,8.63-.26,11.43-4-.52-5.54-.61-8.74-.79l-47.73-2.82-.33,5.7,50.5,3a83.47,83.47,0,0,0,9.49.15c-.45,2.9-.77,6-1,10.13l-1.44,24.35a97.71,97.71,0,0,0-.16,9.9,93.4,93.4,0,0,0-9.3-1l-62.33-3.68a91.69,91.69,0,0,0-9.49-.14c.45-2.91.79-6.24,1-9.86l4.28-72.35c.21-3.61.11-6.55,0-10a83.54,83.54,0,0,0,10.68,1.19Zm-5.58,73.11,38.82,2.29.46-7.79-38.82-2.29Zm2.85-48.14,35.34,2.09.42-7.23L355.35,54Z" transform="translate(-9.32 -4.02)"/><path class="cls-1" d="M505.5,74.27A105.34,105.34,0,0,0,514,95.57a100.69,100.69,0,0,0,19.66-18.52l16.88,14.4-8.69,7.72a183.7,183.7,0,0,1-17,12.68c9.25,11.3,17.5,18.21,31.94,26.6a84.94,84.94,0,0,0-14,20.26c-10-7.44-16.25-13.25-22.64-20.89-9-10.86-12.69-16.8-18-28.71-.25,6.55-.35,10.59-.53,13.66l-1.51,25.6c-.4,6.81-2.76,11.28-6.92,13.13-3.72,1.59-7.23,1.81-16.83,1.24-5.84-.35-8.89-.67-15.55-1.34a59.34,59.34,0,0,0-4.08-20.76,144.13,144.13,0,0,0,17.86,2.45c3.48.2,4.5-.43,4.65-3.08l1.09-18.36C463,133.47,462.18,134,445.57,143.33a95.82,95.82,0,0,0-9.27,5.59l-9-22.17c11.79-3.35,30.38-13.28,46.85-25l6.31,18.53L483.23,73l-36.31-2.14a136.74,136.74,0,0,0-16.33-.13l1.24-21a142.32,142.32,0,0,0,17.62,1.88l34.93,2.06.29-5A107.28,107.28,0,0,0,484.76,33l22.95,1.36a120.09,120.09,0,0,0-1.77,15.81l-.28,4.73L524.45,56a93.79,93.79,0,0,0-12.28-11.9l16.91-9.75a119.26,119.26,0,0,1,16.27,15.21l-12.14,7,7.52.44a146.2,146.2,0,0,0,17.71.21l-1.24,21a142.32,142.32,0,0,0-17.62-1.88Zm-49.42-2.5a123.77,123.77,0,0,1,17.51,24.91l-19.25,11.56C449,97.18,444.53,89.93,438,81.73Z" transform="translate(-9.32 -4.02)"/><path class="cls-1" d="M580.85,119.77C593.65,130,602.19,139,613,152.94l-18.73,16.9c-9.65-14-17.5-23-30.88-35.05Z" transform="translate(-9.32 -4.02)"/></g></g></svg>