<svg xmlns="http://www.w3.org/2000/svg" viewBox="0 0 157.39 38.21"><defs><style>.cls-1{fill:#ff1a83;}</style></defs><g id="圖層_2" data-name="圖層 2"><g id="內文"><path class="cls-1" d="M7,20.73a64.59,64.59,0,0,0,.55-6.6,41.11,41.11,0,0,1-3.2,3.09,20,20,0,0,0-3.6-5.28A22.48,22.48,0,0,0,7.92,3.85,13.24,13.24,0,0,0,9,1.09l6.56.71c-.36.64-.36.64-.88,1.68-.16.4-.32.64-.48,1l18.08,0a39.48,39.48,0,0,0,5-.25v5.92a42.09,42.09,0,0,0-5-.23L11,9.89c-.36.52-.8,1.12-1.28,1.76h1l19.76,0c2,0,3.12,0,4.08-.12a60.52,60.52,0,0,0-.27,6.32c0,.72,0,1.36-.12,2.88h.4a25.38,25.38,0,0,0,3.92-.2v5.76a36.56,36.56,0,0,0-4-.16h-.6c-.12,1.32-.24,2.6-.39,3.88H34a23.47,23.47,0,0,0,3.55-.16v5.84a31.72,31.72,0,0,0-3.88-.16H32.36c-.95,2.93-2.39,3.69-7.07,3.69-.36,0-.8,0-1.64-.07a15,15,0,0,0-.45-3.6H10.49L10.17,37l-6.6-.48a74.69,74.69,0,0,0,2.62-10.4H5.75a37.61,37.61,0,0,0-4.11.17V20.54a33.55,33.55,0,0,0,4.8.19Zm12.73,9.7A42.53,42.53,0,0,0,15,28l2-2.16H12.27C11.8,29,11.8,29,11.52,30.44ZM20.86,21A36.17,36.17,0,0,0,16,18.4l1.68-1.8H13.3c-.16,2.12-.24,3-.39,4.36Zm-1,4.84a39.09,39.09,0,0,1,4.76,2.56l-1.71,2.08H27.2c.2-1.48.23-1.84.47-4.64Zm8.11-4.85c0-.72.08-1.6.16-4.36H21.54a38,38,0,0,1,4,2.16L23.66,21Z" transform="translate(-0.78 -1.09)"/><path class="cls-1" d="M78.26,22.83a67.07,67.07,0,0,0-6.87-.31l-22.68,0a69.11,69.11,0,0,0-6.92.33V15.93a59.84,59.84,0,0,0,6.92.31l22.68,0a51.63,51.63,0,0,0,6.87-.32Z" transform="translate(-0.78 -1.09)"/><path class="cls-1" d="M101.86,14.52a4.56,4.56,0,0,0-.6.76,62.58,62.58,0,0,1-6,7A36.34,36.34,0,0,1,84.44,30a19.39,19.39,0,0,0-3.81-5,30.46,30.46,0,0,0,7.24-3.89A41.58,41.58,0,0,0,81.42,16l3.79-4.36,2,1.39a10.9,10.9,0,0,0,1.55-2.64H84.89a26.05,26.05,0,0,0-3.4.16V4.67a29.92,29.92,0,0,0,4.2.2h4.2V4.3a16.83,16.83,0,0,0-.2-2.8h6.48A16.7,16.7,0,0,0,96,4.25v.6h2.24a34.09,34.09,0,0,0,4.6-.21v5.84A36.94,36.94,0,0,0,99,10.33H95.21a32.77,32.77,0,0,1-3.95,5.81l1.2,1a37.79,37.79,0,0,0,3.67-4.41L97,11.21l5.13,3ZM104,23.36c-.84,1-.84,1-2.56,3-.72.84-1.47,1.64-2.63,2.81a24.11,24.11,0,0,0,6.08,4.31,23.71,23.71,0,0,0-3.75,5.2,37.72,37.72,0,0,1-6.65-5.63A48,48,0,0,1,85,39.3a18.8,18.8,0,0,0-4.12-5.07A40.07,40.07,0,0,0,99.5,19.49L104,22.72l0-14a36.16,36.16,0,0,0-.17-4h6.08a31.63,31.63,0,0,0-.15,3.92l0,16.68a29.15,29.15,0,0,0,.17,4h-6.08a37.23,37.23,0,0,0,.15-4ZM117.92,1.74a27,27,0,0,0-.24,4.8l0,26.56c0,4.52-1.43,5.72-7,5.73-.84,0-1.64,0-4-.16a15.45,15.45,0,0,0-1.57-5.87,44.47,44.47,0,0,0,4.76.35c1.48,0,1.76-.24,1.76-1.44l0-25a38.92,38.92,0,0,0-.2-5Z" transform="translate(-0.78 -1.09)"/><path class="cls-1" d="M144.56,28.74a38.33,38.33,0,0,0-4.22-10.07c-.24.24-.32.36-.64.68a25.6,25.6,0,0,0-1.92-2l0,15.32c0,1.32,0,2.52.13,3.76h-5.8V34.16h-3.71v3.56h-6a44.38,44.38,0,0,0,.23-5.48l0-21.27a35.8,35.8,0,0,0-.16-4.36,26.54,26.54,0,0,0,3.44.11h.88a28.78,28.78,0,0,0,1.67-5.6l6.36.75c-1.12,2.8-1.12,2.8-2,4.84h1.8c1.36,0,2.44,0,3.36-.12,0,.36,0,.36-.12,1.24v4.35A31.55,31.55,0,0,0,141.92,4a14.15,14.15,0,0,0,.68-2.8l6.32.91a12.45,12.45,0,0,0-.72,2c-.32,1.08-.44,1.4-.76,2.28h7.36a22.47,22.47,0,0,0,3.36-.16A20.42,20.42,0,0,0,158,8.85c0,1.56,0,2.52-.27,12.56a79.22,79.22,0,0,1-1,11.6c-.64,3-1.4,4.16-3,4.88a16.76,16.76,0,0,1-5.84.85c-.8,0-1.64,0-3,0a20.17,20.17,0,0,0-1.57-6.24,36.78,36.78,0,0,0,4.64.36c1.88,0,2.52-.33,2.88-1.49.71-2.16,1-7.6,1-19h-7a28.65,28.65,0,0,1-4.23,6.13l5.08-2.21a63.62,63.62,0,0,1,4.73,10ZM128.34,17.57h3.8V12.28h-3.8Zm0,11.15h3.8V22.88h-3.8Z" transform="translate(-0.78 -1.09)"/></g></g></svg>