<svg xmlns="http://www.w3.org/2000/svg" xmlns:xlink="http://www.w3.org/1999/xlink" viewBox="0 0 727.09 511.54"><defs><style>.cls-1{fill:url(#未命名漸層_135);}.cls-2{fill:url(#未命名漸層_135-2);}.cls-3{fill:url(#未命名漸層_135-3);}.cls-4{fill:url(#未命名漸層_135-4);}.cls-5{fill:url(#未命名漸層_135-5);}.cls-6{fill:url(#未命名漸層_141);}</style><linearGradient id="未命名漸層_135" y1="109.59" x2="727.09" y2="109.59" gradientUnits="userSpaceOnUse"><stop offset="0" stop-color="#fff" stop-opacity="0"/><stop offset="0.12" stop-color="#fff" stop-opacity="0.22"/><stop offset="0.24" stop-color="#fff" stop-opacity="0.43"/><stop offset="0.37" stop-color="#fff" stop-opacity="0.6"/><stop offset="0.5" stop-color="#fff" stop-opacity="0.75"/><stop offset="0.62" stop-color="#fff" stop-opacity="0.86"/><stop offset="0.75" stop-color="#fff" stop-opacity="0.94"/><stop offset="0.88" stop-color="#fff" stop-opacity="0.98"/><stop offset="1" stop-color="#fff"/></linearGradient><linearGradient id="未命名漸層_135-2" x1="1.52" y1="187.25" x2="530.82" y2="187.25" xlink:href="#未命名漸層_135"/><linearGradient id="未命名漸層_135-3" x1="3.25" y1="197.16" x2="246.5" y2="197.16" xlink:href="#未命名漸層_135"/><linearGradient id="未命名漸層_135-4" x1="3.25" y1="220.87" x2="324.97" y2="220.87" xlink:href="#未命名漸層_135"/><linearGradient id="未命名漸層_135-5" x1="1.44" y1="308.67" x2="443.66" y2="308.67" xlink:href="#未命名漸層_135"/><linearGradient id="未命名漸層_141" x1="506.18" y1="441.18" x2="1.44" y2="441.18" gradientUnits="userSpaceOnUse"><stop offset="0" stop-color="#fff"/><stop offset="0.12" stop-color="#fff" stop-opacity="0.91"/><stop offset="0.36" stop-color="#fff" stop-opacity="0.68"/><stop offset="0.71" stop-color="#fff" stop-opacity="0.32"/><stop offset="1" stop-color="#fff" stop-opacity="0"/></linearGradient></defs><g id="圖層_2" data-name="圖層 2"><g id="裝飾"><polygon class="cls-1" points="0 0 727.09 215.28 225.53 93.75 673.02 214.29 409.16 176.8 616.14 219.18 1.52 142.58 0 0"/><polygon class="cls-2" points="1.52 170.28 530.82 225.7 1.59 148.8 1.52 170.28"/><polygon class="cls-3" points="3.25 191.96 246.5 215.66 3.25 178.66 3.25 191.96"/><polygon class="cls-4" points="3.81 220.87 324.97 234.74 3.25 206.99 3.81 220.87"/><polygon class="cls-5" points="1.44 293.43 443.66 299.29 3.71 323.91 1.44 293.43"/><path class="cls-6" d="M2.58,443.52c3.41-1.17,503.6-72.7,503.6-72.7L1.44,511.54Z"/></g></g></svg>