<svg xmlns="http://www.w3.org/2000/svg" xmlns:xlink="http://www.w3.org/1999/xlink" viewBox="0 0 774.2 307.56"><defs><style>.cls-1{fill:url(#未命名漸層_152);}.cls-2{fill:url(#未命名漸層_156);}.cls-3{fill:url(#未命名漸層_166);}.cls-4{fill:url(#未命名漸層_174);}.cls-5{fill:url(#未命名漸層_174-2);}.cls-6{fill:url(#未命名漸層_189);}.cls-7{fill:url(#未命名漸層_189-2);}.cls-8{fill:url(#未命名漸層_189-3);}.cls-9{fill:url(#未命名漸層_189-4);}.cls-10{fill:url(#未命名漸層_189-5);}</style><linearGradient id="未命名漸層_152" x1="152.14" y1="110.73" x2="152.14" y2="307.56" gradientUnits="userSpaceOnUse"><stop offset="0" stop-color="#fff"/><stop offset="0.25" stop-color="#fff" stop-opacity="0.99"/><stop offset="0.38" stop-color="#fff" stop-opacity="0.96"/><stop offset="0.49" stop-color="#fff" stop-opacity="0.9"/><stop offset="0.59" stop-color="#fff" stop-opacity="0.83"/><stop offset="0.68" stop-color="#fff" stop-opacity="0.73"/><stop offset="0.76" stop-color="#fff" stop-opacity="0.61"/><stop offset="0.83" stop-color="#fff" stop-opacity="0.46"/><stop offset="0.9" stop-color="#fff" stop-opacity="0.29"/><stop offset="0.97" stop-color="#fff" stop-opacity="0.1"/><stop offset="1" stop-color="#fff" stop-opacity="0"/></linearGradient><linearGradient id="未命名漸層_156" x1="355.22" x2="355.22" y2="306.65" gradientUnits="userSpaceOnUse"><stop offset="0" stop-color="#fff"/><stop offset="0.14" stop-color="#fff" stop-opacity="0.99"/><stop offset="0.26" stop-color="#fff" stop-opacity="0.94"/><stop offset="0.39" stop-color="#fff" stop-opacity="0.87"/><stop offset="0.51" stop-color="#fff" stop-opacity="0.76"/><stop offset="0.63" stop-color="#fff" stop-opacity="0.63"/><stop offset="0.75" stop-color="#fff" stop-opacity="0.46"/><stop offset="0.86" stop-color="#fff" stop-opacity="0.27"/><stop offset="0.98" stop-color="#fff" stop-opacity="0.04"/><stop offset="1" stop-color="#fff" stop-opacity="0"/></linearGradient><linearGradient id="未命名漸層_166" x1="398.94" y1="51.11" x2="398.94" y2="306.67" gradientUnits="userSpaceOnUse"><stop offset="0" stop-color="#fff"/><stop offset="0.11" stop-color="#fff" stop-opacity="0.98"/><stop offset="0.24" stop-color="#fff" stop-opacity="0.93"/><stop offset="0.37" stop-color="#fff" stop-opacity="0.84"/><stop offset="0.5" stop-color="#fff" stop-opacity="0.72"/><stop offset="0.64" stop-color="#fff" stop-opacity="0.56"/><stop offset="0.78" stop-color="#fff" stop-opacity="0.37"/><stop offset="0.92" stop-color="#fff" stop-opacity="0.15"/><stop offset="1" stop-color="#fff" stop-opacity="0"/></linearGradient><linearGradient id="未命名漸層_174" x1="457.64" y1="10.02" x2="457.64" y2="307.15" gradientUnits="userSpaceOnUse"><stop offset="0" stop-color="#fff"/><stop offset="0.12" stop-color="#fff" stop-opacity="0.98"/><stop offset="0.24" stop-color="#fff" stop-opacity="0.93"/><stop offset="0.37" stop-color="#fff" stop-opacity="0.85"/><stop offset="0.5" stop-color="#fff" stop-opacity="0.74"/><stop offset="0.63" stop-color="#fff" stop-opacity="0.59"/><stop offset="0.76" stop-color="#fff" stop-opacity="0.41"/><stop offset="0.89" stop-color="#fff" stop-opacity="0.19"/><stop offset="1" stop-color="#fff" stop-opacity="0"/></linearGradient><linearGradient id="未命名漸層_174-2" x1="474.53" y1="200.89" x2="474.53" y2="305.8" xlink:href="#未命名漸層_174"/><linearGradient id="未命名漸層_189" x1="544.39" y1="65.25" x2="544.39" y2="305.8" xlink:href="#未命名漸層_174"/><linearGradient id="未命名漸層_189-2" x1="583.28" y1="24.31" x2="583.28" y2="305.45" xlink:href="#未命名漸層_174"/><linearGradient id="未命名漸層_189-3" x1="555.91" y1="240.12" x2="555.91" y2="305.93" xlink:href="#未命名漸層_174"/><linearGradient id="未命名漸層_189-4" x1="642.79" y1="8.75" x2="642.79" y2="306.13" xlink:href="#未命名漸層_174"/><linearGradient id="未命名漸層_189-5" x1="748.33" y1="2.82" x2="748.33" y2="306.97" xlink:href="#未命名漸層_174"/></defs><g id="圖層_2" data-name="圖層 2"><g id="裝飾"><polygon class="cls-1" points="0 298.92 304.29 110.73 15.04 307.56 0.14 307.37 0 298.92"/><polygon class="cls-2" points="140.04 306.65 217.76 306.65 570.41 0 248.84 249.53 419.83 104.22 140.04 306.65"/><polygon class="cls-3" points="545.15 51.11 252.73 306.65 301.41 306.67 545.15 51.11"/><polygon class="cls-4" points="603.44 10.02 311.83 307.15 339.04 307.15 603.44 10.02"/><polygon class="cls-5" points="430.87 305.8 452.44 305.8 518.19 200.89 430.87 305.8"/><polygon class="cls-6" points="460.66 305.8 489.43 305.8 628.11 65.25 460.66 305.8"/><polygon class="cls-7" points="498.38 305.45 518.93 305.45 668.18 24.31 498.38 305.45"/><polygon class="cls-8" points="574.56 240.12 537.27 305.93 549.7 305.93 574.56 240.12"/><polygon class="cls-9" points="714.25 8.75 571.34 306.13 664.15 306.13 714.25 8.75"/><polygon class="cls-10" points="722.46 306.97 759.42 67.21 761.88 200.22 774.2 2.82 773.38 306.13 722.46 306.97"/></g></g></svg>