<svg xmlns="http://www.w3.org/2000/svg" viewBox="0 0 607.39 250.29"><defs><style>.cls-1{opacity:0.3;}.cls-2{fill:#00cbf4;}</style></defs><title>盈眶而出QQ線</title><g id="圖層_2" data-name="圖層 2"><g id="內文"><g class="cls-1"><path class="cls-2" d="M600.82,135.76c-50.34-8.62-112,3.77-140.39,50.64-5.06,8.34-10,19.14-9.87,29.11.13,11.85,7,23.36,16.78,29.81a29.61,29.61,0,0,0,38.12-4.5c9.15-9.7,11.09-22.56,8.7-35.29-2.64-14.07-10.19-27.34-18.06-39.11-8.18-12.24-17.3-25-28.62-34.61-12.19-10.29-27.26-16.7-43.42-14.36-14.34,2.07-27.42,10.72-38.54,19.57a96.45,96.45,0,0,0-26,31.34c-3.16,6.23-6.38,13.31-7.09,20.32-.81,7.95,3.31,14.51,9.57,19,9.08,6.53,23.63,9.56,34.33,5.74,14.55-5.2,16.75-20.1,16.26-33.63-.53-14.58-4.08-29-11.8-41.44S382,115.87,369.53,108.17c-22.2-13.66-56-25-79.37-7.8-10.33,7.59-18.91,20-23.09,32.08-4,11.61-.05,23,10.49,29.33,8.34,5.05,20.08,6.45,28.7,1.3,12.29-7.33,11.26-24,8.46-36.08-6.54-28.26-24.31-53.61-51.58-64.71-26.44-10.77-58.95-9.16-80.58,10.77-5,4.6-9.16,10-13.25,15.38-4.64,6.13-8.8,12.8-6.24,20.82,2.27,7.11,9.24,12.3,16,14.65,7.58,2.63,15,.36,21.26-4.22a34.12,34.12,0,0,0,13.87-33.18c-2-14.19-11.23-26.65-22-35.72-21-17.74-49.19-28.64-76.59-30.13-13.44-.74-28.31,1.38-39.49,9.4-9.5,6.82-18.95,19.7-12.68,31.65,5,9.57,18,14.77,28.22,11.16,13.4-4.72,15.09-21.66,10.38-33.19C91.92,14.72,60.54,2.82,35.6.37c-10.51-1-22-.14-31.26,5.29-10,5.84-.94,21.41,9.09,15.54a23,23,0,0,1,9.07-2.9,64.61,64.61,0,0,1,11.83,0,82.26,82.26,0,0,1,26.56,7C69.06,29,77.55,34,82.81,41.5c2.27,3.22,4.15,7.14,3.82,11.14-.09,1.18-.8,2.41-1,3.58.07-.43.51-.38.73-.62-.45.48-1.25.39-.48.39a10.35,10.35,0,0,1-5.15-1.29c-.1-.07-1.92-2.17-1-.91-1.45-2,0-.36-.22-.23s.47-1.42-.14.35A13.75,13.75,0,0,1,80,52c3.74-7.94,13.21-11.43,21.27-12.81,19.35-3.31,41,3.08,58.24,11.62,9.21,4.58,18,10.16,25.26,17.53,6.31,6.44,12.51,15.38,11.9,24.85-.33,5.09-5,14.3-11.47,13.77-2-.16-2.9-2-4.49-2.65-2-.84.38-2-.61.3a17.65,17.65,0,0,1,1.34-2.54,100.6,100.6,0,0,1,9.36-11.82C204.93,74.82,224.69,71,244.69,75.4c10.78,2.35,21.24,6.84,29.5,14.28,7.28,6.54,12.36,14.62,16.49,23.42,4.37,9.32,9.27,20.94,7.66,31.47-.41,2.71-.12,1.43-1.17,3.24,1-1.76-.88.52.07-.25s-1.07.54-1.12.56c2.27-.6-3.37.31-1.09.15a19.23,19.23,0,0,1-2.63,0c-2-.13.66.25-1.17-.21a10.42,10.42,0,0,1-3.4-1.15A11.67,11.67,0,0,1,285,145c-1.4-1.31-1.11-.54-1.62-2.28.46,1.56.07-.26-.07-.63.05.12.14-.79-.09-.08,2.86-9,7.29-17.42,14.14-24.18,14.3-14.14,38-7,53.74.73,19.5,9.65,36.21,24.73,41.58,46.52a70.08,70.08,0,0,1,1.9,13.35c.22,4.52.84,10.15-.77,14.5-2.32,6.29-10.95,4.26-16.22,2.58-2.51-.8-7.07-2.72-7.34-4.77-.43-3.29,2.8-9,4.24-12a80,80,0,0,1,18-24c7.54-7,16.66-13.39,26.19-17.3,10.7-4.39,21.69-2.52,31.28,3.61,8.52,5.44,15.16,13.58,21.29,21.5A180.2,180.2,0,0,1,491,193.34c3.75,7.67,7.43,17.16,6.07,25.79-1,6.32-6.4,14-13.69,13.31S470.79,225.21,469.1,219c-1.23-4.56.46-10.54,3.07-16.31,15.2-33.62,55-49.87,90-51.58A156.55,156.55,0,0,1,596,153.11c4.78.82,9.69-1.27,11.07-6.28,1.19-4.33-1.47-10.25-6.29-11.07Z"/></g></g></g></svg>