<svg xmlns="http://www.w3.org/2000/svg" viewBox="0 0 1569.34 1144.78">
  <defs>
    <style>.cls-1{isolation:isolate;}.cls-2{opacity:0.27;mix-blend-mode:screen;}.cls-3{fill:#fff;}</style>
  </defs>
  <title>QQ線-透明度27%</title>
  <g class="cls-1">
    <g id="圖層_2" data-name="圖層 2">
      <g id="內文">
        <g class="cls-2">
          <path class="cls-3" d="M1564.32,883.76c.33,1.74.15,3.41.9,4.36,8,10.17,2.8,19.16-2.93,27.54a161.81,161.81,0,0,1-17.61,21.7c-10.25,10.48-12,23-11,36.64,2.79,40.36.16,80.13-12.45,118.93a83.92,83.92,0,0,1-10.54,22.33,22.59,22.59,0,0,1-38.05-1.16c-6.08-9.83-7.6-20.89-7.73-32a224,224,0,0,1,6.88-59.63c5-19.27,9.68-38.62,16.39-57.41a37.59,37.59,0,0,0,1.85-9.31c.75-8.51-4.3-13.93-12.84-14.85-8.31-.9-15.11,2.68-21.88,6.52-9.56,5.44-18.24,11.79-24.64,21.09-5.21,7.57-5.53,16.28-6.9,24.69-5.13,31.56-15.56,61.37-28.76,90.33-6.87,15.07-14.46,29.74-23.73,43.5a45.26,45.26,0,0,1-16.9,14.88c-15.26,7.93-33.77-1.42-37.65-18.77-2.6-11.59-.53-22.76,2.8-33.82a450.2,450.2,0,0,1,32.59-80.2c8.46-16.07,18.94-30.91,29.1-45.93,8.6-12.71,5.14-23-2.06-33.15-8.79-12.43-21.94-15.77-36.09-16.59-22.53-1.31-43.16,5.43-62.83,15.6-10.37,5.35-16.09,14.5-18.83,25.61-4.72,19.1-12.47,37-21.78,54.24-10,18.43-20.28,36.67-33.62,53-25.34,31.07-54.58,57.36-90.68,75.4-10.16,5.08-21.22,7.42-32.36,5.16-14.09-2.87-23.74-11.77-27.52-27.41-2.47-10.24-.63-19.88,3.95-29.19a172.39,172.39,0,0,1,31.89-44.37c12.52-12.83,24.21-26.51,37.24-38.85,10.35-9.8,20.41-19.92,30.4-30,17.46-17.66,36.57-33.51,53.93-51.23a18,18,0,0,0,1.78-23.6c-8.84-12-20.6-20-34.76-24.66-18-5.95-36.63-8.26-55.5-9.72-12.09-.94-24.23-2.16-36.31-2.33-12.6-.18-25.22-.93-37.92,0-14.55,1-29.1,1.64-43.58,3.56-12.49,1.66-20.2,8.87-24.84,20.19-16.15,39.4-39.87,73.93-67.74,105.9-12.6,14.45-25.68,28.45-38.9,42.31-17.1,17.94-33.9,36.2-54.79,50.18-17,11.39-35.64,17.32-55.67,19.34-9.55,1-18.75-1.5-28-4-17.92-5-28.37-17.38-35.8-33.21-4-8.43-4.19-17.35-2.25-26.37,2.29-10.66,7.26-20.14,12.76-29.42,8.6-14.54,17.26-29,27.22-42.7,9.56-13.11,21-24.53,32.57-35.91,14.25-14,30.1-26,44.93-39.17,23.25-20.73,48.08-39.19,76.35-52.53a260,260,0,0,1,32.35-12.94c12.85-4.08,17.89-11.67,16.34-25.08-3.13-27-13.67-51.17-28-73.9-10.47-16.65-22.43-32.16-38.64-43.64-24.41-17.28-51.17-30-80.47-36.1-16.63-3.44-33.77-4.64-50.86-5.48-9.13-.46-18.28-.61-27.42-1.29-14-1-28.12,1.1-42.19,1.4s-28.09,1.36-42.1,2.54c-19.64,1.65-39.33,2.58-58.92,5-14.33,1.73-28.65,3.37-42.82,6.23-8.84,1.79-13.47,7.33-15.29,15.46-3.85,17.19-7.71,34.36-12.46,51.32-6.47,23.1-14.13,45.67-25,67.17a815.06,815.06,0,0,1-44.32,77.5c-15.79,24.21-32.95,47.34-54.14,67.23-20,18.79-41.85,35-66.24,47.68-13.6,7.08-27.37,13.8-41.84,18.92-16,5.66-32.65,8.7-49.49,10.54-10.3,1.13-20.57,2.74-31,2.27-28.55-1.29-56.86-3.74-84.41-12.16-17-5.18-33.41-11.32-47.74-21.92C38,965.37,25,946.4,22.25,921.68a84.2,84.2,0,0,1,2.13-29.88c5.42-21.4,11.87-42.46,22.43-61.9C58.7,808,72.92,787.68,91,770.23c15.55-15,30.24-31,46.94-44.77,19-15.73,38.39-31.1,59.77-43.47,29.72-17.2,59.88-33.53,92.21-45.68,27.9-10.48,56.22-19.54,84.82-27.73,13.18-3.78,26.76-6.18,40.17-9.17a15.86,15.86,0,0,0,12.76-15.36,167.63,167.63,0,0,0-2.33-31.57c-3.76-24-9.52-47.57-18.86-70.1a507.42,507.42,0,0,0-40.37-77.12c-18.35-29-39.82-55.45-62.51-81.08-8.55-9.65-18.15-18.17-26.86-27.6-20.92-22.67-44.57-42.36-67.68-62.69-25.95-22.84-53.6-43.49-80.5-65.1-14.27-11.46-28.37-23.16-42.79-34.44-7.16-5.61-15.07-10.27-22.29-15.82C48.79,107.24,34,96.11,18.84,85.52,4.85,75.76-1.84,62.86.43,45.7c1-7.5,1.84-15,2.93-22.51A37.8,37.8,0,0,1,7,12.19C12.24,1.38,21.64-2.58,32.85,1.69,46.84,7,58.76,15.93,70.92,24.36c16.66,11.54,32.79,23.78,48.27,36.89,20.82,17.62,41.89,35,62.56,52.75,12.42,10.69,26.48,19.19,38.77,30,14.52,12.81,29.18,25.46,44.1,37.8,13.85,11.46,26.43,24.29,40,36.06,2.77,2.4,4.86,5.57,7.43,8.22,9.19,9.5,19.25,18.13,28.42,27.61,26.34,27.21,51.69,55.31,73.51,86.4,15.67,22.33,30.91,44.91,43.9,68.91,11.14,20.6,22.46,41.16,31.05,63,5.87,14.87,10.35,30.29,15.31,45.51,5.33,16.37,7.56,33.26,10.53,50.06,1.86,10.5,7.7,14.83,18.36,13.57,19.58-2.32,39.26-3.92,58.93-4.6,34.81-1.21,69.66-2.6,104.49-1.43,22.66.76,45.29,2.21,67.8,5.65,12,1.84,24.06,3.39,36,5.69,15.5,3,29.74,9.76,44.19,15.79a286.8,286.8,0,0,1,54.47,30c9.59,6.72,17.5,15.2,25.91,23.19A213.08,213.08,0,0,1,953,688.31a244.62,244.62,0,0,1,29.25,56.63,309.65,309.65,0,0,1,13.93,50.81c1.83,10.21,6.54,14.17,17.05,14,14.41-.22,28.83-1.28,43.23-.9,34.31.9,68.52,2.92,102.44,9,25.07,4.45,48.2,13,68.68,28.28,7.82,5.81,14.71,12.55,19.82,21,2.37,3.92,5.09,7.62,7.74,11.36,4.64,6.54,8.61,8.12,16.41,5.63,6-1.93,11.76-4.73,17.7-6.94,23.07-8.62,46.76-11.71,71-6.63,23.34,4.88,41,17.71,52.51,38.94,5.53,10.24,11.56,11.72,21.81,6.15,6.35-3.45,12.72-6.84,19-10.36,17.36-9.68,34.41-8.68,51.1,1.57,14.32,8.79,18.67,3.91,27.25-4.27,3.92-3.74,7.5-7.87,11.67-11.39,4.44-3.74,9.36-6.32,15.35-5.69C1561.05,885.68,1562.61,884.64,1564.32,883.76ZM181.63,941.18c27.57-.1,50.47-6,71.66-17.52,22.08-12,41.35-27.72,58.79-46,14.05-14.73,26.39-30.69,38.09-47.16,18.4-25.88,33.87-53.61,47.73-82.15A246.68,246.68,0,0,0,416.13,695c1.54-6.79-1.36-10-8.33-10-7.76,0-14.89,3.1-21.85,5.8-28.35,11-56.62,22.18-83.32,37.12C277,742.25,253.46,759.49,230.91,778c-17.76,14.61-33.6,31.3-48.73,48.76-21.73,25.06-34.8,53.92-41.64,85.94-2.32,10.86,4.92,21.8,15.7,24.63C165.64,939.84,175.08,942,181.63,941.18Zm723.19-34.31c-.08-3.91-1.74-5.45-5.11-4.46a30.26,30.26,0,0,0-10.06,5.65C873,921.11,857.09,935,841.11,948.79,816.6,970,794,992.71,777.88,1021.23c-2.17,3.84-4.63,7.49-5.56,11.91-1.1,5.24,1,7.77,6.43,7.1,5.62-.7,10.26-3.59,14.45-7.23,6.22-5.42,12.1-11.27,18.28-16.67,10.76-9.42,20-20.25,30.35-30.07,8.25-7.86,15.58-16.68,23.28-25.11C877.72,947.37,889.64,933,900,917.41,902.15,914.11,904.2,910.51,904.82,906.87Zm260.25,127.78c-1.65.39-2.68,1.66-3.76,2.79q-9.84,10.32-19.62,20.69a11.58,11.58,0,0,0-1.31,1.65c-.48.73-1.05,1.64-.43,2.42.91,1.12,2,.4,2.8-.23,2.46-2,4.89-4,7.22-6.17,5.73-5.22,11.51-10.4,16-16.8.72-1,1.38-2.1.81-3.41A1.55,1.55,0,0,0,1165.07,1034.65Z" />
        </g>
      </g>
    </g>
  </g>
</svg>