<svg xmlns="http://www.w3.org/2000/svg" width="1569.3378" height="1144.784" viewBox="0 0 1569.3378 1144.784">
  <defs>
    <style>.cls-1{isolation:isolate;}.cls-2{opacity:0.27;mix-blend-mode:screen;}.cls-3{fill:#fff;}</style>
  </defs>
  <g class="cls-1">
    <g id="圖層_2" data-name="圖層 2">
      <g id="內文">
        <g class="cls-2">
          <path class="cls-3" d="M1564.3227,883.7637c.3268,1.7374.1489,3.41.8944,4.353,8.0419,10.1725,2.806,19.1648-2.9295,27.54a161.7758,161.7758,0,0,1-17.6074,21.7057c-10.2457,10.4768-11.9662,23.0055-11.0255,36.6369,2.7853,40.3606.1532,80.1343-12.4527,118.9293a84.0441,84.0441,0,0,1-10.5444,22.3362,22.589,22.589,0,0,1-38.0471-1.1618c-6.08-9.8359-7.5963-20.8889-7.7355-31.9807a224.4625,224.4625,0,0,1,6.8845-59.6368c5.0138-19.2692,9.6789-38.6189,16.3922-57.404a37.7832,37.7832,0,0,0,1.845-9.3081c.7557-8.5113-4.2927-13.9323-12.836-14.8556-8.3137-.8986-15.1066,2.68-21.8759,6.5269-9.5624,5.4338-18.2411,11.7842-24.6448,21.0872-5.213,7.5732-5.5264,16.2735-6.8956,24.6919-5.132,31.5517-15.5647,61.3643-28.7676,90.3278-6.87,15.0712-14.4609,29.7407-23.7266,43.4972a45.1667,45.1667,0,0,1-16.905,14.88c-15.26,7.9327-33.7621-1.4165-37.649-18.77-2.5951-11.5856-.5245-22.7586,2.8-33.82a449.958,449.958,0,0,1,32.5945-80.196c8.4564-16.0755,18.9426-30.9155,29.1037-45.9361,8.5979-12.71,5.1329-22.9834-2.0595-33.1514-8.79-12.4271-21.9444-15.7666-36.0946-16.5879-22.5342-1.3077-43.1616,5.4314-62.83,15.5975-10.37,5.3594-16.0856,14.503-18.8286,25.61-4.7183,19.106-12.475,37.0265-21.785,54.2429-9.9693,18.4354-20.2718,36.6679-33.6209,53.04-25.3341,31.072-54.5709,57.3655-90.6709,75.4055-10.1618,5.0781-21.224,7.42-32.3665,5.1517-14.0927-2.87-23.7378-11.7659-27.514-27.403-2.4744-10.2472-.6349-19.8786,3.9463-29.1882a172.253,172.253,0,0,1,31.889-44.37c12.5176-12.8365,24.21-26.5166,37.24-38.8528,10.3491-9.7983,20.4155-19.9231,30.4016-30.0273,17.4571-17.6636,36.5719-33.5185,53.9316-51.2376a18.0169,18.0169,0,0,0,1.7811-23.5949c-8.845-12.0383-20.6028-20.0062-34.7583-24.6667-18.0444-5.9411-36.6313-8.256-55.5031-9.7184-12.0959-.9374-24.2315-2.1547-36.3075-2.3258-12.6079-.1787-25.22-.9286-37.9289-.0378-14.5421,1.0193-29.0962,1.6406-43.571,3.5575-12.4955,1.6548-20.2076,8.8727-24.845,20.1885-16.1475,39.4027-39.8709,73.9353-67.74,105.9-12.6023,14.4541-25.6821,28.4533-38.8969,42.3139-17.1048,17.941-33.8993,36.1954-54.79,50.1756-17.0212,11.3906-35.6444,17.3238-55.6719,19.339-9.5471.9606-18.7513-1.4925-28.0282-4.0524-17.9249-4.9463-28.3747-17.3771-35.8045-33.21-3.9528-8.4233-4.1914-17.3425-2.2523-26.3618,2.2919-10.6605,7.2682-20.1435,12.7625-29.4264,8.6033-14.5356,17.2655-29.045,27.2234-42.6978,9.5633-13.112,20.9691-24.5289,32.568-35.9087,14.2463-13.9771,30.1-25.956,44.9268-39.1736,23.253-20.73,48.0793-39.1868,76.351-52.53a261.502,261.502,0,0,1,32.3494-12.9357c12.8522-4.0823,17.8964-11.6712,16.3413-25.0831-3.1272-26.97-13.6725-51.1679-27.9683-73.8993-10.471-16.65-22.4322-32.1553-38.64-43.6343-24.4084-17.2873-51.1662-30.0353-80.4649-36.1016-16.6319-3.4439-33.7768-4.642-50.8619-5.4873-9.13-.4517-18.2816-.6067-27.4228-1.282-14.0418-1.0371-28.1188,1.1009-42.1906,1.3917-14.08.291-28.0852,1.3658-42.1024,2.544-19.6387,1.6506-39.3307,2.5834-58.9178,4.9579-14.33,1.7372-28.6454,3.3718-42.8208,6.2335-8.8426,1.7852-13.47,7.328-15.2916,15.4609-3.8485,17.1837-7.7021,34.3559-12.4546,51.3223-6.468,23.0913-14.1281,45.6652-25.0135,67.1661a816.22,816.22,0,0,1-44.3155,77.5027c-15.7893,24.2058-32.957,47.3382-54.1429,67.23-20.005,18.7832-41.8529,34.98-66.2423,47.6736-13.6016,7.0792-27.37,13.8086-41.8417,18.923-16.0154,5.66-32.6506,8.7055-49.4826,10.5421-10.3084,1.1247-20.5707,2.7372-31.048,2.2639-28.5471-1.2895-56.8514-3.7387-84.41-12.1571-16.9613-5.1812-33.4027-11.3142-47.731-21.9179-19.6581-14.5479-32.7188-33.5174-35.4261-58.2418A84.233,84.233,0,0,1,24.3831,891.8c5.4155-21.4017,11.8626-42.46,22.4232-61.903,11.8977-21.9051,26.1109-42.221,44.1677-59.6695,15.55-15.0258,30.2391-30.9533,46.94-44.7686,19.0187-15.7331,38.386-31.1015,59.7695-43.4735,29.72-17.1954,59.8725-33.5224,92.2047-45.6724,27.9012-10.4849,56.2194-19.5413,84.8222-27.7352,13.1828-3.7763,26.7606-6.1788,40.1671-9.1692a15.8489,15.8489,0,0,0,12.76-15.3632,167.2442,167.2442,0,0,0-2.3317-31.57c-3.7537-24.0347-9.5137-47.5647-18.8527-70.0983a507.4876,507.4876,0,0,0-40.3751-77.1222c-18.344-28.9844-39.82-55.4419-62.5111-81.0723-8.5475-9.6546-18.1482-18.1715-26.8523-27.6043-20.9222-22.6739-44.5761-42.358-67.6831-62.6915-25.9515-22.8366-53.5968-43.486-80.5011-65.0967-14.27-11.4627-28.3711-23.1572-42.7863-34.4433-7.1663-5.6107-15.0778-10.2661-22.2927-15.82-14.663-11.2877-29.44-22.4192-44.6115-33.0058C4.8548,75.7631-1.8355,62.8623.4349,45.6983c.9921-7.5,1.84-15.021,2.9264-22.5074A38.0252,38.0252,0,0,1,7.0175,12.1868C12.2352,1.3822,21.6435-2.5843,32.8548,1.6851,46.84,7.011,58.758,15.9347,70.9161,24.359c16.66,11.5435,32.7984,23.7828,48.2785,36.8875,20.8194,17.6246,41.8839,34.9629,62.5567,52.7565,12.42,10.69,26.478,19.19,38.7716,30.0355,14.5166,12.807,29.1773,25.4638,44.0941,37.8009,13.8522,11.4565,26.4341,24.2867,39.9837,36.0618,2.766,2.4037,4.8584,5.5644,7.4259,8.2169,9.1925,9.4971,19.2575,18.1341,28.4273,27.61,26.3353,27.2148,51.6818,55.307,73.5089,86.4036,15.6693,22.3236,30.9065,44.9059,43.8963,68.91,11.1445,20.5941,22.456,41.1606,31.0532,62.9657,5.8641,14.8729,10.3431,30.2888,15.3039,45.51,5.3341,16.367,7.5675,33.2616,10.5359,50.0638,1.8546,10.4984,7.7006,14.8305,18.3546,13.5681,19.5874-2.3213,39.2674-3.9209,58.9347-4.6028,34.8084-1.2065,69.6577-2.595,104.4879-1.4254,22.6577.7608,45.2895,2.2045,67.8007,5.6526,11.998,1.8378,24.0592,3.3879,35.9782,5.69,15.5021,2.9945,29.7383,9.76,44.19,15.78a287.3913,287.3913,0,0,1,54.4671,30.0312c9.5981,6.7212,17.503,15.2043,25.9145,23.1982a212.2707,212.2707,0,0,1,28.1058,32.8332,244.6134,244.6134,0,0,1,29.25,56.6341A308.9616,308.9616,0,0,1,996.17,795.7532c1.8268,10.2086,6.5405,14.1716,17.0483,14.0141,14.4119-.2161,28.8361-1.2819,43.2265-.9009,34.31.9085,68.5293,2.9249,102.4451,8.9529,25.0649,4.4549,48.1983,13.0524,68.6842,28.2808,7.818,5.8115,14.7055,12.5535,19.814,20.9946,2.3676,3.9121,5.09,7.6147,7.7389,11.3507,4.6384,6.5432,8.6085,8.1238,16.4133,5.6306,6.0235-1.9243,11.761-4.7239,17.6982-6.94,23.0685-8.6112,46.7656-11.7027,71.0256-6.6255,23.3358,4.8838,41.04,17.7073,52.5043,38.9369,5.5338,10.2473,11.5612,11.72,21.8122,6.1523,6.3449-3.4464,12.7183-6.8419,19.0245-10.3582,17.3637-9.6821,34.41-8.6838,51.1087,1.5692,14.3147,8.7894,18.6678,3.9127,27.25-4.2735,3.916-3.7353,7.5-7.8667,11.6712-11.3845,4.4382-3.7434,9.3541-6.3235,15.3492-5.6879C1561.0548,885.6841,1562.61,884.6369,1564.3227,883.7637ZM181.6285,941.1752c27.5715-.0958,50.471-5.9864,71.6574-17.52,22.0821-12.0208,41.35-27.7162,58.7923-46.0062,14.0487-14.7317,26.39-30.6927,38.092-47.1549,18.4036-25.8892,33.8741-53.61,47.7279-82.152a246.4822,246.4822,0,0,0,18.23-53.34c1.54-6.7948-1.362-10.0574-8.3265-10.0215-7.7564.04-14.89,3.0961-21.8477,5.8026-28.3533,11.03-56.627,22.1757-83.3225,37.1168-25.6433,14.3524-49.1742,31.5875-71.7189,50.1383-17.7573,14.6114-33.5988,31.2964-48.7323,48.757-21.7264,25.0672-34.8006,53.92-41.6414,85.9462-2.32,10.8606,4.92,21.797,15.6984,24.6278C165.6428,939.84,175.08,942.0025,181.6285,941.1752Zm723.191-34.304c-.076-3.9073-1.7441-5.4472-5.1078-4.466a30.2646,30.2646,0,0,0-10.0661,5.6595c-16.6292,13.0421-32.5562,26.9121-48.5393,40.7281-24.5086,21.1855-47.1565,43.9154-63.23,72.4347-2.1639,3.8392-4.6271,7.4959-5.5563,11.9076-1.1044,5.243,1.05,7.77,6.4309,7.1006,5.6215-.7,10.2612-3.585,14.447-7.2255,6.2271-5.4159,12.0987-11.2657,18.28-16.6735,10.7636-9.4165,20.0342-20.2472,30.3481-30.07,8.2494-7.8568,15.58-16.68,23.2829-25.1069,12.61-13.794,24.5323-28.1541,34.86-43.7478C902.1548,914.11,904.2046,910.5051,904.82,906.8712Zm260.2492,127.7817c-1.6493.39-2.6792,1.6532-3.76,2.7863q-9.8385,10.3167-19.6153,20.6921a11.8305,11.8305,0,0,0-1.3183,1.6466c-.48.7353-1.0495,1.6388-.4211,2.42.904,1.1241,2.011.4022,2.7954-.2313,2.4619-1.9881,4.8873-4.0293,7.2242-6.1625,5.723-5.2238,11.503-10.4023,15.9944-16.8.7208-1.027,1.3815-2.103.8106-3.4161A1.535,1.535,0,0,0,1165.0687,1034.6529Z" />
        </g>
      </g>
    </g>
  </g>
</svg>