<svg xmlns="http://www.w3.org/2000/svg" viewBox="0 0 228.39 228.63"><defs><style>.cls-1{fill:#00cbf4;}</style></defs><g id="圖層_2" data-name="圖層 2"><g id="內文"><path class="cls-1" d="M88.76,122.65c.74-5.46,1.15-8.42,2.51-15a82.67,82.67,0,0,1-10.82,9.64c-3.19-12.25-5-17.6-9.09-26.73a45.46,45.46,0,0,0-5.66-1l-7,51c7.23-2,10.12-2.79,20-5.84l-4.15,33.73c-25.32,7.2-43.15,12.17-61.85,16.8a75.17,75.17,0,0,0-10.83,2.92L0,151.53c6.72,0,11.43-.53,23.56-2.81L32.27,85l-3-.4A158.1,158.1,0,0,0,12.12,83.2L16.67,50a115,115,0,0,0,16.67,3.44l3.19.44,3.82-28A187.31,187.31,0,0,0,42.5,0L78.67,5c-2.16,7.35-3.11,12.55-4.88,25.51L70,58.44a69.39,69.39,0,0,0,13.54.93L82,70.51C101.07,53,114.75,32.59,125.08,6.19l34.21,14.18c-3.22,4.89-3.22,4.89-9.87,16.26-1.87,3.46-4.44,7-8.79,13.4l18.88,2.58c10.5-14.09,17.73-26.3,21.86-36.17l33.1,12.18c-2.9,4.23-2.9,4.23-10.3,16-2.64,4-5,7.66-8.95,12.91l6.6.9a221.19,221.19,0,0,0,26.57,2.24l-4.63,33.9c-5.82-1.49-16.22-3.38-25.32-4.62l-13.65-1.87-1.93,14.1,18,2.46c8.42,1.15,12.09,1.42,16.27,1.3l-4.16,30.48a129.27,129.27,0,0,0-16.06-2.89l-18-2.46-2,14.56,18,2.46c8.42,1.15,12.09,1.42,16.27,1.29L207,179.83a140.69,140.69,0,0,0-16.28-2.92L173,174.49l-2.18,15.92,16.61,2.27A249.06,249.06,0,0,0,212.57,195L208,228.63q-9-2.62-26.43-5l-71.2-9.73L109,223.67,74.2,218.91a190.2,190.2,0,0,0,4.73-24.38Zm62.48-24.82,1.93-14.11L128.6,80.36l-1.92,14.11Zm-30.51,40.08,24.57,3.36,2-14.55-24.56-3.36Zm-6.12,44.82,24.56,3.35,2.18-15.92-24.57-3.36Z"/></g></g></svg>