<svg xmlns="http://www.w3.org/2000/svg" viewBox="0 0 157.37 38.3"><defs><style>.cls-1{fill:#ff1a83;}</style></defs><g id="圖層_2" data-name="圖層 2"><g id="內文"><path class="cls-1" d="M7.07,21.08a61.13,61.13,0,0,0,.54-6.6,40.93,40.93,0,0,1-3.19,3.09A20,20,0,0,0,.8,12.3,22.64,22.64,0,0,0,7.93,4.2,13.16,13.16,0,0,0,9,1.43l6.56.7c-.35.64-.35.64-.87,1.68a10.71,10.71,0,0,1-.48,1l18.08-.06a41.2,41.2,0,0,0,5-.26l0,5.92a40.3,40.3,0,0,0-5-.22L11,10.23c-.35.52-.79,1.12-1.27,1.76h1l19.76-.08c2,0,3.12-.05,4.07-.13-.11.8-.11,1.08-.25,6.32,0,.72,0,1.36-.11,2.88h.4a24.91,24.91,0,0,0,3.92-.22l0,5.76a37.4,37.4,0,0,0-4-.14h-.6c-.12,1.32-.23,2.6-.39,3.88H34a24.54,24.54,0,0,0,3.56-.17l0,5.83a32.61,32.61,0,0,0-3.88-.14H32.44c-.95,2.93-2.38,3.69-7.06,3.71-.36,0-.8,0-1.64-.08a15.44,15.44,0,0,0-.46-3.59l-12.71,0-.32,1.48-6.6-.45a73.55,73.55,0,0,0,2.6-10.41H5.81a34.94,34.94,0,0,0-4.12.18l0-5.76a35.58,35.58,0,0,0,4.8.18Zm12.76,9.67A42,42,0,0,0,15,28.29l2-2.17-4.68,0c-.47,3.16-.47,3.16-.74,4.64Zm1.08-9.48a34.53,34.53,0,0,0-4.85-2.54l1.68-1.81-4.4,0c-.15,2.12-.23,3-.39,4.36Zm-1,4.84a39.34,39.34,0,0,1,4.77,2.54L23,30.74l4.31,0c.2-1.48.24-1.84.47-4.64ZM28,21.24c0-.72.07-1.6.14-4.36l-6.55,0a37.44,37.44,0,0,1,4,2.14l-1.91,2.21Z" transform="translate(-0.8 -1.19)"/><path class="cls-1" d="M78.31,23a67.1,67.1,0,0,0-6.87-.3l-22.68.09a66.25,66.25,0,0,0-6.92.34l0-7a57.9,57.9,0,0,0,6.92.3l22.67-.08a52.71,52.71,0,0,0,6.88-.35Z" transform="translate(-0.8 -1.19)"/><path class="cls-1" d="M94,23.64a58.77,58.77,0,0,1-7.48,10.23c-.76.84-.84.92-1.19,1.36L81,29.57a16.21,16.21,0,0,0,2.67-2.41A55.81,55.81,0,0,0,90,18.94ZM86.37,2.87a50.56,50.56,0,0,1,6.7,6.38l-4.86,4.61a36.23,36.23,0,0,0-6.79-7Zm19.71,11.05a15.09,15.09,0,0,0-.11,1.92,18.06,18.06,0,0,0,2.36,9.35,16.8,16.8,0,0,0,5.89,5.58,32.63,32.63,0,0,0,5,2.3,26.8,26.8,0,0,0-3.46,6A26.63,26.63,0,0,1,108,34a20.52,20.52,0,0,1-4.87-7,21.92,21.92,0,0,1-3.61,6.13,25.75,25.75,0,0,1-8.7,6.23,19.3,19.3,0,0,0-3.42-5.39,22,22,0,0,0,6.43-3.78,15.9,15.9,0,0,0,5.44-8.86,24.78,24.78,0,0,0,.62-5.52,14.68,14.68,0,0,0-.12-1.84Zm5.46-6.82a27.93,27.93,0,0,0,3.76-.21l3.33,3.1a24.11,24.11,0,0,0-.87,2.33,43.13,43.13,0,0,1-5.32,10.82,24.17,24.17,0,0,0-5.29-3.47,22.22,22.22,0,0,0,4.13-7.09l-11.4,0a35,35,0,0,1-6.25,8.22,23.26,23.26,0,0,0-4.57-4.74A25.79,25.79,0,0,0,97.68,1.55l6.6,1.06c-.19.44-.19.44-1,2.56-.59,1.6-.59,1.6-.75,2Z" transform="translate(-0.8 -1.19)"/><path class="cls-1" d="M144.62,28.78a38.68,38.68,0,0,0-4.24-10.07c-.24.25-.32.37-.63.69a27.4,27.4,0,0,0-1.93-2l.05,15.32c0,1.32,0,2.52.14,3.76l-5.8,0V34.22l-3.72,0v3.55l-6,0a49.33,49.33,0,0,0,.22-5.48l-.08-21.28a34.59,34.59,0,0,0-.18-4.36,23.28,23.28,0,0,0,3.44.11h.88A28.36,28.36,0,0,0,128.4,1.2l6.36.74c-1.11,2.8-1.11,2.8-2,4.84h1.8c1.36,0,2.44,0,3.36-.13,0,.36,0,.36-.12,1.24,0,0,0,.88,0,2.15v2.2A31.88,31.88,0,0,0,141.93,4a14.08,14.08,0,0,0,.67-2.8l6.32.9a12.62,12.62,0,0,0-.71,2c-.32,1.08-.44,1.4-.75,2.28l7.36,0a21.88,21.88,0,0,0,3.35-.17A24.44,24.44,0,0,0,158,8.85c0,1.56,0,2.52-.23,12.56a79.58,79.58,0,0,1-1,11.6c-.63,3-1.38,4.17-3,4.89a16.26,16.26,0,0,1-5.84.86c-.8,0-1.64,0-2.95,0a20.21,20.21,0,0,0-1.59-6.23,35.8,35.8,0,0,0,4.64.34c1.88,0,2.52-.32,2.88-1.49.71-2.16,1-7.6,1-19l-7,0a28.9,28.9,0,0,1-4.22,6.13l5.07-2.21a62.78,62.78,0,0,1,4.76,9.94ZM128.38,17.64l3.8,0,0-5.27h-3.8Zm0,11.16,3.8,0,0-5.84-3.8,0Z" transform="translate(-0.8 -1.19)"/></g></g></svg>