<svg xmlns="http://www.w3.org/2000/svg" viewBox="0 0 134.43 141.18"><defs><style>.cls-1{fill:#ff1a83;}</style></defs><g id="圖層_2" data-name="圖層 2"><g id="內文"><path class="cls-1" d="M83.27,103.67c-4.35-15.6-9-26.55-15.76-37.81-.9.9-1.2,1.35-2.4,2.55a96,96,0,0,0-7.2-7.65v57.46c0,5,.15,9.46.45,14.11H36.61v-8.41h-14v13.36H0a172.64,172.64,0,0,0,.9-20.56V36.91A134.46,134.46,0,0,0,.3,20.55C4.35,21,5.4,21,13.2,21h3.3A105.49,105.49,0,0,0,22.8,0L46.66,2.85C42.46,13.35,42.46,13.35,39,21h6.75c5.1,0,9.15-.15,12.6-.45-.15,1.35-.15,1.35-.45,4.66V41.56a119.65,119.65,0,0,0,15.6-30.91A52.45,52.45,0,0,0,76.07.15L99.77,3.6A46.7,46.7,0,0,0,97.07,11c-1.2,4.05-1.65,5.25-2.85,8.55h27.6a84.34,84.34,0,0,0,12.61-.6,84,84,0,0,0-.75,10.21c0,5.85-.15,9.45-1.05,47.11-.45,16.8-2.1,35-3.9,43.5-2.4,11.11-5.25,15.61-11.41,18.31-4.35,1.95-12.9,3.15-21.9,3.15-3,0-6.15,0-11.1-.15a75.69,75.69,0,0,0-5.85-23.41A137.91,137.91,0,0,0,95.87,119c7,0,9.45-1.2,10.8-5.55,2.7-8.1,3.75-28.5,4-71.41H84.32c-5.25,9.6-10,16.65-15.91,22.95l19.06-8.25a237.36,237.36,0,0,1,17.7,37.36Zm-60.77-42H36.76V41.86H22.5Zm0,41.86H36.76V81.62H22.5Z"/></g></g></svg>