<svg xmlns="http://www.w3.org/2000/svg" viewBox="0 0 804.03 394.68"><defs><style>.cls-1{isolation:isolate;}.cls-2{mix-blend-mode:soft-light;}.cls-3{fill:#fff;}</style></defs><title>執著-ai柔光效果-2</title><g class="cls-1"><g id="圖層_2" data-name="圖層 2"><g id="內文"><g class="cls-2"><path class="cls-3" d="M124.75,148.65a94.76,94.76,0,0,0-7-11.47c-6,18.07-13.41,30.7-26.81,46.44-9.91-11.85-12.83-14.77-22.16-21a86.1,86.1,0,0,0,9.53-10.11H76.56c-2.33-.19-7.39-.39-11.66-.39H56.15v9.14c0,10.68.2,15,1.17,21.56H27.59c1-6.6,1.17-11.27,1.17-21.56v-9.14H22.93a133.57,133.57,0,0,0-19.24,1V125.91a155.45,155.45,0,0,0,17.88.78h7.19v-10.3H18.26a125.54,125.54,0,0,0-18.26,1V90.16a99.57,99.57,0,0,0,14.57.78A108.89,108.89,0,0,0,10.3,74.42c-3.89.19-6.22.39-10.3.78V48c5.63.78,10.1,1,19.24,1h9.52V39.83H22c-9.52,0-12,0-17.88.59V13.6c5.64.78,9.91,1,18.65,1h6V12.82A100.41,100.41,0,0,0,27.79,0H57.13a91.53,91.53,0,0,0-1,12.82v1.75H63a123.31,123.31,0,0,0,17.87-1V40.42c-6.22-.59-7.77-.59-17.87-.59H56.15V49H64.9c10.1,0,13-.2,18.07-.78v27a72.25,72.25,0,0,0-7.38-.59c-1.36,5.83-2.53,10.11-4.47,16.33,3.11,0,6.6-.2,8.16-.2l14-19,7.38,7.38c.39-4.66.78-11.46,1-16.9-8.93.19-10.88.39-14,.78V33.62c3.31.77,7,1,14.58,1.16.19-8.55.19-8.55.19-13.21,0-12.44-.19-16.32-1.17-21.57h30.32a114.89,114.89,0,0,0-1.17,17.68v17.1h19c8.55,0,12.24-.19,16.91-.58-.39,3.69-.58,8-1,17.49L162.25,153.5c0,1.95,0,1.95,2.13,2.53,3.5,0,3.89-3.89,4.47-36.53,5.64,4.27,8,5.63,15.35,8-1.74,50.32-3.69,54.21-26.81,54.21-17.1,0-22.15-3.89-22.15-16.71v-1.56l1-32.64ZM35.17,74.42a142.88,142.88,0,0,1,3.69,16.52h7.58c1.17-4.08,3.11-11.66,4.08-16.52Zm47.61,72.09a103.57,103.57,0,0,0,13.4-33.81c-6.41-7.77-6.41-7.77-11.07-13.21v17.87a127.38,127.38,0,0,0-18.27-1H56.15v10.3H64.9a130.16,130.16,0,0,0,17.88-1ZM128.24,62c-1,26.62-1,26.62-2.91,40.61,3.88,5.06,8.16,10.89,11.27,15.55L138.35,62Z"/><path class="cls-3" d="M220,99.1a223.16,223.16,0,0,0-25.07,1.16V75.2A213.93,213.93,0,0,0,220,76.36H262.7V68.79H236.86c-10.1,0-16.13.19-22.54.77V46.05c5.83.78,11.27,1,22.74,1h25.45a35.49,35.49,0,0,0-.19-5.24H236.08c.39-3.11.39-4.67.59-8.55H218.6a227.76,227.76,0,0,0-23.52,1V8.36A203.37,203.37,0,0,0,218.6,9.52h18.07A49.94,49.94,0,0,0,235.89,0h29.92a78,78,0,0,0-.58,9.52h35.56A56.92,56.92,0,0,0,300.21,0h29.92a47.36,47.36,0,0,0-.78,9.52h21.38a196.39,196.39,0,0,0,23.51-1.16V34.2a232.26,232.26,0,0,0-23.51-1H329.35a56.94,56.94,0,0,0,.78,8.55H300.4l.19-1.56a64.85,64.85,0,0,0,.2-7H265.23a43.54,43.54,0,0,0,.19,5.63h27a51.81,51.81,0,0,0-.58,8.16H306c10.89,0,15.36-.19,21-1V58.88c7.58-7,13.21-13.41,16.32-18.66L369.77,54c-1.36,1.36-1.36,1.36-9.52,9.13-4.86,4.86-8.75,8.16-14.58,13.21h5.06c11.46,0,16.51-.19,22.92-1v24.87a226.88,226.88,0,0,0-25.26-1.16H308.17c-4.47,2.72-6.41,4.08-11.07,6.6h41.77c10.5,0,14-.19,17.3-.58-.59,4.08-.78,9.33-.78,18.85v38.47a145.29,145.29,0,0,0,1,20.21H326.83V176H256.49v6.61H226.76a136.92,136.92,0,0,0,1.16-20.21V139.12c-8.55,2.73-12.24,3.89-22.93,6.81a88.26,88.26,0,0,0-14.57-25.85c25.65-3.88,47.41-10.1,72.67-21Zm45.85,25.45c-2.72,1.36-3.49,1.56-9.13,3.89v2.72h70.15v-6.61Zm-9.13,31.09h70.15v-6.8H256.68Zm48.19-79.28c4.66-3.3,6.22-4.47,10.1-7.57H291.85v7.57Z"/></g><g class="cls-2"><path class="cls-3" d="M124.75,359.7a95.53,95.53,0,0,0-7-11.46c-6,18.07-13.41,30.7-26.81,46.44-9.91-11.85-12.83-14.77-22.16-21a85.34,85.34,0,0,0,9.53-10.1H76.56c-2.33-.2-7.39-.39-11.66-.39H56.15v9.13c0,10.69.2,15,1.17,21.57H27.59c1-6.61,1.17-11.27,1.17-21.57V363.2H22.93a133.76,133.76,0,0,0-19.24,1V337a155.45,155.45,0,0,0,17.88.78h7.19v-10.3H18.26a124.14,124.14,0,0,0-18.26,1v-27.2a99.79,99.79,0,0,0,14.57.77,108.79,108.79,0,0,0-4.27-16.51c-3.89.19-6.22.39-10.3.77v-27.2c5.63.78,10.1,1,19.24,1h9.52v-9.13H22c-9.52,0-12,0-17.88.58V224.66c5.64.78,9.91,1,18.65,1h6v-1.75a100.41,100.41,0,0,0-1-12.82H57.13a91.41,91.41,0,0,0-1,12.82v1.75H63a123.31,123.31,0,0,0,17.87-1v26.81c-6.22-.58-7.77-.58-17.87-.58H56.15V260H64.9c10.1,0,13-.19,18.07-.77v27c-3.3-.38-3.3-.38-7.38-.58-1.36,5.83-2.53,10.11-4.47,16.32,3.11,0,6.6-.19,8.16-.19l14-19,7.38,7.38c.39-4.66.78-11.46,1-16.9-8.93.19-10.88.38-14,.77V244.67c3.31.78,7,1,14.58,1.17.19-8.55.19-8.55.19-13.21,0-12.44-.19-16.33-1.17-21.57h30.32a114.89,114.89,0,0,0-1.17,17.68v17.1h19c8.55,0,12.24-.2,16.91-.58-.39,3.69-.58,8-1,17.48l-3.11,101.82c0,1.94,0,1.94,2.13,2.53,3.5,0,3.89-3.89,4.47-36.53,5.64,4.27,8,5.63,15.35,8-1.74,50.33-3.69,54.22-26.81,54.22-17.1,0-22.15-3.89-22.15-16.72v-1.55l1-32.64ZM35.17,285.48A143.2,143.2,0,0,1,38.86,302h7.58c1.17-4.08,3.11-11.66,4.08-16.51Zm47.61,72.09a103.66,103.66,0,0,0,13.4-33.81C89.77,316,89.77,316,85.11,310.54v17.88a125.94,125.94,0,0,0-18.27-1H56.15v10.3H64.9a128.53,128.53,0,0,0,17.88-1ZM128.24,273c-1,26.62-1,26.62-2.91,40.61,3.88,5.05,8.16,10.88,11.27,15.55L138.35,273Z"/><path class="cls-3" d="M220,310.15a220.49,220.49,0,0,0-25.07,1.17V286.25A211.4,211.4,0,0,0,220,287.42H262.7v-7.58H236.86c-10.1,0-16.13.2-22.54.78V257.11c5.83.78,11.27,1,22.74,1h25.45a35.64,35.64,0,0,0-.19-5.25H236.08c.39-3.11.39-4.66.59-8.55H218.6a227.68,227.68,0,0,0-23.52,1V219.41a200.91,200.91,0,0,0,23.52,1.17h18.07a49.94,49.94,0,0,0-.78-9.52h29.92a78,78,0,0,0-.58,9.52h35.56a56.86,56.86,0,0,0-.58-9.52h29.92a47.36,47.36,0,0,0-.78,9.52h21.38a194,194,0,0,0,23.51-1.17v25.85a232.23,232.23,0,0,0-23.51-1H329.35a56.82,56.82,0,0,0,.78,8.55H300.4l.19-1.55a65.16,65.16,0,0,0,.2-7H265.23a43.63,43.63,0,0,0,.19,5.64h27a51.72,51.72,0,0,0-.58,8.16H306c10.89,0,15.36-.19,21-1v12.82c7.58-7,13.21-13.4,16.32-18.65l26.43,13.79c-1.36,1.37-1.36,1.37-9.52,9.14-4.86,4.86-8.75,8.16-14.58,13.21h5.06c11.46,0,16.51-.19,22.92-1v24.87a224.16,224.16,0,0,0-25.26-1.17H308.17c-4.47,2.72-6.41,4.08-11.07,6.61h41.77c10.5,0,14-.19,17.3-.58-.59,4.08-.78,9.32-.78,18.85V373.5a145.38,145.38,0,0,0,1,20.21H326.83V387.1H256.49v6.61H226.76a137,137,0,0,0,1.16-20.21V350.18c-8.55,2.72-12.24,3.89-22.93,6.8a88.2,88.2,0,0,0-14.57-25.84c25.65-3.89,47.41-10.1,72.67-21Zm45.85,25.46c-2.72,1.36-3.49,1.55-9.13,3.88v2.73h70.15v-6.61Zm-9.13,31.09h70.15v-6.8H256.68Zm48.19-79.28c4.66-3.3,6.22-4.47,10.1-7.58H291.85v7.58Z"/></g><g class="cls-2"><path class="cls-3" d="M554.54,359.7a95.53,95.53,0,0,0-7-11.46c-6,18.07-13.41,30.7-26.81,46.44-9.91-11.85-12.83-14.77-22.15-21a86,86,0,0,0,9.52-10.1h-1.75c-2.33-.2-7.38-.39-11.66-.39H486v9.13c0,10.69.19,15,1.16,21.57H457.38c1-6.61,1.17-11.27,1.17-21.57V363.2h-5.83a133.76,133.76,0,0,0-19.24,1V337a155.45,155.45,0,0,0,17.88.78h7.19v-10.3H448.06a124.28,124.28,0,0,0-18.27,1v-27.2a99.87,99.87,0,0,0,14.57.77,108.79,108.79,0,0,0-4.27-16.51c-3.89.19-6.22.39-10.3.77v-27.2c5.64.78,10.11,1,19.24,1h9.52v-9.13h-6.8c-9.52,0-12.05,0-17.88.58V224.66c5.64.78,9.91,1,18.66,1h6v-1.75a100.41,100.41,0,0,0-1-12.82h29.34a93,93,0,0,0-1,12.82v1.75h6.8a123.31,123.31,0,0,0,17.87-1v26.81c-6.21-.58-7.77-.58-17.87-.58H486V260h8.74c10.1,0,13-.19,18.07-.77v27c-3.3-.38-3.3-.38-7.38-.58-1.36,5.83-2.53,10.11-4.47,16.32,3.11,0,6.6-.19,8.16-.19l14-19,7.38,7.38c.39-4.66.78-11.46,1-16.9-8.93.19-10.88.38-14,.77V244.67c3.31.78,7,1,14.58,1.17.19-8.55.19-8.55.19-13.21,0-12.44-.19-16.33-1.16-21.57h30.31a114.89,114.89,0,0,0-1.17,17.68v17.1h19c8.55,0,12.25-.2,16.91-.58-.39,3.69-.58,8-1,17.48L592,364.56c0,1.94,0,1.94,2.14,2.53,3.49,0,3.88-3.89,4.47-36.53,5.63,4.27,8,5.63,15.35,8-1.75,50.33-3.7,54.22-26.82,54.22-17.1,0-22.15-3.89-22.15-16.72v-1.55l1-32.64ZM465,285.48A139.13,139.13,0,0,1,468.65,302h7.58c1.17-4.08,3.11-11.66,4.08-16.51Zm47.61,72.09A103.66,103.66,0,0,0,526,323.76c-6.41-7.78-6.41-7.78-11.07-13.22v17.88a125.94,125.94,0,0,0-18.27-1H486v10.3h8.74a128.44,128.44,0,0,0,17.88-1ZM558,273c-1,26.62-1,26.62-2.91,40.61,3.89,5.05,8.16,10.88,11.27,15.55L568.14,273Z"/><path class="cls-3" d="M649.75,310.15a220.73,220.73,0,0,0-25.07,1.17V286.25a211.4,211.4,0,0,0,25.07,1.17H692.5v-7.58H666.65c-10.1,0-16.13.2-22.54.78V257.11c5.83.78,11.27,1,22.74,1H692.3a35.64,35.64,0,0,0-.19-5.25H665.88c.38-3.11.38-4.66.58-8.55H648.39a227.37,227.37,0,0,0-23.51,1V219.41a200.73,200.73,0,0,0,23.51,1.17h18.07a49.94,49.94,0,0,0-.78-9.52H695.6a80,80,0,0,0-.58,9.52h35.56a56.86,56.86,0,0,0-.58-9.52h29.92a47.36,47.36,0,0,0-.78,9.52h21.38A193.92,193.92,0,0,0,804,219.41v25.85a232.23,232.23,0,0,0-23.51-1H759.14a56.82,56.82,0,0,0,.78,8.55H730.19l.2-1.55a68.58,68.58,0,0,0,.19-7H695a41.46,41.46,0,0,0,.2,5.64h27a52.94,52.94,0,0,0-.58,8.16h14.19c10.88,0,15.35-.19,21-1v12.82c7.58-7,13.21-13.4,16.32-18.65l26.43,13.79c-1.36,1.37-1.36,1.37-9.52,9.14-4.86,4.86-8.75,8.16-14.57,13.21h5c11.46,0,16.51-.19,22.93-1v24.87a224.4,224.4,0,0,0-25.26-1.17H738c-4.47,2.72-6.41,4.08-11.07,6.61h41.77c10.5,0,14-.19,17.3-.58-.59,4.08-.78,9.32-.78,18.85V373.5a145.38,145.38,0,0,0,1,20.21H756.62V387.1H686.28v6.61H656.55a135.64,135.64,0,0,0,1.16-20.21V350.18c-8.55,2.72-12.24,3.89-22.92,6.8a88.45,88.45,0,0,0-14.58-25.84c25.65-3.89,47.41-10.1,72.67-21Zm45.85,25.46c-2.72,1.36-3.49,1.55-9.13,3.88v2.73h70.15v-6.61Zm-9.13,31.09h70.15v-6.8H686.47Zm48.19-79.28c4.66-3.3,6.22-4.47,10.1-7.58H721.64v7.58Z"/></g><g class="cls-2"><path class="cls-3" d="M554.54,148.65a94.76,94.76,0,0,0-7-11.47c-6,18.07-13.41,30.7-26.81,46.44-9.91-11.85-12.83-14.77-22.15-21a86.74,86.74,0,0,0,9.52-10.11h-1.75c-2.33-.19-7.38-.39-11.66-.39H486v9.14c0,10.68.19,15,1.16,21.56H457.38c1-6.6,1.17-11.27,1.17-21.56v-9.14h-5.83a133.57,133.57,0,0,0-19.24,1V125.91a155.45,155.45,0,0,0,17.88.78h7.19v-10.3H448.06a125.69,125.69,0,0,0-18.27,1V90.16a99.66,99.66,0,0,0,14.57.78,108.89,108.89,0,0,0-4.27-16.52c-3.89.19-6.22.39-10.3.78V48c5.64.78,10.11,1,19.24,1h9.52V39.83h-6.8c-9.52,0-12.05,0-17.88.59V13.6c5.64.78,9.91,1,18.66,1h6V12.82a100.41,100.41,0,0,0-1-12.82h29.34a93.07,93.07,0,0,0-1,12.82v1.75h6.8a123.31,123.31,0,0,0,17.87-1V40.42c-6.21-.59-7.77-.59-17.87-.59H486V49h8.74c10.1,0,13-.2,18.07-.78v27a72.25,72.25,0,0,0-7.38-.59c-1.36,5.83-2.53,10.11-4.47,16.33,3.11,0,6.6-.2,8.16-.2l14-19,7.38,7.38c.39-4.66.78-11.46,1-16.9-8.93.19-10.88.39-14,.78V33.62c3.31.77,7,1,14.58,1.16.19-8.55.19-8.55.19-13.21C532.19,9.13,532,5.25,531,0h30.31a114.89,114.89,0,0,0-1.17,17.68v17.1h19c8.55,0,12.25-.19,16.91-.58-.39,3.69-.58,8-1,17.49L592,153.5c0,1.95,0,1.95,2.14,2.53,3.49,0,3.88-3.89,4.47-36.53,5.63,4.27,8,5.63,15.35,8-1.75,50.32-3.7,54.21-26.82,54.21-17.1,0-22.15-3.89-22.15-16.71v-1.56l1-32.64ZM465,74.42a138.84,138.84,0,0,1,3.69,16.52h7.58c1.17-4.08,3.11-11.66,4.08-16.52Zm47.61,72.09A103.57,103.57,0,0,0,526,112.7c-6.41-7.77-6.41-7.77-11.07-13.21v17.87a127.38,127.38,0,0,0-18.27-1H486v10.3h8.74a130.07,130.07,0,0,0,17.88-1ZM558,62c-1,26.62-1,26.62-2.91,40.61,3.89,5.06,8.16,10.89,11.27,15.55L568.14,62Z"/><path class="cls-3" d="M649.75,99.1a223.41,223.41,0,0,0-25.07,1.16V75.2a213.93,213.93,0,0,0,25.07,1.16H692.5V68.79H666.65c-10.1,0-16.13.19-22.54.77V46.05c5.83.78,11.27,1,22.74,1H692.3a35.49,35.49,0,0,0-.19-5.24H665.88c.38-3.11.38-4.67.58-8.55H648.39a227.45,227.45,0,0,0-23.51,1V8.36a203.19,203.19,0,0,0,23.51,1.16h18.07A49.94,49.94,0,0,0,665.68,0H695.6A80,80,0,0,0,695,9.52h35.56A56.92,56.92,0,0,0,730,0h29.92a47.36,47.36,0,0,0-.78,9.52h21.38A196.27,196.27,0,0,0,804,8.36V34.2a232.26,232.26,0,0,0-23.51-1H759.14a56.94,56.94,0,0,0,.78,8.55H730.19l.2-1.56a68.25,68.25,0,0,0,.19-7H695a41.38,41.38,0,0,0,.2,5.63h27a53,53,0,0,0-.58,8.16h14.19c10.88,0,15.35-.19,21-1V58.88c7.58-7,13.21-13.41,16.32-18.66L799.56,54c-1.36,1.36-1.36,1.36-9.52,9.13-4.86,4.86-8.75,8.16-14.57,13.21h5c11.46,0,16.51-.19,22.93-1v24.87a227.13,227.13,0,0,0-25.26-1.16H738c-4.47,2.72-6.41,4.08-11.07,6.6h41.77c10.5,0,14-.19,17.3-.58-.59,4.08-.78,9.33-.78,18.85v38.47a145.29,145.29,0,0,0,1,20.21H756.62V176H686.28v6.61H656.55a135.55,135.55,0,0,0,1.16-20.21V139.12c-8.55,2.73-12.24,3.89-22.92,6.81a88.51,88.51,0,0,0-14.58-25.85c25.65-3.88,47.41-10.1,72.67-21Zm45.85,25.45c-2.72,1.36-3.49,1.56-9.13,3.89v2.72h70.15v-6.61Zm-9.13,31.09h70.15v-6.8H686.47Zm48.19-79.28c4.66-3.3,6.22-4.47,10.1-7.57H721.64v7.57Z"/></g></g></g></g></svg>