<svg xmlns="http://www.w3.org/2000/svg" viewBox="0 0 170.45 186.41"><defs><style>.cls-1{fill:#00cbf4;}</style></defs><title>了</title><g id="圖層_2" data-name="圖層 2"><g id="內文"><path class="cls-1" d="M29.52,35.88C16.9,33.64,9.46,32.72,0,31.84L5.65,0A280.7,280.7,0,0,0,34.56,6.33l96.89,17.18c10.87,1.93,18.51,2.88,23.89,3l15.11,24.31c-4.92,2.93-4.92,2.93-23.37,15.48-15,10.16-35.16,21-58,31L76.66,167.59c-1.48,8.35-5.11,14.12-10.78,16.72-6.09,2.72-14.52,2.83-29.85.11-6-1.07-12.39-2.4-25.69-5.36.26-12.77-.23-21.27-2.63-33.71,13.08,4.13,21.3,6.38,29.06,7.76,7.19,1.27,9.72.52,10.38-3.17l11.77-66.4a145.51,145.51,0,0,0,2.51-19.78l22.71,4c11.62-4.55,19.81-8.91,31.59-16.63Z"/></g></g></svg>