<svg xmlns="http://www.w3.org/2000/svg" viewBox="0 0 139.98 141.78"><defs><style>.cls-1{fill:#ff1a83;}</style></defs><title>刻</title><g id="圖層_2" data-name="圖層 2"><g id="內文"><path class="cls-1" d="M79.67,48.91a17.11,17.11,0,0,0-2.25,2.85A239.88,239.88,0,0,1,54.91,78.17c-13.2,13-24.75,21.3-40.66,28.8A73,73,0,0,0,0,88.22C12.75,83,18.3,80,27.16,73.66,20.1,66.61,14.25,62,3,54.16L17.25,37.81c3.6,2.55,4.8,3.45,7.35,5.25a40.73,40.73,0,0,0,5.86-9.9H16.05a97.69,97.69,0,0,0-12.75.6V11.85a112.19,112.19,0,0,0,15.75.75H34.81V10.5A63.11,63.11,0,0,0,34.06,0h24.3a62.62,62.62,0,0,0-.6,10.35V12.6h8.4a135.56,135.56,0,0,0,17.26-.75V33.76a137.59,137.59,0,0,0-14.56-.6H54.76A122.6,122.6,0,0,1,39.91,54.91l4.5,3.75a143.13,143.13,0,0,0,13.8-16.5c.6-1,1.65-3,3.15-5.7l19.21,11.4Zm8,33.16c-3.15,3.6-3.15,3.6-9.6,11.4-2.7,3.15-5.56,6.15-9.91,10.5a89.82,89.82,0,0,0,22.81,16.2,89.39,89.39,0,0,0-14.1,19.51,139.31,139.31,0,0,1-24.91-21.16,180.51,180.51,0,0,1-35.56,23.26A70.87,70.87,0,0,0,.9,122.72C30.31,111,52.81,93.17,70.81,67.51L87.62,79.67V27.16A137.19,137.19,0,0,0,87,12h22.8a125,125,0,0,0-.6,14.71V89.27a117.71,117.71,0,0,0,.6,15.15H87a128.7,128.7,0,0,0,.6-15.15ZM140,1.05c-.75,4.2-.9,8.4-.9,18v99.62c0,17-5.4,21.46-26.26,21.46-3.15,0-6.15-.15-14.85-.6-.75-8.55-2-13.35-5.85-22.06A159.07,159.07,0,0,0,110,118.82c5.55,0,6.6-.9,6.6-5.4V19.8c0-9.45-.15-13.8-.75-18.75Z"/></g></g></svg>