<svg xmlns="http://www.w3.org/2000/svg" viewBox="0 0 207.78 206.03"><defs><style>.cls-1{fill:#ff1a83;}</style></defs><title>態</title><g id="圖層_2" data-name="圖層 2"><g id="內文"><path class="cls-1" d="M0,186.37c11.58-13.55,16.39-22.07,22.28-39.55l27.54,10.71c-5.9,21-10.49,31-21.64,47.63ZM81.71,56.15c2.84,0,4.81,0,9-.22l-4.15-8.3c-2.18.22-2.18.22-5.9.66-10.49,1.09-29.71,2.62-54.84,4.37-5.68.43-9.17.65-19.23,1.74L4.15,26.87c5.24.66,5.9.66,17.26.66C27.75,18.35,32.77,8.74,35.61,0L68.17,4.59c-2.62,3.93-3.5,5.68-6.12,9.83A100.57,100.57,0,0,1,54,27.09c9.83-.43,10.48-.43,19.66-1.09-2.18-3.28-3.5-5-6.77-9.39L90,5.9A276.81,276.81,0,0,1,108.59,31V21a131.55,131.55,0,0,0-.88-18.35h33.65a91.54,91.54,0,0,0-.87,15.3c19.66-3.94,31.9-8.09,42.38-14.21l23.38,23c-7,1.74-7,1.74-21.19,5.89-2,.66-3.28.88-5.68,1.53,7.43,3.5,14.42,5.25,28,6.78-.88,10.27-1.75,15.29-3.5,19.44-5.46,11.58-13.77,14-50.47,14-20.1,0-28.84-.88-34.74-3.72-7.21-3.06-10-8.52-10-17.91V47.85L92.42,55.93c3.93-.43,5.24-.43,8.74-.87a185.14,185.14,0,0,0-.66,19.23v44.57c0,18.79-7.21,24-34.08,24-1.75,0-4.59,0-8.08-.22-.66-7.86-2-12.45-5-17.48a75.83,75.83,0,0,0,10.49.88c5.68,0,6.55-.66,6.55-4.37v-2H45.23v9.4c0,9,0,12.23.65,17.26H13.33a190.06,190.06,0,0,0,1.09-24V71.88c0-7.21-.22-12-.66-16.82,6.34.65,11.58,1.09,15.08,1.09Zm-11.36,26V75.6H45.23v6.55Zm0,22.07V97.66H45.23v6.56Zm41.73,33.21c-2.62-3.71-3.71-7.43-3.71-13.55V94.82a137.07,137.07,0,0,0-.87-18.57h33.64c-.43,3.94-.65,5.9-.87,11.15C156.66,85,173.7,80,182.22,75.16L203.41,98.1c-4.15.88-4.37.88-10,2.4-4.37,1.1-6.55,1.75-14,3.28,8.08,3.5,14.86,5,28.4,6.34-1.31,16.6-3.27,22.94-8.3,27.75-3.93,3.71-8.74,5.46-19.23,6.55a253.52,253.52,0,0,1,27.53,42.17l-29.06,16.6a239.62,239.62,0,0,0-15.29-31.89c-1.31,18.13-5,26.43-13.11,30.58-6.34,3.28-16.39,4.15-50,4.15-40.21,0-47-3.05-47-20.53V160.81a102.21,102.21,0,0,0-.87-14.64H86.08a54.07,54.07,0,0,0-.87,10.49v15.73c0,4.8,2.62,5.46,21,5.46,15.95,0,21.85-.87,23.82-3.71,1.31-2,2-6.56,2-14.86L109.9,173c-6.12-9.83-9.83-14.42-19-23.59Zm65.55,7.43c-8.08.65-14.64.87-26.22.87-12.67,0-19-.43-25.56-1.53a119.11,119.11,0,0,1,10.71,12.46l-2.63,1.53a103,103,0,0,0,26,7.42c-2-3.05-3.27-5-6.55-9.39ZM140.27,113.4c0,5.46,2,6.11,20.54,6.11,16.38,0,17-.65,17.48-15.29-13.77,2.84-21,3.93-38,6.12Zm.22-69.27c0,5.25,2.4,5.9,18.57,5.9,18.35,0,18.57-.21,19.66-15.73-14.85,3.5-21.63,4.81-38.23,7.43Z"/></g></g></svg>