<svg xmlns="http://www.w3.org/2000/svg" viewBox="0 0 142.68 139.38"><defs><style>.cls-1{fill:#ff1a83;}</style></defs><title>此</title><g id="圖層_2" data-name="圖層 2"><g id="內文"><path class="cls-1" d="M39.16,18.75c0-9.3-.15-13.2-.9-18.75H63c-.75,5.4-.9,9.15-.9,18.75V41.86h4a64.58,64.58,0,0,0,10.66-.6V63.31a68.15,68.15,0,0,0-10.66-.6h-4v39.16c4.65-1.05,7.8-2,15-4.05l.16,21.75A642.43,642.43,0,0,1,12.9,137c-4.65,1.05-6.45,1.5-9.45,2.4L0,114.62a36.07,36.07,0,0,0,8.55-.9V45.61c0-9.3-.15-13.2-.9-18.6h24c-.75,4.95-.9,8.85-.9,18.6v63.76l8.4-2ZM103.37,44c10.95-6.9,19-13.35,24.91-19.81L142.68,44l-5,3.75a267,267,0,0,1-34.36,21.45v44.71c0,2.55,1.2,3.3,5.1,3.3,6.3,0,9-.75,9.9-3.15,1.2-2.85,1.8-11.7,1.8-28.2a94,94,0,0,0,21.61,8.4c-1.05,21.9-2.85,31.66-7.05,37.36-4,5.7-10.06,7.2-29.11,7.2-20.85,0-24.9-3-24.9-18.46V19.05c0-9.6-.15-13.35-.9-19h24.45c-.75,5.55-.9,9.3-.9,19.05Z"/></g></g></svg>