<svg id="x輸出" xmlns="http://www.w3.org/2000/svg" viewBox="0 0 1236.7 274.55"><defs><style>.cls-1{fill:none;stroke:#ff1a83;stroke-miterlimit:10;stroke-width:2px;}</style></defs><path class="cls-1" d="M2761.82,4340c0,18.72.28,26.66,1.42,36.3h-45.37c1.13-9.08,1.7-17.58,1.7-36v-40h-54.16c-4,35.72-11.34,59.83-26.65,85.91-15.88-17-23-23-38.56-32.32,21.55-36,26.09-68.34,26.09-189.41,0-16.73-.57-28.07-1.42-38.84,10.49.85,17.58,1.13,33.74,1.13h165.3c17.58,0,26.09-.28,35.45-1.13-1.14,9.92-1.42,17.86-1.42,36.29V4346.8c0,26.37-10.78,34.59-45.08,34.59-9.64,0-19.85-.28-30.91-.85-2-15-4.54-24.38-11.34-40.83,12.47,1.13,23.53,1.7,31.47,1.7,10.21,0,12.48-1.13,12.48-6.24V4300.3h-52.74Zm-92.72-106.61c-.28,11.63-.28,14.75-.85,27.22h51.32v-27.22Zm50.47-66.06h-49.9V4194h49.9Zm95,26.65v-26.65h-52.74V4194Zm-52.74,66.63h52.74v-27.22h-52.74Z" transform="translate(-2598.83 -4113.33)"/><path class="cls-1" d="M3097,4172.71c18.14,0,28.92-.29,39.69-1.42a230.66,230.66,0,0,0-1.42,29.77c-.85,62.09-4,115.68-7.93,139.22-2.56,14.46-9.36,25.8-18.43,30.9-9.36,5.11-22.4,7.66-41.12,7.66-10.21,0-18.14-.28-36.29-1.7-2.27-20.13-5.11-32.61-11.34-47.92,17.58,2.55,27.78,3.69,38,3.69,15,0,20.42-2,23-8.51,4.54-11.34,7.37-51,7.65-107.75h-65.21c-6,50.19-17.3,82.23-38.85,111.15-15.59,20.7-37.42,38.85-68.61,56.14-10.49-18.71-18.72-29.77-32.61-42.81,35.16-15.6,57.84-33.74,72.3-57.84,11.35-18.43,17-36.58,20.42-66.64h-43.67a274.57,274.57,0,0,0-35.44,2v-47.92a291.58,291.58,0,0,0,36.86,2h44.8v-16.45c0-16.73-.57-26.09-2-34.88h53.3c-1.42,8.51-1.42,8.51-2.55,41.68,0,3.41,0,4.26-.28,9.65Z" transform="translate(-2598.83 -4113.33)"/><path class="cls-1" d="M3229.66,4209.57c-11.62,23.25-23.25,41.11-38.84,58.69-10.78-18.15-15-23.25-28.36-36.86,26.09-25.52,47.35-70.32,49.62-105.2l44.24,10.5c-3.41,9.64-3.41,9.64-5.68,17.29-1.41,5.67-2.83,9.93-4.82,16.16h34v-13c0-17.3-.57-28.35-1.7-38h48.48c-1.41,9.92-1.7,19.56-1.7,38v13h49.34c16.73,0,30.62-.56,44.23-1.7v42.82c-14.18-1.14-27.5-1.7-42.81-1.7h-50.76v42.53h41.68a391.26,391.26,0,0,0,39.7-1.7v42.81c-12.76-1.13-24.39-1.7-39.41-1.7h-42v46.22h58.41a417.26,417.26,0,0,0,45.08-2v43.95c-16.16-1.42-28.07-2-43.66-2h-165.3c-16.17,0-30.34.57-46.79,2v-43.95a450.52,450.52,0,0,0,45.08,2h62.1v-46.22h-35.16c-15,0-26.65.57-38.84,1.7v-42.53c11.05,1.13,20.69,1.42,38,1.42h36v-42.53Z" transform="translate(-2598.83 -4113.33)"/><path class="cls-1" d="M3500.44,4258.33c-20.7-16.72-32.32-24.66-53.87-37.14l24.39-32.61c21.26,11.06,32.89,18.15,51.88,32.33v-27.79a284.61,284.61,0,0,0,33.74,1.7h36v-23.25c-17.58,2-28.92,2.55-51.88,3.69-3.41-15.6-6.53-23.54-14.46-38,40.83-1.13,79.39-5.1,112.84-11.62,22.69-4.26,28.93-6,40-11.06l28.36,39.13a51.74,51.74,0,0,1-5.67,1.13c-17,4.54-36.86,7.94-65.22,11.91v28.07h43.38a283.05,283.05,0,0,0,34-1.7v43.67c-8.51-1.14-19-1.71-33.74-1.71h-43.67v26.09h40.27a228.63,228.63,0,0,0,23.25-.85,236.13,236.13,0,0,0-1.14,25.23v66.92c0,11.91.57,22.12,1.42,30.62h-44.8v-11.91H3575.3v11.91h-43.38c.56-9.64,1.13-21.26,1.13-30.9v-68c0-8.51-.28-17-.85-23.82,6.8.57,13.33.85,24.1.85h36.29v-26.09h-35.72a287.39,287.39,0,0,0-34,1.71v-12.2Zm22.4,30.63c-8.5,27.22-14.17,42.81-23.81,64.93-.86,1.7-5.39,11.34-14.18,28.64l-37.71-31.48c13-15.88,26.37-44.51,40.54-86.48Zm-42.24-172.68c23.53,14.74,32.32,21,51.6,36.86l-26.09,34c-19-17-30.05-25.24-52.17-39.42Zm95,215.77h80.24v-32.32h-80.24Z" transform="translate(-2598.83 -4113.33)"/><path class="cls-1" d="M3765,4284.14c27.22,19.28,45.65,36.57,69.18,63.51l-36,36.58c-21.26-27.22-38.28-44.52-66.91-67.49Z" transform="translate(-2598.83 -4113.33)"/><path class="cls-1" d="M2761.82,4340c0,18.72.28,26.66,1.42,36.3h-45.37c1.13-9.08,1.7-17.58,1.7-36v-40h-54.16c-4,35.72-11.34,59.83-26.65,85.91-15.88-17-23-23-38.56-32.32,21.55-36,26.09-68.34,26.09-189.41,0-16.73-.57-28.07-1.42-38.84,10.49.85,17.58,1.13,33.74,1.13h165.3c17.58,0,26.09-.28,35.45-1.13-1.14,9.92-1.42,17.86-1.42,36.29V4346.8c0,26.37-10.78,34.59-45.08,34.59-9.64,0-19.85-.28-30.91-.85-2-15-4.54-24.38-11.34-40.83,12.47,1.13,23.53,1.7,31.47,1.7,10.21,0,12.48-1.13,12.48-6.24V4300.3h-52.74Zm-92.72-106.61c-.28,11.63-.28,14.75-.85,27.22h51.32v-27.22Zm50.47-66.06h-49.9V4194h49.9Zm95,26.65v-26.65h-52.74V4194Zm-52.74,66.63h52.74v-27.22h-52.74Z" transform="translate(-2598.83 -4113.33)"/><path class="cls-1" d="M3097,4172.71c18.14,0,28.92-.29,39.69-1.42a230.66,230.66,0,0,0-1.42,29.77c-.85,62.09-4,115.68-7.93,139.22-2.56,14.46-9.36,25.8-18.43,30.9-9.36,5.11-22.4,7.66-41.12,7.66-10.21,0-18.14-.28-36.29-1.7-2.27-20.13-5.11-32.61-11.34-47.92,17.58,2.55,27.78,3.69,38,3.69,15,0,20.42-2,23-8.51,4.54-11.34,7.37-51,7.65-107.75h-65.21c-6,50.19-17.3,82.23-38.85,111.15-15.59,20.7-37.42,38.85-68.61,56.14-10.49-18.71-18.72-29.77-32.61-42.81,35.16-15.6,57.84-33.74,72.3-57.84,11.35-18.43,17-36.58,20.42-66.64h-43.67a274.57,274.57,0,0,0-35.44,2v-47.92a291.58,291.58,0,0,0,36.86,2h44.8v-16.45c0-16.73-.57-26.09-2-34.88h53.3c-1.42,8.51-1.42,8.51-2.55,41.68,0,3.41,0,4.26-.28,9.65Z" transform="translate(-2598.83 -4113.33)"/><path class="cls-1" d="M3229.66,4209.57c-11.62,23.25-23.25,41.11-38.84,58.69-10.78-18.15-15-23.25-28.36-36.86,26.09-25.52,47.35-70.32,49.62-105.2l44.24,10.5c-3.41,9.64-3.41,9.64-5.68,17.29-1.41,5.67-2.83,9.93-4.82,16.16h34v-13c0-17.3-.57-28.35-1.7-38h48.48c-1.41,9.92-1.7,19.56-1.7,38v13h49.34c16.73,0,30.62-.56,44.23-1.7v42.82c-14.18-1.14-27.5-1.7-42.81-1.7h-50.76v42.53h41.68a391.26,391.26,0,0,0,39.7-1.7v42.81c-12.76-1.13-24.39-1.7-39.41-1.7h-42v46.22h58.41a417.26,417.26,0,0,0,45.08-2v43.95c-16.16-1.42-28.07-2-43.66-2h-165.3c-16.17,0-30.34.57-46.79,2v-43.95a450.52,450.52,0,0,0,45.08,2h62.1v-46.22h-35.16c-15,0-26.65.57-38.84,1.7v-42.53c11.05,1.13,20.69,1.42,38,1.42h36v-42.53Z" transform="translate(-2598.83 -4113.33)"/><path class="cls-1" d="M3500.44,4258.33c-20.7-16.72-32.32-24.66-53.87-37.14l24.39-32.61c21.26,11.06,32.89,18.15,51.88,32.33v-27.79a284.61,284.61,0,0,0,33.74,1.7h36v-23.25c-17.58,2-28.92,2.55-51.88,3.69-3.41-15.6-6.53-23.54-14.46-38,40.83-1.13,79.39-5.1,112.84-11.62,22.69-4.26,28.93-6,40-11.06l28.36,39.13a51.74,51.74,0,0,1-5.67,1.13c-17,4.54-36.86,7.94-65.22,11.91v28.07h43.38a283.05,283.05,0,0,0,34-1.7v43.67c-8.51-1.14-19-1.71-33.74-1.71h-43.67v26.09h40.27a228.63,228.63,0,0,0,23.25-.85,236.13,236.13,0,0,0-1.14,25.23v66.92c0,11.91.57,22.12,1.42,30.62h-44.8v-11.91H3575.3v11.91h-43.38c.56-9.64,1.13-21.26,1.13-30.9v-68c0-8.51-.28-17-.85-23.82,6.8.57,13.33.85,24.1.85h36.29v-26.09h-35.72a287.39,287.39,0,0,0-34,1.71v-12.2Zm22.4,30.63c-8.5,27.22-14.17,42.81-23.81,64.93-.86,1.7-5.39,11.34-14.18,28.64l-37.71-31.48c13-15.88,26.37-44.51,40.54-86.48Zm-42.24-172.68c23.53,14.74,32.32,21,51.6,36.86l-26.09,34c-19-17-30.05-25.24-52.17-39.42Zm95,215.77h80.24v-32.32h-80.24Z" transform="translate(-2598.83 -4113.33)"/></svg>