<svg xmlns="http://www.w3.org/2000/svg" viewBox="0 0 245.41 235.49"><defs><style>.cls-1{fill:#00cbf4;}</style></defs><title>積</title><g id="圖層_2" data-name="圖層 2"><g id="內文"><path class="cls-1" d="M129.8,188.63c-6.79,1.14-12,2.23-18.5,3.55a180.31,180.31,0,0,0-2.37-19.86l-6.4-38.5c-3.44,10.12-4.69,15.21-7,27.93a108.8,108.8,0,0,1-17-16.95c1.32,5.14,2.6,11.44,3.73,18.23l6.56,39.41c2.26,13.59,3.58,20.12,5.69,27.21l-35.1,5.84a242.4,242.4,0,0,0-3.17-27.4L52.69,186.8c-1.43-8.6-2.15-14.3-2.9-21.62-2.12,12.45-5.78,22.6-11.94,34.57a132.48,132.48,0,0,0-19.46-31.68c9.93-14.45,17.63-36.68,19.49-56.3L30,113.09a76.72,76.72,0,0,0-15,3.65L9.39,83.22a86.41,86.41,0,0,0,16.3-1.31L35,80.36,32.34,64.51c-5.25,2-8.3,3.24-16.23,6C10.68,58.81,7.43,53.29,0,42.2c27.67-8.57,52.58-19.69,61.94-27.77L83.71,39,81.27,24.25c6.94-.22,13.55-1.09,23.51-2.75L125.84,18c-1-6.12-1.69-8.8-3.2-12.27L157.06,0c-.38,3.32-.08,6.53.94,12.64l24.69-4.1a181.26,181.26,0,0,0,23.36-5.06l4,24a183.15,183.15,0,0,0-21,2.56l-27.4,4.56.94,5.66L188.42,36c8.15-1.36,12-2.23,17.77-3.66l3.25,19.48c-5.55.22-8,.64-18,2.3l-25.82,4.29,1,6.12L199,59.12a178.81,178.81,0,0,0,20.91-4.41L224,79.16a193.91,193.91,0,0,0-21.21,2.6l-91.95,15.3a180.22,180.22,0,0,0-20,4.26L86.76,76.87a172.68,172.68,0,0,0,20.31-2.45l27.4-4.56-1-6.12-23.77,4c-9.52,1.58-12.23,2-17.56,3.62L88.88,51.84c5.74-.49,9.85-.94,17.78-2.26l23.78-3.95L129.5,40l-23.78,4a180.15,180.15,0,0,0-20.46,4.34l-1.32-7.93a5.33,5.33,0,0,0-2.11,1.28c-5.74,3.28-9.4,5.06-18.2,9.55l4,23.78,3.17-.53a111,111,0,0,0,11.59-3.09l5.5,33.06c-4.91-.11-6.27.11-12.61,1.17l-2,.34c10.64,12.19,16.6,17.25,28.79,24.76l-1.43-8.6c-1.66-10-2-12.23-3.36-17.36,4.57-.53,7.51-1,17.7-2.72l80.4-13.38c11.32-1.88,14-2.33,18.72-3.58.15,5.1.6,9.21,2.26,19.18l8.14,48.91c1.66,10,2.68,14.69,4.19,19.56-9.36,1.09-11.63,1.47-18.42,2.6l-5,.83c13.48,2.64,24.08,3.44,40.2,2.38a147.58,147.58,0,0,0-11.56,29.86c-25.93-2-38.57-5.22-57.93-15.27L187.78,179l-38.73,6.44,16.23,9.4c-15,16-25.49,23.1-49.42,33.13A111.09,111.09,0,0,0,96.92,205c17-5.39,25.67-9.39,36.73-17Zm4-64,51.41-8.55-1-6.12-51.41,8.56Zm3.43,20.61,51.41-8.56-1-5.88-51.41,8.55Zm3.5,21.06,51.41-8.55-1.09-6.57-51.41,8.55Z"/></g></g></svg>