<svg xmlns="http://www.w3.org/2000/svg" viewBox="0 0 208.15 204.28"><defs><style>.cls-1{fill:#ff1a83;}</style></defs><title>變</title><g id="圖層_2" data-name="圖層 2"><g id="內文"><path class="cls-1" d="M28,82.66c-2.15,15.28-5.38,26.05-11.62,37.88A79.67,79.67,0,0,0,0,107.84c6-9,8.61-16.57,10.12-29.27ZM162.09,149a113.88,113.88,0,0,1-21.31,19.37,326.84,326.84,0,0,0,56.4,4.74h9.25c-6.46,9.68-9.9,17.86-13.13,30.56-27.12-1.93-36.81-3.22-53.17-6.67a211.55,211.55,0,0,1-35.3-9.9c-25.19,9-53.38,14.42-90.84,17.22-3.44-11.84-6.67-19.16-12.27-28.41H6c21.52,0,46.71-2.37,65-6a105.1,105.1,0,0,1-17-13.56c-10.55,6.46-17,9.25-31.64,14.42a111.83,111.83,0,0,0-17.87-26c25-4.09,51.45-19.15,60.92-34.44L76.63,113V91.92a100.16,100.16,0,0,0-.43-10.55,79.91,79.91,0,0,0,11,.43h32.5c4.95,0,7.75-.22,11-.43-.43,2.15-.43,3.87-.43,10.55v13.77c4.31-6.89,6.67-14.21,8.18-27.12l17.22,3.87c-2.37,17-4.95,26.05-10.55,37.24a91.63,91.63,0,0,0-14.85-11.41c0,7.32,0,8.18.43,10.12-3.66-.21-7.1-.43-11-.43h-23c-1.72,2.15-1.72,2.15-6,7.1h84.6c16.79,0,20.88-.21,25.62-.64v25.4c-7.32-.86-9.48-.86-22.82-.86ZM2.8,55.54c5,.64,7.1.64,14.42.64,3.44-2.8,3.66-3,6.67-5.59A155.69,155.69,0,0,0,3.23,29.92L17.65,13.35c2.37,2.15,3.23,2.79,5.17,4.73C28.2,11.41,31.43,6.46,34,0L52.09,11a40.63,40.63,0,0,1-3,4.3c-4.31,5.38-9,11-13.56,15.93,1.93,2.37,2.37,2.8,3.66,4.31C48,26.05,52.31,20.45,54.46,15.93L71,27.12V23.46c2.8.43,4.53.43,11.2.43h45a74.89,74.89,0,0,0,9.25-.43v.22l9.47-10.76,5,4.73A54.28,54.28,0,0,0,162.09,0l18.08,11-1.94,2.58A208.28,208.28,0,0,1,163.6,31c1.5,1.72,1.5,1.72,3.87,4.73,8.18-9,13.56-15.93,15.28-19.8L200.4,27.55a42.75,42.75,0,0,0-5.59,5.38C188.13,40,176.08,51.66,170.7,55.54c7.1-.22,9-.43,14.64-.86-1.08-3-1.73-4.52-3.45-8.4l14.64-4.09a139.72,139.72,0,0,1,11.41,32.29l-10.12,3c2.15,14,4.31,20,10.33,28.63a82.6,82.6,0,0,0-16.36,12.7c-6-11.41-8.82-20.23-11.62-38.53l11.41-2.58c-.65-3.23-.65-3.23-1.08-5.6-5.38.65-5.38.65-11.41,1.29v32.08c0,8.39.22,11.62.87,14.85H155.63c.65-3.88.86-7.53.86-14.85V75.13c-11.62.64-18.72,1.07-21.31,1.5L132,55.54a85.24,85.24,0,0,0,10.12.64h3.23c3.44-2.8,3.66-3,6.67-5.59a163,163,0,0,0-15.5-16.36v7.31a88.59,88.59,0,0,0-11.62-.43H82c-5.38,0-7.75.22-11,.43V28.41c-.86.87-1.29,1.3-9.68,10.12-2.15,2.37-4.31,4.52-8,8l13.56-4.09a148.22,148.22,0,0,1,11,31.21V63.29a73.38,73.38,0,0,0,10.55.43h30.78a68.77,68.77,0,0,0,10.55-.43V77.71c-4.52-.22-7.1-.43-10.55-.43H88c-2.15,0-5.6.21-10.12.43V74.48L67.38,77.71a180.87,180.87,0,0,1,8.39,26.47l-17,6c-2.16-12-2.8-14.64-7.32-28.63v24.54c0,8.18.21,11.41.86,14.64H28a88.16,88.16,0,0,0,.86-14.64v-31c-3,.21-3,.21-12.27.64A51.62,51.62,0,0,0,5.81,76.85Zm39.82.21c7.1-.43,8.4-.43,13.78-.86-1.08-2.8-1.08-3-3.45-8.18A123.33,123.33,0,0,1,42.62,55.75Zm8.83,25.83,11.19-3c-.43-2.8-.65-3.66-1.08-6-6.24.65-6.24.65-10.11,1.08ZM77.06,3.44a80.43,80.43,0,0,0,11.19.65h32.29a76.06,76.06,0,0,0,10.77-.65V19.8c-5-.21-7.32-.43-10.77-.43H87.83c-2.8,0-7.32.22-10.77.43Zm.86,41.76c3.23.22,6,.43,10.55.43h30.78c5,0,7.75-.21,10.55-.43V59.63c-3.66-.22-7.1-.43-10.55-.43H88c-3.23,0-6.67.21-10.12.43ZM85,147a106.41,106.41,0,0,0,20.88,11.41A84.88,84.88,0,0,0,124.42,147Zm11.62-44.34h14V95.36h-14Z"/></g></g></svg>