<svg xmlns="http://www.w3.org/2000/svg" viewBox="0 0 906.4 222.67"><defs><style>.cls-1{fill:#ff1aff;}</style></defs><title>執著-2</title><g id="圖層_2" data-name="圖層 2"><g id="內文"><path class="cls-1" d="M302.13,180.25c-6.59-6.12-6.59-6.12-16.94-13.9-14.59,21.92-32.47,37.23-64.94,56.32-24-14.38-31.06-17.91-53.65-25.45,11.76-5.66,16-7.78,23.06-12.25h-4.24c-5.65-.24-17.88-.47-28.24-.47H136v11.07c0,13,.47,18.14,2.82,26.15h-72c2.35-8,2.82-13.66,2.82-26.15V184.5H55.53c-20.23,0-32.94.23-46.59,1.17v-33c13.65.7,24,.94,43.3.94H69.65V141.14H44.24c-19.77,0-29.65.24-44.24,1.18v-33c10.35.71,19.29.94,35.3.94a86.17,86.17,0,0,0-10.36-20c-9.41.23-15.06.47-24.94.94v-33c13.65.94,24.47,1.18,46.59,1.18H69.65V48.3H53.18c-23.06,0-29.18,0-43.3.71V16.49c13.65,1,24,1.18,45.18,1.18H69.65V15.55c0-5.18-.94-9.89-2.35-15.55h71.06A57.92,57.92,0,0,0,136,15.55v2.12h16.47c17.41,0,29.65-.23,43.3-1.18V49c-15.06-.71-18.83-.71-43.3-.71H136V59.38h21.17c24.48,0,31.54-.24,43.77-.94V91.19c-8-.47-8-.47-17.88-.71a167.72,167.72,0,0,1-10.83,19.79c7.53,0,16-.23,19.77-.23L225.89,87l17.89,9c.94-5.65,1.88-13.9,2.35-20.5-21.65.24-26.35.47-33.88.94V40.76c8,1,16.94,1.18,35.29,1.42.47-10.37.47-10.37.47-16,0-15.08-.47-19.79-2.82-26.15H318.6a71.85,71.85,0,0,0-2.82,21.44V42.18H361.9c20.71,0,29.65-.24,40.94-.71-.94,4.48-1.41,9.66-2.35,21.21L393,186.14c0,2.36,0,2.36,5.18,3.07,8.47,0,9.41-4.71,10.82-44.3,13.65,5.18,19.3,6.83,37.18,9.66-4.23,61-8.94,65.74-64.94,65.74-41.42,0-53.65-4.71-53.65-20.26v-1.89l2.35-39.58Zm-216.95-90a104.57,104.57,0,0,1,8.94,20h18.36a197.4,197.4,0,0,0,9.88-20Zm115.3,87.41c15.06-11.78,26.35-26.39,32.47-41-15.53-9.42-15.53-9.42-26.82-16v21.68c-15.06-.94-24.47-1.18-44.24-1.18H136v12.49h21.17c16.95,0,28.71-.24,43.3-1.18ZM310.6,75.17c-2.35,32.28-2.35,32.28-7.06,49.24,9.42,6.13,19.77,13.2,27.3,18.85l4.24-68.09Z"/><path class="cls-1" d="M532.74,120.17c-26.36,0-42.83.47-60.71,1.41V91.19c16.94.94,33.41,1.41,60.71,1.41H636.27V83.41H573.68c-24.47,0-39.06.24-54.59.94V55.84c14.12.95,27.29,1.18,55.06,1.18H635.8c0-3.53,0-4.71-.47-6.36H571.8c.94-3.77.94-5.66,1.41-10.37H529.44c-21.65,0-37.18.24-56.94,1.18V10.13c17.41.94,32.94,1.42,56.94,1.42h43.77A31.34,31.34,0,0,0,571.33,0H643.8a48.54,48.54,0,0,0-1.41,11.55h86.12A35.17,35.17,0,0,0,727.1,0h72.47a29.79,29.79,0,0,0-1.88,11.55h51.77c24.94,0,40-.48,56.94-1.42V41.47c-20.23-.94-35.76-1.18-56.94-1.18H797.69c.47,4,.47,7.07,1.88,10.37h-72l.47-1.89a40.88,40.88,0,0,0,.47-8.48H642.39c0,4.24,0,4.24.47,6.83h65.41a32.52,32.52,0,0,0-1.41,9.9h34.36c26.35,0,37.18-.23,50.82-1.18V71.39c18.36-8.48,32-16.25,39.54-22.62l64,16.73c-3.3,1.65-3.3,1.65-23.06,11.08-11.77,5.89-21.18,9.89-35.3,16h12.24c27.76,0,40-.23,55.53-1.18v30.16c-18.35-.94-34.35-1.41-61.18-1.41H746.39c-10.82,3.3-15.53,5-26.82,8H820.75c25.41,0,33.88-.23,41.88-.71-1.41,4.95-1.88,11.31-1.88,22.86V197c0,11.08.47,17.2,2.36,24.51H791.57v-8H621.21v8h-72c1.88-6.83,2.82-13.2,2.82-24.51V168.71c-20.71,3.3-29.65,4.71-55.53,8.25-10.35-13.44-18.83-20.74-35.3-31.34a1239.35,1239.35,0,0,0,176-25.45ZM643.8,151c-6.59,1.65-8.47,1.88-22.12,4.71v3.3H791.57v-8Zm-22.12,37.7H791.57v-8.25H621.68ZM738.39,92.6c11.3-4,15.06-5.42,24.48-9.19h-56V92.6Z"/></g></g></svg>