<svg xmlns="http://www.w3.org/2000/svg" viewBox="0 0 1109.48 272.56"><defs><style>.cls-1{opacity:0.7;}.cls-2{fill:#00e1ff;}</style></defs><title>執著_2</title><g id="圖層_2" data-name="圖層 2"><g id="內文"><g class="cls-1"><path class="cls-2" d="M369.82,220.64c-8.06-7.5-8.06-7.5-20.73-17-17.86,26.82-39.75,45.57-79.5,68.93-29.38-17.6-38-21.92-65.67-31.15,14.4-6.92,19.59-9.52,28.23-15H227c-6.91-.29-21.89-.58-34.56-.58H166.48v13.56c0,15.86.57,22.21,3.45,32H81.8c2.88-9.8,3.46-16.72,3.46-32V225.83H68c-24.77,0-40.32.29-57,1.45V186.9c16.7.86,29.37,1.15,53,1.15H85.26V172.76H54.15c-24.19,0-36.29.29-54.15,1.45V133.83c12.67.86,23.62,1.15,43.2,1.15a105,105,0,0,0-12.67-24.51C19,110.75,12.1,111,0,111.62V71.24c16.71,1.15,30,1.44,57,1.44H85.26V59.13H65.09c-28.22,0-35.71,0-53,.86V20.19c16.7,1.15,29.38,1.44,55.3,1.44H85.26V19c0-6.35-1.16-12.12-2.88-19h87a70.8,70.8,0,0,0-2.88,19v2.59h20.16c21.31,0,36.29-.29,53-1.44V60c-18.44-.86-23-.86-53-.86H166.48V72.68H192.4c30,0,38.6-.29,53.57-1.15v40.09c-9.79-.58-9.79-.58-21.89-.87A204.26,204.26,0,0,1,210.83,135c9.22,0,19.59-.29,24.2-.29l41.47-28.26,21.89,11c1.16-6.92,2.31-17,2.88-25.1-26.49.29-32.25.58-41.47,1.16V49.9c9.79,1.15,20.74,1.44,43.2,1.73.58-12.69.58-12.69.58-19.62,0-18.45-.58-24.22-3.46-32H390a87.68,87.68,0,0,0-3.46,26.25V51.63H443c25.35,0,36.29-.29,50.12-.87-1.15,5.48-1.73,11.83-2.88,26L481,227.85c0,2.89,0,2.89,6.34,3.75,10.37,0,11.52-5.77,13.25-54.22,16.7,6.34,23.62,8.36,45.51,11.82-5.19,74.71-11,80.47-79.5,80.47-50.69,0-65.67-5.76-65.67-24.8v-2.31l2.88-48.45ZM104.27,110.47c4.6,7.49,8.64,17.59,10.94,24.51h22.47a244.19,244.19,0,0,0,12.09-24.51Zm141.13,107c18.43-14.42,32.26-32.3,39.75-50.19-19-11.53-19-11.53-32.84-19.61v26.54c-18.43-1.16-29.95-1.45-54.15-1.45H166.48v15.29H192.4c20.74,0,35.14-.29,53-1.44ZM380.19,92c-2.88,39.51-2.88,39.51-8.64,60.28,11.52,7.5,24.2,16.15,33.41,23.07L410.15,92Z"/><path class="cls-2" d="M652.09,147.09c-32.26,0-52.42.58-74.31,1.74V111.62c20.74,1.15,40.9,1.73,74.31,1.73H778.82V102.1H702.21c-30,0-47.81.29-66.82,1.15V68.36c17.28,1.15,33.41,1.44,67.4,1.44h75.46c0-4.33,0-5.77-.58-7.79H699.91c1.15-4.61,1.15-6.92,1.72-12.69H648.06c-26.5,0-45.51.29-69.7,1.44V12.4c21.31,1.16,40.32,1.73,69.7,1.73h53.57A38.27,38.27,0,0,0,699.33,0H788a59.39,59.39,0,0,0-1.73,14.13H891.73A42.93,42.93,0,0,0,890,0h88.71a36.35,36.35,0,0,0-2.3,14.13h63.36c30.53,0,49-.57,69.71-1.73V50.76c-24.77-1.15-43.78-1.44-69.71-1.44H976.41c.57,4.9.57,8.65,2.3,12.69H890.58l.57-2.31c.58-3.75.58-4.32.58-10.38H786.31c0,5.19,0,5.19.58,8.36H867a39.77,39.77,0,0,0-1.73,12.12h42c32.26,0,45.51-.29,62.22-1.44v19C992,77,1008.67,67.49,1017.88,59.7l78.35,20.48c-4,2-4,2-28.23,13.56-14.4,7.21-25.92,12.11-43.2,19.61h15c34,0,49-.29,68-1.44v36.92c-22.47-1.16-42-1.74-74.89-1.74H913.62c-13.25,4-19,6.06-32.84,9.81h123.85c31.11,0,41.48-.29,51.27-.86-1.72,6.05-2.3,13.84-2.3,28v57.11c0,13.56.58,21.06,2.88,30H968.92v-9.81H760.39v9.81H672.25c2.31-8.37,3.46-16.16,3.46-30V206.51c-25.35,4-36.29,5.77-68,10.09-12.68-16.44-23-25.38-43.21-38.36,76-5.76,140.56-15,215.45-31.15ZM788,184.88c-8.06,2-10.37,2.31-27.07,5.77v4H968.92v-9.8ZM761,231H968.92v-10.1H761ZM903.83,113.35c13.82-4.9,18.43-6.63,29.95-11.25H865.23v11.25Z"/></g></g></g></svg>