<svg xmlns="http://www.w3.org/2000/svg" viewBox="0 0 1576.66 731.07"><defs><style>.cls-1{isolation:isolate;}.cls-2{mix-blend-mode:lighten;}.cls-3{fill:#ff1a83;}</style></defs><title>執著-3</title><g class="cls-1"><g id="圖層_2" data-name="圖層 2"><g id="內文"><g class="cls-2"><path class="cls-3" d="M571.72,556.67c-14-7.58-14-7.58-35.09-16.32-15.3,43.88-39.14,77.94-86.27,124.85-47.36-14-61-17-102.92-19.91,17.63-14.84,23.94-20.33,34-31.09l-7.24,1.86c-9.76,2.08-30.79,7.06-48.49,11.61L289.54,637l4.87,18.94c5.7,22.15,8.79,30.81,16.34,43.47L187.64,731.07c.49-14.73-1.19-24.61-6.68-46l-4.87-18.93L152,672.39c-34.6,8.9-56.22,14.89-79.14,22.51L58.3,638.49c23.64-4.79,41.45-8.94,74.44-17.43l29.77-7.66L157,592.05l-43.45,11.18C79.77,611.92,63,616.67,38.45,624.7L23.94,568.3c18-3.35,33.4-6.88,60.76-13.91-8-11.25-13.12-17.68-26.51-29.69-16,4.54-25.54,7.42-42.23,12.58L1.45,480.88c23.75-4.4,42.36-8.75,80.18-18.48l39.42-10.15-4.87-18.93L88,440.56C48.59,450.71,38.13,453.4,14.3,460.82L0,405.22c23.75-4.39,41.56-8.54,77.76-17.86L102.71,381l-.93-3.63c-2.28-8.86-6-16.51-10.87-25.55l121.5-31.26c-.13,9.48.44,18.36,2.82,27.62l.93,3.63,28.17-7.25c29.77-7.66,50.58-13.44,73.5-21.06l14.31,55.6c-26.06,5.42-32.5,7.07-74.34,17.84l-28.16,7.24,4.87,18.94,36.21-9.32c41.84-10.76,53.81-14.27,74.41-20.86l14.41,56c-13.89,2.71-13.89,2.71-30.89,6.65a295,295,0,0,1-9.8,38.61c12.88-3.32,27.26-7.44,33.69-9.1l47.78-54.39,34.52,7.45c-.88-10.09-2.9-24.6-5-36.09-36.91,9.93-44.85,12.4-57.52,16.52l-15.65-60.83c14.1-1.91,29.49-5.44,61-13.11-3.75-17.94-3.75-17.94-6.24-27.6-6.63-25.79-9.51-33.64-16.33-43.48l125.52-32.29c-.31,12.1.67,22.59,4.61,37.9l9.12,35.45,78.85-20.29c35.41-9.1,50.59-13.44,69.7-19.21.35,8.06,1.83,17.14,5.3,37.29L729.6,526.79c1,4,1,4,10.2,3,14.49-3.73,14-12.2-1-80.5,25.62,2.86,36,3.19,67.82.16,19.6,106.21,13.63,116.33-82.12,141-70.81,18.21-93.81,15.54-100.65-11-.1-.4-.41-1.61-.83-3.22l-13.39-68.72ZM161.18,498.2c9.13,8.82,18.4,21.47,24.1,30.31l31.38-8.07c2.65-9.71,6.66-27.49,8.09-38.59ZM396.77,597c20.57-26.77,33.45-56.72,37.49-84.39-30.7-9.28-30.7-9.28-52.91-15.59L390.88,534c-26.16,5-42.36,8.75-76.15,17.45l-44.26,11.38L276,584.21l36.21-9.31c29-7.45,49-13,73.51-21.06ZM540,373.26c10.18,56.23,10.18,56.23,9.6,87.31,18.78,6.33,39.6,13.86,55,20.22L581.82,362.5Z"/><path class="cls-3" d="M939.57,352.5c-45.06,11.59-73,19.64-103.18,29.12l-13.37-52c29.38-5.84,57.75-12.28,104.42-24.28l177-45.55-4-15.71-107,27.53c-41.84,10.77-66.68,17.59-92.92,25.63l-12.54-48.75c24.55-4.6,47.19-10,94.66-22.2L1088,199.2c-1.56-6-2.07-8.06-3.6-10.67L975.78,216.47c0-6.86-.88-10.08-2.15-18.34L898.8,217.38c-37,9.52-63.46,16.75-96.84,27.06l-13.79-53.58c30.19-6.05,57-12.08,98-22.63L961,149a55.43,55.43,0,0,0-8.3-18.92l123.92-31.87c.35,8.06.69,12.7,2.66,20.36l147.25-37.88c-1.66-6.45-3-11.69-7.49-19.13l123.91-31.87c-.75,7.06-.21,12.51,1.86,20.57l88.51-22.78c42.65-11,68.19-18.4,96.74-27.46l13.79,53.58c-35,7.29-61.67,13.72-97.88,23l-88.51,22.77c2.56,6.64,3.91,11.87,7.78,16.89L1242.12,148l0-3.43c-.54-5.45-.75-6.25-2.93-14.71L1091.91,167.7c1.87,7.25,1.87,7.25,3.81,11.47l111.85-28.77a57.26,57.26,0,0,0,1.94,17.54l58.74-15.11c45.06-11.59,63.46-16.76,86.38-24.37l6.84,26.59c27.65-22.58,47.57-41.88,57.64-56.07l116.79.46c-4.9,4.27-4.9,4.27-34.55,29.07-17.53,15.25-31.86,26.24-53.3,42.92l20.92-5.38c47.47-12.21,68.29-18,94.43-26.44l13.26,51.57c-31.79,6.46-59.36,12.69-105.22,24.49l-166.56,42.85c-17.06,10.4-24.38,15.29-42.34,25.5l173-44.51c43.45-11.18,57.84-15.3,71.31-19.63-.24,9.08,1.75,20.17,6.83,39.91l20.52,79.76c4.87,18.94,8.37,29.21,14.8,40.87l-122.3,31.46-3.53-13.7-291.28,74.94,3.53,13.7L1012.3,518.49c.21-12.51-1-23.8-5.95-43.14L993.91,427c-33.95,14.75-48.62,21.1-91.32,38.53-23.61-18.41-41.31-27.17-74.13-38C932.6,392.09,1019.4,356,1118.2,306.55ZM1143,356.42c-10.54,5.72-13.65,6.95-35.75,17.79l1.46,5.64,290.47-74.73-3.52-13.7Zm-21.24,74.19,290.48-74.73-3.63-14.1-290.47,74.73ZM1279.07,214.9c17.55-11.81,23.37-15.89,37.8-26.47L1296,193.81l-74.83,19.25,4,15.71Z"/></g></g></g></g></svg>