<svg xmlns="http://www.w3.org/2000/svg" xmlns:xlink="http://www.w3.org/1999/xlink" viewBox="0 0 222.9 449.9"><defs><style>.cls-1{fill:url(#未命名漸層_259);}</style><linearGradient id="未命名漸層_259" x1="111.45" y1="449.9" x2="111.45" gradientUnits="userSpaceOnUse"><stop offset="0" stop-color="#ff1a83" stop-opacity="0.1"/><stop offset="0.2" stop-color="#ff1a83" stop-opacity="0.06"/><stop offset="0.61" stop-color="#ff1a83" stop-opacity="0.02"/><stop offset="1" stop-color="#ff1a83" stop-opacity="0"/></linearGradient></defs><title>懼</title><g id="圖層_2" data-name="圖層 2"><g id="內文"><path class="cls-1" d="M95.43,193.89c4.71,5.65,7.54,9.41,8.48,10.83V159.07c-3.06-4.71-7.3-10.83-13.2-18.83a60.39,60.39,0,0,0,.24,6.59,176.25,176.25,0,0,0-19.56-1.41H23.8a180.17,180.17,0,0,0-19.56,1.41c.47-6.59.71-13.18.71-22.12V34.35q0-14.12-.71-22.59c4.95,1.42,8,1.42,19.56,1.42H71.39c11.79,0,14.61,0,19.8-.94-.48,6.58-.71,15.05-.71,22.11v80l4.71-36.24c1.89,2.83,4.71,7.53,8.72,14.59V46.12c0-24-.24-31.06-.71-40.47h25.69c-.47,8.94-.71,21.17-.71,39.53V95.53h6.36V56.47c0-24,0-29.18-.71-37.18H156c-.47,10.36-.7,15.54-.7,37.18V95.53h6.6V56c0-22.59,0-28.23-.48-37.18h21.68c-.47,9-.71,16-.71,37.18V95.53H189V48.94c0-23.06-.23-33.41-1.18-48.94H215.6c-.95,16.47-1.42,36.24-1.42,60.24V214.13h8.25v70.12c-7.3-2.35-13.43-2.82-26.15-2.82H162.82c-2.36,0-7.31-.47-15.08-1.42,5.18,8.95,7.07,13.18,11.78,24.48-9.43,6.58-15.32,12.23-23.56,22.58h55.13c15.55,0,24.51-.47,31.81-2.35v71.53c-7.54-1.88-16-2.82-31.81-2.82H26.15c-12.48,0-18.85.47-26.15,2.82V324.72c8.25,1.88,13.43,2.35,26.15,2.35H46.89l-4.71-20.23c9.19-8,12.48-10.35,21.67-16h-40a121.13,121.13,0,0,0-19.56,1.41c.47-6.59.71-13.18.71-22.12V179.77c0-9.41-.24-16.94-.71-22.12,6.6.47,11.55.95,19.56.95H71.39c12.49,0,15.79,0,19.8-.48-.48,6.12-.71,14.12-.71,21.65v51.3Zm-66-98.36V64.47H23.8V95.53Zm0,144V208.48H23.8v31.06ZM50,95.53V64.47H44.53V95.53Zm0,144V208.48H44.53v31.06ZM107,449.9c-17-8-31.57-10.82-54.9-10.82H46l4.94-37.65c27.34.47,44.3,3.3,63.39,11.3ZM90.48,269.66c0,9.88.23,16.47.47,22.59a46.37,46.37,0,0,0-10.37-.94L87,313.9c-11.79,3.29-18.85,6.59-29.46,13.17h68.57c-10.6-30.58-22.62-52.23-35.58-66.35ZM70.92,239.54V208.48H65v31.06Zm0-144V64.47H65.27V95.53Zm63.86,61.65h-6.6v56.95h6.6Zm27.33,56.95V157.18h-6.83v56.95Zm26.86,0V157.18h-6.83v56.95Z"/></g></g></svg>