<svg xmlns="http://www.w3.org/2000/svg" xmlns:xlink="http://www.w3.org/1999/xlink" viewBox="0 0 226.91 446.14"><defs><style>.cls-1{isolation:isolate;}.cls-2{mix-blend-mode:multiply;fill:url(#未命名漸層_28);}</style><linearGradient id="未命名漸層_28" x1="113.45" y1="446.14" x2="113.45" gradientUnits="userSpaceOnUse"><stop offset="0" stop-color="#00cbf4" stop-opacity="0.5"/><stop offset="0.49" stop-color="#00cbf4" stop-opacity="0.44"/><stop offset="1" stop-color="#00cbf4" stop-opacity="0.4"/></linearGradient></defs><title>無</title><g class="cls-1"><g id="圖層_2" data-name="圖層 2"><g id="內文"><path class="cls-2" d="M61,367.55c4.47,9.88,6.83,16,13.43,33.41C63.38,416,57,426.84,49.25,446.14c-13.44-40-25-64.47-38.88-82.83A57.85,57.85,0,0,0,0,352.49l6.12-75.3c2.36,3.77,2.36,3.77,6.37,8.47A140.38,140.38,0,0,1,21.21,297V78.59c0-28.23-.48-44.24-1.42-60.24H55.14c-1,14.59-1.18,24.48-1.42,41.89H75.4V47.53c0-24-.24-32-1.18-46.59h35.35c-.95,14.12-1.18,23.53-1.18,46.59V60.24h22.38V56.47c0-24-.23-34.35-.94-44.71h34.64C163.52,24,163.29,32.94,163.29,56c12.49-20.7,16.26-25.88,42.41-56l19.79,64c-20.73,17.42-33,30.59-51.83,56l-10.37-43.3v296l12.25-49.88c23.8,19.29,34.87,32,51.37,60.24L204.76,441c-13.2-26.35-23.09-39.53-41.47-55.53v3.77c0,18.35.23,27.76,1.18,39.53H129.59c.95-12.71,1.18-23.53,1.18-46.59v-9.42H108.39V389.2c0,22.59.23,32,1.18,46.59H74.22c.94-14.59,1.18-22.59,1.18-46.59V367.55ZM75.4,123.3H53.72v22.59H75.4Zm0,104V205.19H53.72v22.12Zm0,81.41V287.07H53.72v21.65ZM130.77,123.3H108.39v22.59h22.38Zm0,104V205.19H108.39v22.12Zm0,81.41V287.07H108.39v21.65Zm94.49-112.47c-23.09,6.58-35.11,10.82-51.84,20.23l-6.83-65.41c20.5-13.65,32.51-20.24,51.36-27.3Zm.7,111.53a67.14,67.14,0,0,0-12.72-.94,196.92,196.92,0,0,0-41.47,4.23l-3.06-65.41c24.27-7.53,36-9.88,54.66-10.83Z"/></g></g></g></svg>