<svg xmlns="http://www.w3.org/2000/svg" viewBox="0 0 1856.57 227.62"><defs><style>.cls-1{isolation:isolate;}.cls-2{mix-blend-mode:color-burn;}.cls-3{fill:#ff1aff;}</style></defs><title>無所畏懼-2</title><g class="cls-1"><g id="圖層_2" data-name="圖層 2"><g id="內文"><g class="cls-2"><path class="cls-3" d="M78.59,61c-9.88,4.47-16,6.83-33.41,13.43C30.12,63.38,19.29,57,0,49.25c40-13.43,64.47-25,82.83-38.88A57.85,57.85,0,0,0,93.65,0L169,6.13c-3.77,2.35-3.77,2.35-8.47,6.36a140.38,140.38,0,0,1-11.3,8.72H367.55c28.23,0,44.24-.47,60.24-1.42V55.14c-14.59-1-24.48-1.18-41.89-1.42V75.4h12.71c24,0,32-.23,46.59-1.18v35.35c-14.12-.95-23.53-1.18-46.59-1.18H385.9v22.38h3.77c24,0,34.35-.23,44.7-.94v34.64c-12.23-.95-21.17-1.18-44.23-1.18,20.7,12.49,25.88,16.26,56,42.41l-64,19.79c-17.42-20.73-30.59-33-56-51.83l43.3-10.37h-296l49.88,12.25c-19.3,23.8-32,34.87-60.24,51.37L5.18,204.76c26.35-13.2,39.53-23.09,55.53-41.47H56.94c-18.35,0-27.76.23-39.53,1.18V129.59c12.71.95,23.53,1.18,46.59,1.18h9.42V108.39H56.94c-22.59,0-32,.23-46.59,1.18V74.22c14.59,1,22.59,1.18,46.59,1.18H78.59ZM138.36,226a67.29,67.29,0,0,0,.94-12.73,196.92,196.92,0,0,0-4.23-41.47l65.41-3.06c7.53,24.27,9.88,36,10.82,54.66ZM137.42,75.4h21.65V53.72H137.42Zm0,55.37h21.65V108.39H137.42ZM218.83,75.4H241V53.72H218.83Zm0,55.37H241V108.39H218.83Zm31.06,94.49c-6.58-23.09-10.82-35.11-20.23-51.84l65.41-6.83c13.65,20.5,20.24,32.51,27.3,51.36ZM322.84,75.4V53.72H300.25V75.4Zm0,55.37V108.39H300.25v22.38Z"/><path class="cls-3" d="M681.92,123.47c0,13,0,14.14.94,21C671.57,144.2,659.8,144,633,144H569.91c-2.82,36.52-13.64,58.9-40,82.7-21.18-13-34.82-19.32-58.82-28,12.7-12,17.88-18.61,22.58-30.63,6.59-14.37,9.42-38.64,9.42-74.46,0-18.85-.47-26.15-2.83-36.75,16,.47,27.3.7,50.83.7H633c24,0,34.82-.23,50.35-.7-.94,5.65-1.41,14.84-1.41,25.21ZM485.2,11.07c15.06.95,26.83,1.18,56.95,1.18h91.77c32,0,45.65-.23,57.88-1.18V46c-12.7-.71-28.23-1-54.12-1H537.44c-24.47,0-38.59.24-52.24,1Zm129,102.5V87.65H571.33V99.2a128.5,128.5,0,0,1-.47,14.37Zm159.54-2.83c-9.41,57-28.24,81.06-91.3,115.23C665,214.42,651.8,207.59,628.74,198.4c24.47-12,35.77-19.32,47.53-30.4,15.06-13.9,22.12-29.45,26.36-55.13,1.88-12.49,2.35-25.69,2.35-66.45,0-13-.47-17.2-1.88-23.56a975.36,975.36,0,0,0,114.36-7.07C846.63,12.25,871.58,8.25,884.28,5L917.7,39.11c-9.89,1.18-12.24,1.65-24.47,3.07C849,48.3,820.28,50.9,775.1,53.49V76.81h92.71c24.47,0,33.42-.23,47.53-1.17v36.05c-14.11-.71-20.23-1-38.59-1v85.77c0,13,.47,19.32,2.83,27.1H803.81c2.35-8.48,2.82-15.32,2.82-27.1V110.74Z"/><path class="cls-3" d="M1191.13,208.76c-53.18,5.9-121.89,11.55-196.25,16-5.18.47-16,1.18-24.94,2.12l-9.88-37c7.05.23,10.35.23,13.64.23,14.59,0,26.36-.23,46.59-1.18V142.32h-13.17c-20.24,0-38.12.47-56,1.41v-34.4c13.18.94,29.65,1.41,59.77,1.41h313.43c23.53,0,42.35-.47,57.88-1.17v34.16c-16-.94-33.88-1.41-54.12-1.41h-37.65L1354,156c-15.53,6.84-41.42,16.73-59.3,23.1a840.59,840.59,0,0,0,99.3,12.48c-15.53,13-24.47,22.39-33.41,36.06-75.3-9.19-124.25-20.74-169.42-40.3ZM993.47,32.28c0-9.42-.47-15.79-1.88-22.38,12.23.7,27.76.94,51.76.94h250.37c23.53,0,39.53-.24,51.77-.94-1.42,6.36-1.89,12.25-1.89,22.38V80.35c0,10.37.47,16,1.89,23.33-12.24-.71-27.3-1-46.12-1H1037.24c-18.36,0-33.42.24-45.65,1,1.41-6.6,1.88-13.67,1.88-23.33Zm69.18,14.61h69.65V37.7h-69.65Zm0,31.57h69.65V69.27h-69.65Zm27.76,106.74c38.12-2.12,38.12-2.12,83.3-6.12-24.47-13-35.76-21.45-48.47-36.76h-34.83Zm108.25-42.88c8.47,7.77,18.35,13.19,37.64,20.5,18.83-6.84,35.3-13.67,48.48-20.5ZM1201,46.89H1274V37.7H1201Zm0,31.57H1274V69.27H1201Z"/><path class="cls-3" d="M1406.67,110.27c8-17,10.82-31.57,10.82-54.9V49.25l37.65,4.94c-.47,27.34-3.29,44.3-11.29,63.39Zm256-11.54c-5.65,4.71-9.41,7.54-10.82,8.48h45.65c4.7-3.06,10.82-7.3,18.82-13.2a60.57,60.57,0,0,0-6.59.24,176.25,176.25,0,0,0,1.41-19.56V27.1a180.17,180.17,0,0,0-1.41-19.56c6.59.47,13.18.71,22.12.71h90.36q14.12,0,22.59-.71c-1.41,5-1.41,8-1.41,19.56V74.69c0,11.78,0,14.61.94,19.8-6.59-.48-15.06-.71-22.12-.71h-80l36.23,4.71c-2.82,1.89-7.53,4.71-14.59,8.72h46.59c24,0,31.06-.24,40.48-.71v25.69c-9-.48-21.18-.71-39.53-.71H1761v6.36h39.06c24,0,29.18,0,37.18-.71v22.15c-10.35-.47-15.53-.7-37.18-.7H1761v6.59h39.53c22.59,0,28.24,0,37.18-.47v21.68c-8.94-.47-16-.71-37.18-.71H1761v6.6h46.59c23.06,0,33.41-.23,48.94-1.18V218.9c-16.47-1-36.23-1.42-60.23-1.42H1642.45v8.25h-70.13c2.36-7.3,2.83-13.43,2.83-26.15V166.12c0-2.36.47-7.31,1.41-15.08-8.94,5.18-13.18,7.07-24.47,11.78-6.59-9.43-12.24-15.32-22.59-23.57v55.14c0,15.55.47,24.51,2.35,31.81h-71.53c1.88-7.54,2.82-16,2.82-31.81V29.45c0-12.49-.47-18.85-2.82-26.15h71.53c-1.88,8.25-2.35,13.43-2.35,26.15V50.19l20.23-4.71c8,9.19,10.36,12.48,16,21.67V27.1a119.92,119.92,0,0,0-1.42-19.56c6.59.47,13.18.71,22.12.71h90.36c9.41,0,16.94-.24,22.12-.71-.47,6.6-.94,11.55-.94,19.56V74.69c0,12.49,0,15.79.47,19.8-6.12-.48-14.12-.71-21.65-.71h-51.3Zm-75.77-5c-9.88,0-16.47.23-22.59.47,1-5.89,1-6.36,1-10.37l-22.59,6.37c-3.3-11.79-6.59-18.86-13.18-29.46v68.57c30.59-10.6,52.24-22.62,66.35-35.58Zm30.12-61h31.06V27.1H1617Zm0,20.5h31.06V47.83H1617Zm0,21h31.06V68.33H1617Zm82.36,63.86v-6.6h-56.94v6.6Zm-56.94,27.33h56.94v-6.83h-56.94Zm0,26.86h56.94v-6.83h-56.94ZM1761,32.75h31.06V27.1H1761Zm0,20.5h31.06V47.83H1761Zm0,21h31.06V68.57H1761Z"/></g></g></g></g></svg>