<svg xmlns="http://www.w3.org/2000/svg" xmlns:xlink="http://www.w3.org/1999/xlink" viewBox="0 0 217.72 442.85"><defs><style>.cls-1{fill:url(#未命名漸層_282);}</style><linearGradient id="未命名漸層_282" x1="108.86" y1="442.85" x2="108.86" gradientUnits="userSpaceOnUse"><stop offset="0" stop-color="#ff1a83" stop-opacity="0.2"/><stop offset="0.2" stop-color="#ff1a83" stop-opacity="0.16"/><stop offset="0.61" stop-color="#ff1a83" stop-opacity="0.12"/><stop offset="1" stop-color="#ff1a83" stop-opacity="0.1"/></linearGradient></defs><title>畏</title><g id="圖層_2" data-name="圖層 2"><g id="內文"><path class="cls-1" d="M22.38,400.49C13,400.49,6.6,401,0,402.37c.71-12.23.94-27.76.94-51.76V100.24C.94,76.71.71,60.71,0,48.47c6.36,1.41,12.25,1.89,22.38,1.89H70.45c10.37,0,16-.48,23.33-1.89-.71,12.24-.94,27.3-.94,46.12V356.72c0,18.36.23,33.42.94,45.65-6.6-1.41-13.67-1.88-23.33-1.88ZM37,193V120H27.8V193Zm0,138.36V261.66H27.8v69.65ZM68.57,193V120H59.38V193Zm0,138.36V261.66H59.38v69.65Zm130.3-128.48c5.89,53.18,11.55,121.89,16,196.25.47,5.18,1.18,16,2.12,24.94l-37,9.88c.23-7.06.23-10.35.23-13.64,0-14.59-.23-26.36-1.17-46.59H132.42v13.17c0,20.24.47,38.12,1.42,56H99.43c.95-13.18,1.42-29.65,1.42-59.77V69.65c0-23.53-.47-42.35-1.18-57.88h34.17c-1,16-1.42,33.88-1.42,54.12v37.65L146.09,40c6.83,15.53,16.73,41.42,23.09,59.3A840.58,840.58,0,0,0,181.67,0c13,15.53,22.38,24.47,36.05,33.41-9.19,75.3-20.74,124.25-40.29,169.42Zm-66.45-7.53c7.78-8.47,13.2-18.35,20.5-37.64-6.83-18.83-13.67-35.3-20.5-48.48Zm42.89,108.24c-2.12-38.12-2.12-38.12-6.13-83.29-13,24.47-21.44,35.76-36.76,48.47v34.82Z"/></g></g></svg>