<svg xmlns="http://www.w3.org/2000/svg" viewBox="0 0 1474.86 362.23"><defs><style>.cls-1{fill:#ff0683;}</style></defs><title>癡狂_1</title><g id="圖層_2" data-name="圖層 2"><g id="內文"><path class="cls-1" d="M330,201.16,409.3,200l6.05,2.27v28l-4.54,2.65-51.35-.76c-.75,7.19-.75,14.37-2.26,21.93L419.12,253l5.29,2.64V284l-5.29,2.65-74-.76c-1.51,3-3.77,6.43-5.28,9.46l11.33-4.54h8.3c18.13,7.18,31.72,13.23,49.09,23.44l-1.51,3-48.33,20h-6.8c-12.84-8.32-21.9-14-33.23-20-22.65,18.9-53.61,33.27-94.39,43.86a42.66,42.66,0,0,1-8.31,1.13,21.21,21.21,0,0,1-9.82-2.65l-53.62-24.95c55.89-14,89.87-27.22,108-48.78l-64.19.76-4.54-2.27V255.23l4.54-2.27,79.29,1.13c1.51-7.56,2.26-14.74,3-22.31h-8.31c-6,5.68-12.84,10.59-18.88,15.51a12.74,12.74,0,0,1-7.55,2.26,35.94,35.94,0,0,1-8.31-1.13l-42.29-10.59c-13.59,48.4-46.06,86.21-99.68,120.24a14.55,14.55,0,0,1-7.55,2.27c-2.27,0-4.53-.76-7.55-2.27L11.33,325.93c55.88-33.65,86.09-68.43,94.39-119.48-23.41,6.81-46.82,13.61-73.25,19.28l-8.3-1.51L.76,175.82,6,173.18C43.8,168.64,79.29,162.59,108,156.54V118.35L44.56,136.88,37,136.12C26.43,112.3,15.1,93.39,0,76.38L3.78,73,68,54.45l7.55.38C87.6,65.79,98.93,77.51,108,90.75l-2.27-57.1L111,31l125.36,1.13H362.48V2.65L367.77,0H469l5.29,2.65V32.14H592.81L718.92,31l5.29,2.64V69.19l-5.29,2.65L592.81,70.71H201.63V176.2a236.16,236.16,0,0,1-4.53,47.26,222.13,222.13,0,0,0,37-40.45l7.56-.76,60.41,8.7,3,3c-1.51,2.27-3.78,4.92-5.29,7.19ZM306.6,97.93c25.68-4.54,49.09-9.83,68.72-15.12h6.8l52.1,26.46-.75,3.41C398,120.24,354.18,127.8,306.6,134.61v5.29c0,7.19,3,7.94,24.92,7.94,33.23,0,37.76-1.13,43.05-21.17L441,139.15c7.55,1.51,8.31,1.89,7.55,4.91-3,12.1-7.55,21.55-23.41,28.74C405.53,181.49,387.4,183,325.48,183c-94.4,0-105-4.92-105-32.14L222,118V81.67l5.29-3h74l5.29,3Zm338.32,74.49L694,170.91l32.48,14.37c6,3,9.06,4.53,9.06,7.18,0,1.51-.76,3.4-3,6-9.06,11.34-21.9,27.6-35.5,40.46-2.26,2.27-4.53,3-8.3,3a64.92,64.92,0,0,1-7.55-.75L620.75,231a144.6,144.6,0,0,0,24.17-23.82H618.49V245l76.27-1.14,5.29,2.27v34.79l-5.29,1.89-76.27-.76v31.76c30.2,1.89,69.47,1.89,118.56,1.14L711.37,352.4c-3,4.16-6,4.92-17.37,4.92-84.58,0-132.15-6.05-166.13-15.51a143.57,143.57,0,0,1-37.76-15.88c-10.57,12.1-24.17,22.69-41.54,32.9-3.77,2.27-6.79,3.4-9.81,3.4s-6.05-1.13-10.58-2.27l-59.66-17.77c62.68-30.62,73.26-60.12,73.26-118.35l5.28-2.27,69.48,4.54,5.29,2.65a184.39,184.39,0,0,1-8.31,56.34,94.06,94.06,0,0,0,22.65,14.74V207.21h-15.1l-87.6.75-5.29-1.89V173.55l5.29-2.26,87.6,1.13h28.7c-27.19-10.21-55.13-20-82.32-27.22v-3.41l46.82-22.31h7.56c12.83,3.41,26.43,7.19,40.77,11.73a281.62,281.62,0,0,0,30.21-15.13H526.36l-80.81,1.13L441,114.57V83.94l4.53-2.27,80.81.76H614L663,80.92l37.76,17c6,2.65,9.82,4.54,9.82,6.81,0,1.89-1.51,3.78-6,6.43Q670.59,131,623,152c7.55,2.65,15.1,5.67,21.9,8.7v3.4l-17.37,8.32Z"/><path class="cls-1" d="M1043.66,32.52c-19.64,17.77-42.29,34.41-67.22,50.29,36.25,37.43,55.89,84.32,55.89,150.86,0,45.76-7.55,73-18.13,88.1-19.63,29.87-74.76,39.33-146.5,39.33-15.1,0-18.88-.38-23.41-5.67L808,313.08c43.05.75,71-.38,83.07-2.65,16.61-3,27.19-9.83,30.21-17.77,6-17,7.55-29.87,7.55-50.29,0-9.45,0-18.53-.76-27.22a458.81,458.81,0,0,1-90.62,59.74c-5.28,2.65-9.06,3.4-12.08,3.4-4.53,0-7.55-1.13-11.33-3.4L759.71,240.1c57.39-26.47,111-60.5,149.52-97.55-3-6.05-6-12.1-9.81-18.15Q870,138,838.25,150.49c-6,2.27-9.82,3.4-12.84,3.4-3.78,0-6.8-1.89-10.57-4.16l-55.13-34.41c31.72-11,64.19-23.82,93.64-38.56-15.86-12.1-33.23-23.45-53.62-35.55l2.27-3.4,67.21-24.2h7.55c15.11,7.94,29.45,16.26,43,24.58a257.8,257.8,0,0,0,34-27.6l6.8-1.14,82.31,19.29Zm253.73,124h34.74l92.13-1.14,4.53,1.89v44.62l-4.53,1.89-92.13-1.13h-34.74v97.55h68l105-1.13,4.53,1.89V345.6l-4.53,1.89-105-1.14H1135l-102,1.14-5.28-2.27V301.36l4.53-2.27,102.7,1.13h54.37V202.67h-24.92l-91.37,1.13-5.29-2.27V157.67l4.53-2.27,92.13,1.14h24.92V72.6h-37L1058,73.73l-5.28-2.27V27.6l4.53-2.27,95.15,1.14h206.16L1456,25.33l4.53,1.89V71.84L1456,73.73l-97.42-1.13h-61.17Z"/></g></g></svg>