<svg xmlns="http://www.w3.org/2000/svg" viewBox="0 0 429.3 409.88"><defs><style>.cls-1{opacity:0.44;}.cls-2{fill:#00e1ff;}</style></defs><title>癡狂-2</title><g id="圖層_2" data-name="圖層 2"><g id="內文"><g class="cls-1"><path class="cls-2" d="M108.15,107.74,128.1,125.9l1,2-6.5,6.94-1.74-.39-12.58-12.13c-1.86,1.6-3.53,3.39-5.66,4.91l15.64,14.12.69,1.89-6.59,7-1.93-.57-18.2-17.4c-1.08.4-2.43.72-3.51,1.12l3.87,1.5,2.06,1.94a110.27,110.27,0,0,1,6.74,17.23l-1.08.4-16.66-6.26-1.69-1.58c-1.25-5-2.18-8.57-3.59-12.71-10-.57-21.05-4.21-33.64-11.06a15.39,15.39,0,0,1-2.33-1.65,7.37,7.37,0,0,1-1.82-2.94L33,99.6c17.13,9.52,28.65,14.14,38.16,13L55.09,97.87l-.6-1.62L61.26,89l1.65.49,19.43,18.72c2.13-1.52,4-3.13,5.94-4.83l-2.07-1.93c-2.82,0-5.65-.36-8.29-.55a4.31,4.31,0,0,1-2.4-1.19,11.89,11.89,0,0,1-1.8-2.21l-8-12.47C51.05,93.91,34.19,95.74,13,91.72a5,5,0,0,1-2.4-1.19,5.8,5.8,0,0,1-1.35-2.32L0,64.59c21.7,4.65,37.29,3,51.23-7.7-7.4-3.76-14.79-7.51-22.68-12.26l-1.71-2.3,5.45-17.46,1.92.57C44.65,33.09,54.87,39.85,63.4,45l8.88-9.48L52.22,25.38l-1.7-1.94A75.61,75.61,0,0,0,55.23,0L57,0,77.2,10.36,79,12.21a70.86,70.86,0,0,1-.29,16.48L91.42,14l1.92.57L124.21,44l31.31,29.34L162.38,66l1.93.58,25.12,23.53.7,1.89-6.86,7.32,29.44,27.58,31.58,29,.7,1.89-8.27,8.82-1.93-.57-31-29.62-97.13-91L82.08,71.68A80.49,80.49,0,0,1,70,82.36a75.28,75.28,0,0,0,18.6-1.44l2,1.57,13,16.21,0,1.46c-.9.21-2.08.34-3,.55ZM193,173.85l12.55,11L210.29,196c.79,2.16,1.19,3.23.58,3.89a3.35,3.35,0,0,1-2.16.8,135.88,135.88,0,0,1-18.22,1.79,3.5,3.5,0,0,1-2.77-1.18,21.75,21.75,0,0,1-1.7-1.95l-12.63-16.58a49,49,0,0,0,11.54-.3l-6.56-6.14-8.79,9.38,19.2,17.46.78,1.8-8.09,8.63-1.75-.76L161,194.92l-7.39,7.89c7.06,7.5,16.81,16.63,29.18,27.86L167.67,234c-1.72.33-2.65-.19-5.46-2.82-21-19.67-31.41-32.24-37.65-42.49A49,49,0,0,1,118.88,176a55.7,55.7,0,0,1-18-1.49A6.47,6.47,0,0,1,97.69,173a16.56,16.56,0,0,1-2.1-3L84.91,151.71c22.69,7,32.17,2.11,45.71-12.34l1.84.66,16.2,17.29.7,1.89a62.92,62.92,0,0,1-15.17,12,32.11,32.11,0,0,0,2.2,8.93l21.54-23-3.75-3.51-21.93-20.19-.87-1.7,7.57-8.07,1.84.66L162.27,145l7.13,6.68c-4.38-8.86-9-17.8-14.11-25.91l.79-.84,16.82,5.35,1.87,1.75c2.4,3.84,4.89,7.93,7.4,12.4a94.35,94.35,0,0,0,11,3.27l-16.5-15.46-20.33-18.51-.51-1.71,7.12-7.6,1.66.49,19.88,19,21.76,20.37,12.54,11,5.41,13c.89,2.06,1.39,3.41.86,4s-1.26.59-3,.19a275.9,275.9,0,0,1-29.75-8.83c1.27,2.42,2.44,4.93,3.42,7.26l-.79.84-6.25-2ZM126.34,76.66c7.43,4.85,14.48,9,20.58,12.23l1.69,1.58,6.78,18.69-1,.67c-10.58-6.37-23.21-14.68-36.61-24.06l-1.23,1.31c-1.67,1.79-1.09,2.68,4.34,7.77,8.25,7.73,9.64,8.5,15.62,4.76l13.59,18.55c1.53,2.13,1.63,2.4.74,3-3.57,2.3-6.89,3.59-12.5,1.69-6.9-2.41-11.75-6.25-27.12-20.65-23.44-22-24.93-25.64-18.59-32.4l8-7.81,8.44-9,2,.47,18.38,17.22.6,2Z"/><path class="cls-2" d="M324.56,231.85a170.77,170.77,0,0,1-28.38-3.14c.3,17.72-5.73,33.93-21.21,50.45-10.64,11.36-18.85,16.36-25,17.66-11.82,2.85-27.71-7.63-45.52-24.32-3.75-3.51-4.6-4.48-4.5-6.85l.85-18.94c10.51,10.2,17.72,16.41,21.24,18.66,4.83,3.11,9,3.88,11.64,2.62,5.45-2.82,8.82-5.67,13.57-10.74,2.2-2.34,4.31-4.59,6.14-6.93A156.49,156.49,0,0,1,217,244.08a9.25,9.25,0,0,1-3.8-2,6.82,6.82,0,0,1-2-3.48l-5.41-21.28c20.41,6.77,41.64,10.8,59.82,10.56.65-2.21,1.31-4.41,1.78-6.8q-10.47-3.47-21.25-7.74a13.61,13.61,0,0,1-4-2.15,7,7,0,0,1-1.66-3.49l-5.69-21.36A268.48,268.48,0,0,0,267,198.57a185.82,185.82,0,0,0-5-21.29l1.35-.32,22.32,9.62,1.87,1.76c1.91,5.48,3.53,10.89,5,16.11a86.4,86.4,0,0,0,14.86,1.05l1.95,1.3,16,23.94Zm34.16,89.81,8.63,8.08,23.14,21.15.69,1.52L380.8,363.49l-1.57-.59-22.61-21.71L348,333.11l-22.69,24.22,16.87,15.81,26.33,24.14.69,1.52-10.38,11.08-1.56-.59-25.8-24.7L274.27,331l-25.58-23.43-.79-1.79,10.2-10.89,1.66.49L285,319.57l13.5,12.65L321.18,308,315,302.2l-22.95-21-.78-1.79,10.2-10.89,1.65.49,22.61,21.71,6.19,5.79,19.52-20.84-9.18-8.61-23.71-21.67-.78-1.79L328,232.74l1.65.49L353,255.64l51.19,47.95L428.62,326l.68,1.52-10.37,11.08-1.57-.58-23.92-22.94-15.19-14.23Z"/></g></g></g></svg>